<svg width="24" height="24" viewBox="0 0 24 24" fill="none" xmlns="http://www.w3.org/2000/svg">
<path d="M7.32129 10.5643H13.264V11.6448H7.32129V10.5643ZM7.32129 13.2656H14.3445V14.3461H7.32129V13.2656Z" fill="black"/>
<path d="M18.1275 5.16199H5.16155C4.87498 5.16199 4.60016 5.27582 4.39752 5.47846C4.19489 5.68109 4.08105 5.95592 4.08105 6.24248V17.0474C4.08105 17.334 4.19489 17.6088 4.39752 17.8115C4.60016 18.0141 4.87498 18.1279 5.16155 18.1279H18.1275C18.414 18.1279 18.6889 18.0141 18.8915 17.8115C19.0941 17.6088 19.208 17.334 19.208 17.0474V6.24248C19.208 5.95592 19.0941 5.68109 18.8915 5.47846C18.6889 5.27582 18.414 5.16199 18.1275 5.16199ZM18.1275 6.24248V7.32298H5.16155V6.24248H18.1275ZM5.16155 17.0474V8.40347H18.1275V17.0474H5.16155Z" fill="black"/>
</svg>
