<svg width="24" height="25" viewBox="0 0 24 25" fill="none" xmlns="http://www.w3.org/2000/svg">
<path d="M18.5367 15.8915C18.2357 14.9777 18.0818 14.0218 18.0809 13.0597V10.6824C18.1028 9.17607 17.5653 7.71515 16.5722 6.58227C15.5826 5.4476 14.2091 4.71804 12.7148 4.53339C11.8891 4.44772 11.0491 4.53339 10.2519 4.80348C9.45471 5.05929 8.72891 5.48644 8.11734 6.05637C7.50272 6.61159 7.01284 7.29086 6.68003 8.04932C6.34557 8.8075 6.171 9.62649 6.16722 10.4552V13.0728C6.16548 14.0309 6.01166 14.9827 5.71152 15.8927L5 17.9975L5.56993 18.7804H9.74027C9.74027 19.4062 9.99608 20.0178 10.4375 20.4604C10.8777 20.9006 11.4905 21.1576 12.1175 21.1576C12.7434 21.1576 13.355 20.9018 13.7964 20.4604C14.2378 20.019 14.4948 19.4062 14.4948 18.7804H18.6652L19.2339 17.9975L18.5367 15.8915ZM12.9564 19.6359C12.8469 19.7475 12.7164 19.8364 12.5725 19.8975C12.4285 19.9585 12.2739 19.9905 12.1175 19.9916C11.9609 19.9905 11.806 19.9584 11.6618 19.8972C11.5177 19.8359 11.387 19.7467 11.2775 19.6347C11.1656 19.5253 11.0765 19.3949 11.0153 19.2509C10.954 19.1069 10.9218 18.9523 10.9206 18.7958H13.299C13.304 18.9519 13.2762 19.1074 13.2173 19.252C13.1585 19.3967 13.0688 19.5275 12.9564 19.6359ZM6.39448 17.6012L6.8359 16.2758C7.18013 15.2432 7.35805 14.1624 7.36299 13.074V10.4552C7.36299 9.78528 7.50577 9.13088 7.77586 8.53239C8.04596 7.92082 8.43027 7.37945 8.92881 6.93803C9.42734 6.48351 10.0115 6.14084 10.6374 5.94214C11.2775 5.72797 11.9462 5.65658 12.6006 5.72797C13.8 5.88568 14.8996 6.47848 15.6906 7.39373C16.4818 8.31012 16.9071 9.48619 16.8852 10.6967V13.0882C16.8852 14.1698 17.0565 15.2513 17.4123 16.2901L17.8537 17.6143H6.39567V17.6001L6.39448 17.6012Z" fill="#3A6797"/>
</svg>
