<svg width="24" height="25" viewBox="0 0 24 25" fill="none" xmlns="http://www.w3.org/2000/svg">
<mask id="mask0_3389_6856" style="mask-type:luminance" maskUnits="userSpaceOnUse" x="4" y="4" width="16" height="17">
<path d="M20 4.65625H4V20.6565H20V4.65625Z" fill="white"/>
</mask>
<g mask="url(#mask0_3389_6856)">
<path fill-rule="evenodd" clip-rule="evenodd" d="M16.4854 9.03511C16.4298 8.81225 16.2296 8.65625 16.0003 8.65625H7.99996C7.77061 8.65625 7.57041 8.81225 7.51486 9.03511L6.51496 13.0352C6.47756 13.1843 6.51111 13.3426 6.60626 13.4637C6.70086 13.5855 6.84606 13.6563 7.00006 13.6563H17.0002C17.1542 13.6563 17.2994 13.5855 17.394 13.4637C17.4891 13.3426 17.5227 13.1843 17.4853 13.0352L16.4854 9.03511ZM8.39046 9.65626L7.64026 12.6563H16.36L15.6098 9.65626H8.39046Z" fill="black"/>
<path fill-rule="evenodd" clip-rule="evenodd" d="M11.4619 13.0323C11.4053 12.8111 11.2058 12.6562 10.9775 12.6562H5.52271C5.29433 12.6562 5.09483 12.8111 5.03821 13.0323L4.01559 17.0323C3.97734 17.182 4.01034 17.3409 4.10521 17.4632C4.19971 17.5849 4.34559 17.6563 4.50009 17.6563H12.0001C12.1546 17.6563 12.3004 17.5849 12.3949 17.4632C12.4898 17.3409 12.5228 17.182 12.4846 17.0323L11.4619 13.0323ZM5.91121 13.6563L5.14396 16.6563H11.3562L10.589 13.6563H5.91121Z" fill="black"/>
<path fill-rule="evenodd" clip-rule="evenodd" d="M18.9619 13.0323C18.9053 12.8111 18.7058 12.6562 18.4775 12.6562H13.0227C12.7943 12.6562 12.5948 12.8111 12.5382 13.0323L11.5156 17.0323C11.4773 17.182 11.5103 17.3409 11.6052 17.4632C11.6997 17.5849 11.8456 17.6563 12.0001 17.6563H19.5001C19.6546 17.6563 19.8004 17.5849 19.8949 17.4632C19.9898 17.3409 20.0228 17.182 19.9846 17.0323L18.9619 13.0323ZM13.4112 13.6563L12.644 16.6563H18.8562L18.089 13.6563H13.4112Z" fill="black"/>
</g>
</svg>
