<svg width="24" height="24" viewBox="0 0 24 24" fill="none" xmlns="http://www.w3.org/2000/svg">
<path fill-rule="evenodd" clip-rule="evenodd" d="M15.0297 13.5C15.3219 13.5 15.5588 13.7369 15.5588 14.0291V15.6124C15.5588 15.9046 15.3219 16.1414 15.0297 16.1414H13.4464C13.1542 16.1414 12.9173 15.9046 12.9173 15.6124V14.0291C12.9173 13.7369 13.1542 13.5 13.4464 13.5H15.0297ZM14.5007 15.0833V14.5581H13.9754V15.0833H14.5007Z" fill="black"/>
<path fill-rule="evenodd" clip-rule="evenodd" d="M8.69572 4C8.40353 4 8.16667 4.23686 8.16667 4.52905V5.58301H7.11238C5.94575 5.58301 5 6.52875 5 7.69539V17.1954C5 18.362 5.94575 19.3078 7.11238 19.3078H16.6124C17.779 19.3078 18.7248 18.362 18.7248 17.1954V7.69539C18.7248 6.52875 17.779 5.58301 16.6124 5.58301H15.5588V4.52905C15.5588 4.23686 15.3219 4 15.0297 4C14.7375 4 14.5007 4.23686 14.5007 4.52905V5.58301H9.22477V4.52905C9.22477 4.23686 8.9879 4 8.69572 4ZM6.0581 17.1954V11.3901H17.6667V17.1954C17.6667 17.7777 17.1946 18.2497 16.6124 18.2497H7.11238C6.53012 18.2497 6.0581 17.7777 6.0581 17.1954ZM6.0581 10.332H17.6667V7.69539C17.6667 7.11313 17.1946 6.64111 16.6124 6.64111H15.5588V7.69572C15.5588 7.9879 15.3219 8.22477 15.0297 8.22477C14.7375 8.22477 14.5007 7.9879 14.5007 7.69572V6.64111H9.22477V7.69572C9.22477 7.9879 8.9879 8.22477 8.69572 8.22477C8.40353 8.22477 8.16667 7.9879 8.16667 7.69572V6.64111H7.11238C6.53012 6.64111 6.0581 7.11313 6.0581 7.69539V10.332Z" fill="black"/>
</svg>
