<svg width="25" height="25" viewBox="0 0 25 25" fill="none" xmlns="http://www.w3.org/2000/svg">
<path d="M6.32324 16.4557V12.3301C6.32324 10.6888 6.97524 9.11473 8.1358 7.95416C9.29637 6.7936 10.8704 6.1416 12.5117 6.1416C14.153 6.1416 15.7271 6.7936 16.8876 7.95416C18.0482 9.11473 18.7002 10.6888 18.7002 12.3301V16.4557" stroke="#005089" stroke-width="1.03141" stroke-linecap="round" stroke-linejoin="round"/>
<path d="M18.7002 17.1431C18.7002 17.5079 18.5553 17.8576 18.2974 18.1155C18.0395 18.3734 17.6897 18.5183 17.325 18.5183H16.6374C16.2726 18.5183 15.9228 18.3734 15.6649 18.1155C15.407 17.8576 15.2622 17.5079 15.2622 17.1431V15.0803C15.2622 14.7156 15.407 14.3658 15.6649 14.1079C15.9228 13.85 16.2726 13.7051 16.6374 13.7051H18.7002V17.1431ZM6.32324 17.1431C6.32324 17.5079 6.46813 17.8576 6.72603 18.1155C6.98394 18.3734 7.33373 18.5183 7.69846 18.5183H8.38607C8.7508 18.5183 9.10059 18.3734 9.35849 18.1155C9.6164 17.8576 9.76128 17.5079 9.76128 17.1431V15.0803C9.76128 14.7156 9.6164 14.3658 9.35849 14.1079C9.10059 13.85 8.7508 13.7051 8.38607 13.7051H6.32324V17.1431Z" stroke="#005089" stroke-width="1.03141" stroke-linecap="round" stroke-linejoin="round"/>
</svg>
