<svg width="24" height="24" viewBox="0 0 24 24" fill="none" xmlns="http://www.w3.org/2000/svg">
<path d="M5.40409 19.6006H18.5959C20.1884 19.6006 21 18.8044 21 17.2271V9.211C21 7.6338 20.1884 6.84519 18.5959 6.84519H16.8043C16.2071 6.84519 16.0234 6.72269 15.6789 6.33987L15.0587 5.65079C14.6836 5.22971 14.2931 5 13.4968 5H10.4496C9.66098 5 9.27051 5.22971 8.88772 5.65079L8.26754 6.33987C7.93068 6.71501 7.73928 6.84519 7.14207 6.84519H5.40409C3.81158 6.84519 3 7.6338 3 9.211V17.2271C3 18.8044 3.81158 19.6006 5.40409 19.6006ZM5.42705 18.3679C4.66908 18.3679 4.23269 17.9621 4.23269 17.1659V9.27989C4.23269 8.48363 4.66908 8.07785 5.42705 8.07785H7.44832C8.1374 8.07785 8.5049 7.9477 8.88772 7.51895L9.49255 6.84519C9.92898 6.35519 10.151 6.23269 10.8324 6.23269H13.114C13.7954 6.23269 14.0174 6.35519 14.4538 6.84519L15.0587 7.51895C15.4415 7.9477 15.809 8.07785 16.4981 8.07785H18.573C19.331 8.07785 19.7674 8.48363 19.7674 9.27989V17.1659C19.7674 17.9621 19.331 18.3679 18.573 18.3679H5.42705ZM11.9962 17.1506C14.316 17.1506 16.1765 15.2901 16.1765 12.9626C16.1765 10.635 14.3237 8.7746 11.9962 8.7746C9.68398 8.7746 7.8235 10.635 7.8235 12.9626C7.8235 15.2901 9.68398 17.1506 11.9962 17.1506ZM17.5011 11.0944C18.0217 11.0944 18.4504 10.6733 18.4504 10.1527C18.4504 9.62443 18.0217 9.20332 17.5011 9.20332C16.9804 9.20332 16.5517 9.62443 16.5517 10.1527C16.5517 10.6733 16.9804 11.0944 17.5011 11.0944ZM11.9962 15.9868C10.3348 15.9868 8.97958 14.6393 8.97958 12.9626C8.97958 11.2858 10.3271 9.93832 11.9962 9.93832C13.6653 9.93832 15.0204 11.2858 15.0204 12.9626C15.0204 14.6393 13.6653 15.9868 11.9962 15.9868Z" fill="#005089"/>
</svg>
