<svg width="24" height="24" viewBox="0 0 24 24" fill="none" xmlns="http://www.w3.org/2000/svg">
<path fill-rule="evenodd" clip-rule="evenodd" d="M3 7.38118C3 6.78281 3.2377 6.20894 3.66082 5.78582C4.08394 5.3627 4.65781 5.125 5.25618 5.125H18.7933C19.3917 5.125 19.9655 5.3627 20.3887 5.78582C20.8118 6.20894 21.0495 6.78281 21.0495 7.38118V16.4059C21.0495 17.0043 20.8118 17.5782 20.3887 18.0013C19.9655 18.4244 19.3917 18.6621 18.7933 18.6621H5.25618C4.65781 18.6621 4.08394 18.4244 3.66082 18.0013C3.2377 17.5782 3 17.0043 3 16.4059V7.38118ZM5.25618 6.25309C4.957 6.25309 4.67006 6.37194 4.4585 6.5835C4.24694 6.79506 4.12809 7.082 4.12809 7.38118V8.50928H19.9214V7.38118C19.9214 7.082 19.8025 6.79506 19.591 6.5835C19.3794 6.37194 19.0925 6.25309 18.7933 6.25309H5.25618ZM19.9214 10.7655H4.12809V16.4059C4.12809 16.7051 4.24694 16.992 4.4585 17.2036C4.67006 17.4152 4.957 17.534 5.25618 17.534H18.7933C19.0925 17.534 19.3794 17.4152 19.591 17.2036C19.8025 16.992 19.9214 16.7051 19.9214 16.4059V10.7655Z" fill="black"/>
<path d="M9.63135 13.5248C9.63135 13.3085 9.71728 13.101 9.87023 12.948C10.0232 12.7951 10.2306 12.7092 10.4469 12.7092H11.2625C11.4788 12.7092 11.6863 12.7951 11.8392 12.948C11.9922 13.101 12.0781 13.3085 12.0781 13.5248V14.3404C12.0781 14.5567 11.9922 14.7641 11.8392 14.9171C11.6863 15.07 11.4788 15.1559 11.2625 15.1559H10.4469C10.2306 15.1559 10.0232 15.07 9.87023 14.9171C9.71728 14.7641 9.63135 14.5567 9.63135 14.3404V13.5248Z" fill="black"/>
</svg>
