<svg width="24" height="24" viewBox="0 0 24 24" fill="none" xmlns="http://www.w3.org/2000/svg">
<path fill-rule="evenodd" clip-rule="evenodd" d="M5.43425 5.99934C5.43425 4.03066 7.03018 2.43472 8.99886 2.43472H17.9979C19.9666 2.43472 21.5625 4.03066 21.5625 5.99934V17.998C21.5625 19.9667 19.9666 21.5627 17.9979 21.5627H8.99886C7.03018 21.5627 5.43425 19.9667 5.43425 17.998V5.99934ZM8.99886 3.5646C7.65419 3.5646 6.56412 4.65467 6.56412 5.99934V17.998C6.56412 19.3427 7.65419 20.4328 8.99886 20.4328H17.9979C19.3426 20.4328 20.4326 19.3427 20.4326 17.998V5.99934C20.4326 4.65467 19.3426 3.5646 17.9979 3.5646H8.99886ZM13.4984 7.01979C12.1537 7.01979 11.0636 8.10986 11.0636 9.45453C11.0636 10.7992 12.1537 11.8893 13.4984 11.8893C14.843 11.8893 15.9331 10.7992 15.9331 9.45453C15.9331 8.10986 14.843 7.01979 13.4984 7.01979ZM9.93376 9.45453C9.93376 7.48585 11.5297 5.88992 13.4984 5.88992C15.4671 5.88992 17.063 7.48585 17.063 9.45453C17.063 11.4232 15.4671 13.0191 13.4984 13.0191C11.5297 13.0191 9.93376 11.4232 9.93376 9.45453ZM2.99951 6.43429C3.31152 6.43429 3.56445 6.68722 3.56445 6.99923L3.56445 16.9981C3.56445 17.3102 3.31152 17.5631 2.99951 17.5631C2.6875 17.5631 2.43457 17.3102 2.43457 16.9981L2.43457 6.99923C2.43457 6.68722 2.6875 6.43429 2.99951 6.43429ZM18.2828 16.9772C14.0515 15.2356 10.6227 16.0245 8.75156 16.9601C8.4725 17.0996 8.13315 16.9865 7.99362 16.7075C7.85408 16.4284 7.9672 16.0891 8.24626 15.9495C10.3747 14.8853 14.1452 14.0523 18.7129 15.9324C19.0014 16.0512 19.139 16.3813 19.0202 16.6698C18.9015 16.9584 18.5713 17.096 18.2828 16.9772Z" fill="#005089"/>
</svg>
