<svg width="16" height="17" viewBox="0 0 16 17" fill="none" xmlns="http://www.w3.org/2000/svg">
<path d="M11.8236 6.10059H6.5295C5.87975 6.10059 5.35303 6.62731 5.35303 7.27706V12.5712C5.35303 13.2209 5.87975 13.7477 6.5295 13.7477H11.8236C12.4734 13.7477 13.0001 13.2209 13.0001 12.5712V7.27706C13.0001 6.62731 12.4734 6.10059 11.8236 6.10059Z" stroke="white" stroke-linecap="round" stroke-linejoin="round"/>
<path d="M4.76471 11.3951H4.17647C3.86445 11.3951 3.56521 11.2712 3.34458 11.0505C3.12395 10.8299 3 10.5307 3 10.2186V4.92452C3 4.6125 3.12395 4.31326 3.34458 4.09263C3.56521 3.872 3.86445 3.74805 4.17647 3.74805H9.4706C9.78262 3.74805 10.0819 3.872 10.3025 4.09263C10.5231 4.31326 10.6471 4.6125 10.6471 4.92452V5.51276" stroke="white" stroke-linecap="round" stroke-linejoin="round"/>
</svg>
