<svg width="25" height="25" viewBox="0 0 25 25" fill="none" xmlns="http://www.w3.org/2000/svg">
<path d="M7.3592 18.1781H16.2228C16.7722 18.1765 17.2985 17.9571 17.6862 17.5679C18.074 17.1787 18.2915 16.6516 18.291 16.1022V11.6486C18.291 11.4918 18.2288 11.3415 18.1179 11.2307C18.0071 11.1199 17.8568 11.0576 17.7001 11.0576C17.5434 11.0576 17.3931 11.1199 17.2823 11.2307C17.1715 11.3415 17.1092 11.4918 17.1092 11.6486V16.1022C17.11 16.3383 17.0171 16.565 16.8509 16.7326C16.6847 16.9002 16.4589 16.995 16.2228 16.9963H7.3592C7.12317 16.995 6.89729 16.9002 6.73111 16.7326C6.56494 16.565 6.47205 16.3383 6.47283 16.1022V7.25396C6.47205 7.01794 6.56494 6.79124 6.73111 6.62363C6.89729 6.45601 7.12317 6.36117 7.3592 6.35992H11.791C11.9477 6.35992 12.098 6.29766 12.2089 6.18685C12.3197 6.07603 12.3819 5.92573 12.3819 5.76901C12.3819 5.61229 12.3197 5.46199 12.2089 5.35117C12.098 5.24036 11.9477 5.1781 11.791 5.1781H7.3592C6.80983 5.17967 6.28353 5.39912 5.89579 5.7883C5.50805 6.17748 5.29054 6.7046 5.29102 7.25396V16.1022C5.29054 16.6516 5.50805 17.1787 5.89579 17.5679C6.28353 17.9571 6.80983 18.1765 7.3592 18.1781Z" fill="black"/>
<path d="M10.7684 10.3386L10.3045 12.466C10.2835 12.5625 10.2871 12.6627 10.3149 12.7574C10.3428 12.8522 10.394 12.9384 10.4638 13.0081C10.5346 13.0761 10.6208 13.126 10.715 13.1535C10.8091 13.1811 10.9085 13.1855 11.0048 13.1665L13.125 12.7008C13.2351 12.6766 13.3359 12.6213 13.4155 12.5413L18.7743 7.17637C18.9381 7.01239 19.0681 6.8177 19.1567 6.60342C19.2454 6.38915 19.291 6.15949 19.291 5.92755C19.291 5.69562 19.2454 5.46596 19.1567 5.25169C19.0681 5.03741 18.9381 4.84272 18.7743 4.67874C18.4384 4.35741 17.9917 4.1781 17.5272 4.1781C17.0626 4.1781 16.6159 4.35741 16.2801 4.67874L10.9295 10.049C10.8492 10.1281 10.7933 10.2286 10.7684 10.3386ZM17.1115 5.51167C17.2233 5.40439 17.3723 5.34449 17.5272 5.34449C17.6821 5.34449 17.831 5.40439 17.9429 5.51167C18.0516 5.62271 18.1126 5.77203 18.1126 5.92755C18.1126 6.08308 18.0516 6.2324 17.9429 6.34344L17.5272 6.75961L16.6958 5.92726L17.1115 5.51167ZM11.8785 10.7589L15.8614 6.76138L16.6846 7.58961L12.6999 11.5883L11.6445 11.8202L11.8785 10.7589Z" fill="black"/>
</svg>
