<svg width="24" height="24" viewBox="0 0 24 24" fill="none" xmlns="http://www.w3.org/2000/svg">
<path fill-rule="evenodd" clip-rule="evenodd" d="M3.61129 3.61092C3.82607 3.39613 4.17432 3.39613 4.3891 3.61092L20.3891 19.6109C20.6039 19.8257 20.6039 20.1739 20.3891 20.3887C20.1743 20.6035 19.8261 20.6035 19.6113 20.3887L16.1507 16.9281C14.9913 17.6387 13.5999 18.1502 12.0002 18.1502C9.24315 18.1502 7.10978 16.6343 5.69711 15.184C4.98649 14.4544 4.44329 13.7267 4.07757 13.1817C3.89438 12.9087 3.75484 12.6801 3.66028 12.5184C3.61299 12.4374 3.57688 12.3731 3.55215 12.3281C3.53978 12.3056 3.53024 12.2879 3.52356 12.2754L3.51569 12.2606L3.51337 12.2562L3.51261 12.2547C3.5125 12.2545 3.51212 12.2538 4.0002 12.0002C3.51212 11.7467 3.51219 11.7466 3.51226 11.7464L3.51285 11.7453L3.51407 11.743L3.51798 11.7355L3.53171 11.7099C3.54347 11.6881 3.56045 11.657 3.58261 11.6175C3.62691 11.5387 3.69194 11.4261 3.77728 11.2866C3.94783 11.0079 4.20026 10.6208 4.53131 10.1805C5.09713 9.42799 5.9021 8.50741 6.9314 7.70885L3.61129 4.38874C3.3965 4.17395 3.3965 3.82571 3.61129 3.61092ZM13.6601 14.4376L15.3477 16.1252C14.3748 16.6796 13.2559 17.0502 12.0002 17.0502C9.66633 17.0502 7.7997 15.7661 6.4851 14.4165C5.83208 13.746 5.32983 13.0737 4.991 12.5688C4.8358 12.3375 4.71564 12.1424 4.63166 12.0002C4.65646 11.9582 4.68441 11.9116 4.71551 11.8608C4.87087 11.607 5.1038 11.2495 5.41051 10.8416C5.96016 10.1106 6.73647 9.23126 7.7161 8.49355L9.56115 10.3386C9.23871 10.8115 9.0498 11.3834 9.0498 11.9989C9.0498 13.6282 10.3705 14.9489 11.9998 14.9489C12.6152 14.9489 13.1872 14.76 13.6601 14.4376ZM12.8599 13.6374L10.3613 11.1388C10.2261 11.3957 10.1498 11.6882 10.1498 11.9989C10.1498 13.0207 10.978 13.8489 11.9998 13.8489C12.3106 13.8489 12.603 13.7726 12.8599 13.6374Z" fill="#005089"/>
<path d="M4.0002 12.0002L3.51212 12.2538C3.42955 12.0948 3.42969 11.9054 3.51226 11.7464L4.0002 12.0002Z" fill="#005089"/>
<path d="M12.0002 6.95022C11.7489 6.95022 11.5035 6.96504 11.2641 6.99307C10.9624 7.02838 10.6892 6.81244 10.6539 6.51074C10.6186 6.20904 10.8346 5.93584 11.1363 5.90053C11.4175 5.86761 11.7056 5.85022 12.0002 5.85022C14.7572 5.85022 16.8906 7.36612 18.3033 8.81646C19.0139 9.54603 19.5571 10.2737 19.9228 10.8188C20.106 11.0918 20.2456 11.3203 20.3401 11.4821C20.3874 11.563 20.4235 11.6274 20.4482 11.6724C20.4606 11.6949 20.4701 11.7125 20.4768 11.725L20.4847 11.7399L20.487 11.7443L20.4878 11.7457C20.4879 11.7459 20.4883 11.7467 20.0002 12.0002C20.4883 12.2538 20.4882 12.2538 20.4882 12.2539L20.4872 12.2557L20.4854 12.2593L20.4792 12.2709L20.4572 12.3118C20.4381 12.3467 20.4104 12.3966 20.3741 12.4597C20.3016 12.5857 20.1948 12.7646 20.0546 12.9816C19.7745 13.4151 19.359 14.0037 18.8149 14.6283C18.6154 14.8573 18.268 14.8813 18.0389 14.6817C17.8099 14.4822 17.786 14.1348 17.9855 13.9058C18.488 13.3289 18.8725 12.7841 19.1307 12.3846C19.2287 12.233 19.3081 12.1028 19.3687 12.0002C19.2847 11.858 19.1646 11.663 19.0094 11.4317C18.6706 10.9267 18.1683 10.2544 17.5153 9.58398C16.2007 8.23432 14.334 6.95022 12.0002 6.95022Z" fill="#005089"/>
<path d="M20.0002 12.0002L20.4883 11.7467C20.5708 11.9056 20.5708 12.095 20.4882 12.2539L20.0002 12.0002Z" fill="#005089"/>
</svg>
