<svg width="24" height="24" viewBox="0 0 24 24" fill="none" xmlns="http://www.w3.org/2000/svg">
<path fill-rule="evenodd" clip-rule="evenodd" d="M5.50001 4.00001C4.67156 4.00001 4.00001 4.67156 4.00001 5.50001V7.5C4.00001 7.77615 3.77614 7.99999 3.5 7.99999C3.22386 7.99999 3 7.77615 3 7.5V5.50001C3 4.1193 4.1193 3 5.50001 3H7.5C7.77615 3 7.99999 3.22386 7.99999 3.5C7.99999 3.77614 7.77615 4.00001 7.5 4.00001H5.50001ZM5.50001 20C4.67156 20 4.00001 19.3284 4.00001 18.5V16.5C4.00001 16.2239 3.77614 16 3.5 16C3.22386 16 3 16.2239 3 16.5V18.5C3 19.8807 4.1193 21 5.50001 21H7.5C7.77615 21 7.99999 20.7761 7.99999 20.5C7.99999 20.2239 7.77615 20 7.5 20H5.50001ZM18.5 4.00001C19.3284 4.00001 20 4.67156 20 5.50001V7.5C20 7.77615 20.2239 7.99999 20.5 7.99999C20.7761 7.99999 21 7.77615 21 7.5V5.50001C21 4.1193 19.8807 3 18.5 3H16.5C16.2239 3 16 3.22386 16 3.5C16 3.77614 16.2239 4.00001 16.5 4.00001H18.5ZM18.5 20C19.3284 20 20 19.3284 20 18.5V16.5C20 16.2239 20.2239 16 20.5 16C20.7761 16 21 16.2239 21 16.5V18.5C21 19.8807 19.8807 21 18.5 21H16.5C16.2239 21 16 20.7761 16 20.5C16 20.2239 16.2239 20 16.5 20H18.5ZM8.25004 7.30005C8.52619 7.30005 8.75003 7.52392 8.75003 7.80004V8.6334C8.75003 8.90951 8.52619 9.13339 8.25004 9.13339C7.97389 9.13339 7.75001 8.90951 7.75001 8.6334V7.80004C7.75001 7.52392 7.97389 7.30005 8.25004 7.30005ZM15.75 7.30005C16.0262 7.30005 16.25 7.52392 16.25 7.80004V8.6334C16.25 8.90951 16.0262 9.13339 15.75 9.13339C15.4739 9.13339 15.25 8.90951 15.25 8.6334V7.80004C15.25 7.52392 15.4739 7.30005 15.75 7.30005Z" fill="#005089"/>
<path fill-rule="evenodd" clip-rule="evenodd" d="M12.4165 8.96667C12.6927 8.96667 12.9165 9.19055 12.9165 9.4667V11.8C12.9165 12.6284 12.245 13.3 11.4165 13.3H11.1665C10.8904 13.3 10.6665 13.0761 10.6665 12.8C10.6665 12.5239 10.8904 12.3 11.1665 12.3H11.4165C11.6927 12.3 11.9165 12.0762 11.9165 11.8V9.4667C11.9165 9.19055 12.1404 8.96667 12.4165 8.96667Z" fill="#005089"/>
<path fill-rule="evenodd" clip-rule="evenodd" d="M7.97377 14.0499C8.2039 13.8973 8.51418 13.9602 8.66677 14.1903C9.20009 14.9946 10.4499 15.6333 12.0001 15.6333C13.5503 15.6333 14.8 14.9946 15.3333 14.1903C15.486 13.9602 15.7962 13.8973 16.0264 14.0499C16.2565 14.2025 16.3194 14.5128 16.1668 14.7429C15.3957 15.9059 13.7778 16.6333 12.0001 16.6333C10.2224 16.6333 8.60444 15.9059 7.83333 14.7429C7.68074 14.5128 7.74359 14.2025 7.97377 14.0499Z" fill="#005089"/>
</svg>
