<svg width="30" height="31" viewBox="0 0 30 31" fill="none" xmlns="http://www.w3.org/2000/svg">
<path fill-rule="evenodd" clip-rule="evenodd" d="M6.87502 5.74123C5.83945 5.74123 5.00002 6.58066 5.00002 7.61623V10.1162C5.00002 10.4614 4.72017 10.7412 4.375 10.7412C4.02982 10.7412 3.75 10.4614 3.75 10.1162V7.61623C3.75 5.89034 5.14913 4.49121 6.87502 4.49121H9.375C9.72019 4.49121 9.99998 4.77103 9.99998 5.11621C9.99998 5.46138 9.72019 5.74123 9.375 5.74123H6.87502ZM6.87502 25.7412C5.83945 25.7412 5.00002 24.9018 5.00002 23.8662V21.3662C5.00002 21.021 4.72017 20.7412 4.375 20.7412C4.02982 20.7412 3.75 21.021 3.75 21.3662V23.8662C3.75 25.5921 5.14913 26.9912 6.87502 26.9912H9.375C9.72019 26.9912 9.99998 26.7114 9.99998 26.3662C9.99998 26.021 9.72019 25.7412 9.375 25.7412H6.87502ZM23.125 5.74123C24.1605 5.74123 25 6.58066 25 7.61623V10.1162C25 10.4614 25.2798 10.7412 25.625 10.7412C25.9702 10.7412 26.25 10.4614 26.25 10.1162V7.61623C26.25 5.89034 24.8509 4.49121 23.125 4.49121H20.625C20.2798 4.49121 20 4.77103 20 5.11621C20 5.46138 20.2798 5.74123 20.625 5.74123H23.125ZM23.125 25.7412C24.1605 25.7412 25 24.9018 25 23.8662V21.3662C25 21.021 25.2798 20.7412 25.625 20.7412C25.9702 20.7412 26.25 21.021 26.25 21.3662V23.8662C26.25 25.5921 24.8509 26.9912 23.125 26.9912H20.625C20.2798 26.9912 20 26.7114 20 26.3662C20 26.021 20.2798 25.7412 20.625 25.7412H23.125ZM10.3125 9.86627C10.6577 9.86627 10.9375 10.1461 10.9375 10.4913V11.533C10.9375 11.8781 10.6577 12.1579 10.3125 12.1579C9.96736 12.1579 9.68752 11.8781 9.68752 11.533V10.4913C9.68752 10.1461 9.96736 9.86627 10.3125 9.86627ZM19.6875 9.86627C20.0327 9.86627 20.3125 10.1461 20.3125 10.4913V11.533C20.3125 11.8781 20.0327 12.1579 19.6875 12.1579C19.3424 12.1579 19.0625 11.8781 19.0625 11.533V10.4913C19.0625 10.1461 19.3424 9.86627 19.6875 9.86627Z" fill="#005089"/>
<path fill-rule="evenodd" clip-rule="evenodd" d="M15.521 11.9497C15.8662 11.9497 16.146 12.2296 16.146 12.5747V15.4914C16.146 16.5269 15.3066 17.3664 14.271 17.3664H13.9585C13.6133 17.3664 13.3335 17.0866 13.3335 16.7414C13.3335 16.3962 13.6133 16.1164 13.9585 16.1164H14.271C14.6162 16.1164 14.896 15.8366 14.896 15.4914V12.5747C14.896 12.2296 15.1758 11.9497 15.521 11.9497Z" fill="#005089"/>
<path fill-rule="evenodd" clip-rule="evenodd" d="M9.96721 18.3034C10.2549 18.1126 10.6427 18.1912 10.8335 18.4789C11.5001 19.4843 13.0623 20.2826 15.0001 20.2826C16.9378 20.2826 18.5001 19.4843 19.1667 18.4789C19.3574 18.1912 19.7453 18.1126 20.033 18.3034C20.3206 18.4941 20.3992 18.882 20.2085 19.1697C19.2446 20.6234 17.2222 21.5326 15.0001 21.5326C12.778 21.5326 10.7556 20.6234 9.79166 19.1697C9.60093 18.882 9.67949 18.4941 9.96721 18.3034Z" fill="#005089"/>
</svg>
