<svg width="25" height="24" viewBox="0 0 25 24" fill="none" xmlns="http://www.w3.org/2000/svg">
<g id="Facebook - Original" clip-path="url(#clip0_2695_54138)">
<path id="Vector" d="M24.8334 12.0733C24.8334 5.40541 19.4608 0 12.8334 0C6.20595 0 0.833374 5.40541 0.833374 12.0733C0.833374 18.0994 5.22158 23.0943 10.9584 24V15.5633H7.9115V12.0733H10.9584V9.41343C10.9584 6.38755 12.7499 4.71615 15.491 4.71615C16.8035 4.71615 18.1771 4.95195 18.1771 4.95195V7.92313H16.664C15.1734 7.92313 14.7084 8.85386 14.7084 9.80958V12.0733H18.0365L17.5045 15.5633H14.7084V24C20.4452 23.0943 24.8334 18.0994 24.8334 12.0733Z" fill="#005089"/>
<path id="Vector_2" d="M17.5045 15.4688L18.0365 12H14.7084V9.75C14.7084 8.80102 15.1734 7.875 16.664 7.875H18.1771V4.92188C18.1771 4.92188 16.8039 4.6875 15.491 4.6875C12.7499 4.6875 10.9584 6.34875 10.9584 9.35625V12H7.9115V15.4688H10.9584V23.8542C12.2008 24.0486 13.4659 24.0486 14.7084 23.8542V15.4688H17.5045Z" fill="#EAEAEA"/>
</g>
<defs>
<clipPath id="clip0_2695_54138">
<rect width="24" height="24" fill="white" transform="translate(0.833374)"/>
</clipPath>
</defs>
</svg>
