<svg width="24" height="25" viewBox="0 0 24 25" fill="none" xmlns="http://www.w3.org/2000/svg">
<g id="Group 99809">
<g id="Group 99731">
<circle id="Ellipse 137" cx="5.76953" cy="9.03125" r="3.40469" stroke="black" stroke-width="0.8"/>
<path id="$" d="M5.97366 7.05305C5.97366 7.1725 5.87682 7.26934 5.75736 7.26934C5.63791 7.26934 5.54107 7.1725 5.54107 7.05305V6.61473C5.54107 6.49528 5.63791 6.39844 5.75736 6.39844C5.87682 6.39844 5.97366 6.49528 5.97366 6.61473V7.05305ZM5.91923 11.6281C5.91923 11.746 5.82367 11.8416 5.7058 11.8416C5.58792 11.8416 5.49237 11.746 5.49237 11.6281V11.293C5.49237 11.1751 5.58792 11.0795 5.7058 11.0795C5.82367 11.0795 5.91923 11.1751 5.91923 11.293V11.6281ZM6.48932 10.1714C6.48932 10.0568 6.46354 9.95366 6.41197 9.86199C6.36041 9.77031 6.27542 9.68628 6.157 9.60988C6.0405 9.53158 5.88294 9.45996 5.68431 9.39502C5.44367 9.32054 5.23549 9.22982 5.05978 9.12287C4.88599 9.01591 4.75134 8.88413 4.65585 8.72752C4.56226 8.569 4.51547 8.37706 4.51547 8.1517C4.51547 7.91678 4.56608 7.71434 4.66731 7.54436C4.76853 7.37438 4.91177 7.24355 5.09703 7.15188C5.28228 7.06021 5.50001 7.01437 5.7502 7.01437C6.00994 7.01437 6.23149 7.06594 6.41484 7.16907C6.60009 7.2722 6.74142 7.42404 6.83883 7.62457C6.90878 7.76448 6.95409 7.92664 6.97478 8.11108C6.98982 8.24525 6.87835 8.3551 6.74333 8.3551H6.69941C6.56439 8.3551 6.45833 8.24468 6.43447 8.1118C6.4076 7.96212 6.35426 7.83218 6.27446 7.72198C6.15414 7.55582 5.97939 7.47274 5.7502 7.47274C5.59168 7.47274 5.4599 7.50139 5.35486 7.55868C5.25173 7.61407 5.17533 7.69237 5.12567 7.7936C5.07602 7.89291 5.05119 8.00941 5.05119 8.1431C5.05119 8.26534 5.07602 8.37229 5.12567 8.46396C5.17533 8.55564 5.25936 8.63871 5.37778 8.7132C5.4981 8.78577 5.66235 8.85739 5.87052 8.92806C6.1169 9.00636 6.32603 9.09899 6.49792 9.20595C6.6698 9.31099 6.80063 9.44086 6.89039 9.59556C6.98016 9.75026 7.02504 9.94029 7.02504 10.1657C7.02504 10.412 6.96965 10.6202 6.85888 10.7902C6.74811 10.9583 6.59245 11.0862 6.39192 11.1741C6.19329 11.2619 5.95838 11.3058 5.68718 11.3058C5.52484 11.3058 5.36441 11.2839 5.20589 11.24C5.04737 11.196 4.90413 11.1244 4.77617 11.0251C4.64821 10.9258 4.54603 10.794 4.46963 10.6298C4.42036 10.5226 4.38698 10.3995 4.36949 10.2606C4.35262 10.1266 4.46449 10.0167 4.5995 10.0167H4.6463C4.78131 10.0167 4.88638 10.1273 4.91149 10.2599C4.92284 10.3199 4.93885 10.3744 4.95952 10.4235C5.00726 10.5304 5.07029 10.6154 5.14859 10.6785C5.2269 10.7396 5.31284 10.7835 5.40642 10.8102C5.50001 10.8351 5.59359 10.8475 5.68718 10.8475C5.85715 10.8475 6.00135 10.8198 6.11976 10.7644C6.24008 10.709 6.33176 10.6307 6.39478 10.5295C6.45781 10.4283 6.48932 10.3089 6.48932 10.1714Z" fill="black"/>
</g>
<g id="Group 99732">
<circle id="Ellipse 137_2" cx="15.7695" cy="18.0312" r="3.40469" stroke="black" stroke-width="0.8"/>
<path id="$_2" d="M15.9737 16.053C15.9737 16.1725 15.8768 16.2693 15.7574 16.2693C15.6379 16.2693 15.5411 16.1725 15.5411 16.053V15.6147C15.5411 15.4953 15.6379 15.3984 15.7574 15.3984C15.8768 15.3984 15.9737 15.4953 15.9737 15.6147V16.053ZM15.9192 20.6281C15.9192 20.746 15.8237 20.8416 15.7058 20.8416C15.5879 20.8416 15.4924 20.746 15.4924 20.6281V20.293C15.4924 20.1751 15.5879 20.0795 15.7058 20.0795C15.8237 20.0795 15.9192 20.1751 15.9192 20.293V20.6281ZM16.4893 19.1714C16.4893 19.0568 16.4635 18.9537 16.412 18.862C16.3604 18.7703 16.2754 18.6863 16.157 18.6099C16.0405 18.5316 15.8829 18.46 15.6843 18.395C15.4437 18.3205 15.2355 18.2298 15.0598 18.1229C14.886 18.0159 14.7513 17.8841 14.6558 17.7275C14.5623 17.569 14.5155 17.3771 14.5155 17.1517C14.5155 16.9168 14.5661 16.7143 14.6673 16.5444C14.7685 16.3744 14.9118 16.2436 15.097 16.1519C15.2823 16.0602 15.5 16.0144 15.7502 16.0144C16.0099 16.0144 16.2315 16.0659 16.4148 16.1691C16.6001 16.2722 16.7414 16.424 16.8388 16.6246C16.9088 16.7645 16.9541 16.9266 16.9748 17.1111C16.9898 17.2453 16.8783 17.3551 16.7433 17.3551H16.6994C16.5644 17.3551 16.4583 17.2447 16.4345 17.1118C16.4076 16.9621 16.3543 16.8322 16.2745 16.722C16.1541 16.5558 15.9794 16.4727 15.7502 16.4727C15.5917 16.4727 15.4599 16.5014 15.3549 16.5587C15.2517 16.6141 15.1753 16.6924 15.1257 16.7936C15.076 16.8929 15.0512 17.0094 15.0512 17.1431C15.0512 17.2653 15.076 17.3723 15.1257 17.464C15.1753 17.5556 15.2594 17.6387 15.3778 17.7132C15.4981 17.7858 15.6623 17.8574 15.8705 17.9281C16.1169 18.0064 16.326 18.099 16.4979 18.2059C16.6698 18.311 16.8006 18.4409 16.8904 18.5956C16.9802 18.7503 17.025 18.9403 17.025 19.1657C17.025 19.412 16.9697 19.6202 16.8589 19.7902C16.7481 19.9583 16.5925 20.0862 16.3919 20.1741C16.1933 20.2619 15.9584 20.3058 15.6872 20.3058C15.5248 20.3058 15.3644 20.2839 15.2059 20.24C15.0474 20.196 14.9041 20.1244 14.7762 20.0251C14.6482 19.9258 14.546 19.794 14.4696 19.6298C14.4204 19.5226 14.387 19.3995 14.3695 19.2606C14.3526 19.1266 14.4645 19.0167 14.5995 19.0167H14.6463C14.7813 19.0167 14.8864 19.1273 14.9115 19.2599C14.9228 19.3199 14.9388 19.3744 14.9595 19.4235C15.0073 19.5304 15.0703 19.6154 15.1486 19.6785C15.2269 19.7396 15.3128 19.7835 15.4064 19.8102C15.5 19.8351 15.5936 19.8475 15.6872 19.8475C15.8572 19.8475 16.0013 19.8198 16.1198 19.7644C16.2401 19.709 16.3318 19.6307 16.3948 19.5295C16.4578 19.4283 16.4893 19.3089 16.4893 19.1714Z" fill="black"/>
</g>
<g id="arrow right">
<path id="Vector" fill-rule="evenodd" clip-rule="evenodd" d="M11.8442 5.65491C11.8442 5.37088 12.0745 5.14062 12.3585 5.14063L18.9581 5.14063C19.2422 5.14063 19.4724 5.37088 19.4724 5.65491L19.4724 12.2546C19.4724 12.5386 19.2422 12.7689 18.9582 12.7689C18.6741 12.7689 18.4439 12.5386 18.4439 12.2546L18.4439 6.89643L5.40734 19.9317C5.20649 20.1325 4.88086 20.1325 4.68003 19.9317C4.4792 19.7308 4.47922 19.4052 4.68007 19.2044L17.7165 6.1692L12.3585 6.1692C12.0745 6.1692 11.8442 5.93894 11.8442 5.65491Z" fill="black"/>
</g>
</g>
</svg>
