<svg width="24" height="25" viewBox="0 0 24 25" fill="none" xmlns="http://www.w3.org/2000/svg">
<path d="M19.5789 21.7472V12.6563H20.0526C20.1373 12.6565 20.2204 12.6349 20.2934 12.5937C20.3664 12.5526 20.4266 12.4935 20.4677 12.4225C20.5088 12.3515 20.5293 12.2712 20.5271 12.19C20.5249 12.1089 20.5001 12.0297 20.4553 11.9608L18.0868 8.32447C18.0444 8.2587 17.9851 8.20442 17.9146 8.16677C17.8442 8.12913 17.7649 8.10938 17.6842 8.10938C17.6036 8.10938 17.5243 8.12913 17.4538 8.16677C17.3833 8.20442 17.3241 8.2587 17.2816 8.32447L14.9132 11.9608C14.8683 12.0297 14.8435 12.1089 14.8413 12.19C14.8391 12.2712 14.8597 12.3515 14.9008 12.4225C14.9419 12.4935 15.002 12.5526 15.075 12.5937C15.148 12.6349 15.2312 12.6565 15.3158 12.6563H15.7895V21.7472H13.8947V12.6563C13.8947 12.5357 13.8448 12.4201 13.756 12.3349C13.6672 12.2496 13.5467 12.2017 13.4211 12.2017H10.5789C10.4533 12.2017 10.3328 12.2496 10.244 12.3349C10.1552 12.4201 10.1053 12.5357 10.1053 12.6563V21.7472H8.21053V16.7472C8.21053 16.6266 8.16062 16.511 8.07179 16.4258C7.98295 16.3405 7.86247 16.2927 7.73684 16.2927H4.89474C4.76911 16.2927 4.64862 16.3405 4.55979 16.4258C4.47096 16.511 4.42105 16.6266 4.42105 16.7472V21.7472H3V22.6563H21V21.7472H19.5789ZM5.36842 21.7472V17.2017H7.26316V21.7472H5.36842ZM11.0526 21.7472V13.1108H12.9474V21.7472H11.0526ZM16.7368 21.7472V12.2017C16.7368 12.0812 16.6869 11.9656 16.5981 11.8803C16.5093 11.7951 16.3888 11.7472 16.2632 11.7472H16.1684L17.6842 9.42447L19.2 11.7472H19.1053C18.9796 11.7472 18.8591 11.7951 18.7703 11.8803C18.6815 11.9656 18.6316 12.0812 18.6316 12.2017V21.7472H16.7368Z" fill="black"/>
<path fill-rule="evenodd" clip-rule="evenodd" d="M6 13.6562C8.20914 13.6562 10 11.8654 10 9.65625C10 7.44711 8.20914 5.65625 6 5.65625C3.79086 5.65625 2 7.44711 2 9.65625C2 11.8654 3.79086 13.6562 6 13.6562ZM5.85818 7.50968V7.11767C5.85818 7.00378 5.95051 6.91146 6.0644 6.91146C6.17829 6.91146 6.27061 7.00378 6.27061 7.11767V7.51196C6.42866 7.53261 6.56887 7.57735 6.69123 7.64618C6.86786 7.74451 7.0026 7.88927 7.09547 8.08046C7.16216 8.21384 7.20536 8.36845 7.22508 8.54429C7.23942 8.67221 7.13315 8.77694 7.00442 8.77694H6.96254C6.83382 8.77694 6.7327 8.67167 6.70995 8.54498C6.68433 8.40227 6.63348 8.27839 6.5574 8.17332C6.44268 8.01491 6.27607 7.9357 6.05757 7.9357C5.90644 7.9357 5.7808 7.96301 5.68065 8.01764C5.58232 8.07044 5.50949 8.1451 5.46214 8.24161C5.4148 8.33629 5.39113 8.44737 5.39113 8.57483C5.39113 8.69136 5.4148 8.79333 5.46214 8.88073C5.50949 8.96813 5.5896 9.04734 5.7025 9.11836C5.81721 9.18755 5.97381 9.25583 6.17228 9.3232C6.40718 9.39786 6.60656 9.48617 6.77044 9.58814C6.93432 9.68829 7.05905 9.81211 7.14463 9.9596C7.23021 10.1071 7.273 10.2883 7.273 10.5031C7.273 10.738 7.2202 10.9365 7.11459 11.0986C7.00898 11.2588 6.86057 11.3808 6.66938 11.4646C6.53626 11.5234 6.38604 11.5616 6.21872 11.5791V11.8975C6.21872 12.0098 6.12761 12.1009 6.01523 12.1009C5.90285 12.1009 5.81175 12.0098 5.81175 11.8975V11.58C5.72006 11.57 5.62901 11.5524 5.53862 11.5274C5.38749 11.4855 5.25092 11.4172 5.12892 11.3225C5.00693 11.2278 4.90951 11.1022 4.83667 10.9456C4.7897 10.8434 4.75787 10.7261 4.74119 10.5936C4.72511 10.4659 4.83177 10.3611 4.96049 10.3611H5.0051C5.13383 10.3611 5.234 10.4665 5.25794 10.593C5.26876 10.6502 5.28402 10.7022 5.30373 10.7489C5.34925 10.8509 5.40934 10.9319 5.48399 10.992C5.55865 11.0503 5.64059 11.0922 5.72981 11.1177C5.81904 11.1413 5.90826 11.1532 5.99748 11.1532C6.15954 11.1532 6.29701 11.1268 6.40991 11.074C6.52462 11.0212 6.61203 10.9465 6.67211 10.85C6.7322 10.7535 6.76225 10.6397 6.76225 10.5086C6.76225 10.3993 6.73767 10.301 6.6885 10.2136C6.63934 10.1262 6.55831 10.0461 6.44542 9.97326C6.33434 9.8986 6.18412 9.83032 5.99475 9.76841C5.76532 9.69739 5.56684 9.6109 5.39932 9.50893C5.23362 9.40697 5.10525 9.28132 5.01421 9.13201C4.92499 8.98088 4.88037 8.79788 4.88037 8.58302C4.88037 8.35905 4.92863 8.16604 5.02513 8.00398C5.12164 7.84192 5.25821 7.71719 5.43483 7.62979C5.56032 7.56769 5.70144 7.52766 5.85818 7.50968Z" fill="black"/>
</svg>
