<svg width="30" height="30" viewBox="0 0 30 30" fill="none" xmlns="http://www.w3.org/2000/svg">
<path d="M10.0151 21.5245C9.92363 21.4228 9.87629 21.2889 9.88354 21.1522C9.89078 21.0156 9.95201 20.8874 10.0538 20.7959C10.1555 20.7044 10.2894 20.6571 10.4261 20.6643C10.5627 20.6715 10.6909 20.7328 10.7824 20.8345C11.3137 21.427 11.9638 21.9009 12.6905 22.2254C13.4171 22.5498 14.204 22.7175 14.9998 22.7175C15.7956 22.7175 16.5824 22.5498 17.3091 22.2254C18.0358 21.9009 18.6859 21.427 19.2172 20.8345C19.2625 20.7841 19.3173 20.7432 19.3784 20.714C19.4395 20.6848 19.5058 20.6679 19.5735 20.6643C19.6411 20.6607 19.7088 20.6705 19.7727 20.6931C19.8366 20.7156 19.8954 20.7506 19.9458 20.7959C19.9962 20.8412 20.0371 20.896 20.0663 20.9571C20.0956 21.0183 20.1124 21.0846 20.116 21.1522C20.1196 21.2199 20.1098 21.2876 20.0872 21.3515C20.0647 21.4153 20.0297 21.4742 19.9844 21.5245C19.3566 22.2249 18.5882 22.7851 17.7293 23.1687C16.8704 23.5522 15.9404 23.7504 14.9998 23.7504C14.0592 23.7504 13.1291 23.5522 12.2703 23.1687C11.4114 22.7851 10.643 22.2249 10.0151 21.5245Z" fill="#005089"/>
<path d="M11.6528 7.14735C11.535 7.21528 11.4489 7.32704 11.4132 7.45824C11.3775 7.58944 11.3951 7.72943 11.4623 7.84767C11.4959 7.90668 11.5409 7.95844 11.5946 7.99999C11.6484 8.04154 11.7098 8.07205 11.7754 8.08976C11.8409 8.10747 11.9094 8.11203 11.9767 8.10318C12.044 8.09433 12.109 8.07225 12.1677 8.0382C13.0286 7.54118 14.0051 7.27946 14.9991 7.27932C15.9931 7.27918 16.9697 7.54062 17.8307 8.03739C18.6917 8.53416 19.4068 9.24876 19.9042 10.1094C20.4016 10.97 20.6637 11.9464 20.6643 12.9405V16.0301C20.6643 16.1667 20.7185 16.2977 20.8151 16.3942C20.9117 16.4908 21.0427 16.5451 21.1792 16.5451C21.3158 16.5451 21.4468 16.4908 21.5434 16.3942C21.6399 16.2977 21.6942 16.1667 21.6942 16.0301V12.9405C21.6934 11.7657 21.3836 10.6119 20.7957 9.59483C20.2079 8.57777 19.3627 7.73331 18.3452 7.14628C17.3277 6.55924 16.1736 6.2503 14.9989 6.25049C13.8241 6.25068 12.6701 6.55999 11.6528 7.14735ZM9.33556 17.06V12.9405C9.33588 11.754 9.70873 10.5977 10.4015 9.63452C10.4671 9.52366 10.4889 9.3922 10.4623 9.26611C10.4358 9.14002 10.363 9.02845 10.2582 8.95344C10.1535 8.87842 10.0244 8.84541 9.89646 8.86091C9.76854 8.87642 9.65109 8.93932 9.56728 9.03719C8.74517 10.1724 8.30353 11.5388 8.30567 12.9405V17.06C8.30661 18.7079 8.91533 20.2975 10.0153 21.5245C10.1068 21.6263 10.235 21.6875 10.3716 21.6948C10.5083 21.702 10.6422 21.6547 10.7439 21.5632C10.8457 21.4717 10.9069 21.3435 10.9141 21.2068C10.9214 21.0702 10.874 20.9363 10.7825 20.8345C9.8524 19.7971 9.33724 18.4533 9.33556 17.06ZM21.1123 18.0899C21.0467 18.0729 20.9784 18.0689 20.9113 18.0784C20.8442 18.0878 20.7796 18.1104 20.7212 18.1448C20.6628 18.1793 20.6119 18.2249 20.5712 18.2791C20.5305 18.3333 20.5009 18.395 20.4841 18.4606C20.2563 19.3367 19.8219 20.1454 19.2173 20.8191C19.1258 20.9208 19.0785 21.0547 19.0857 21.1914C19.093 21.328 19.1542 21.4562 19.2559 21.5477C19.3577 21.6392 19.4916 21.6866 19.6282 21.6793C19.7649 21.6721 19.8931 21.6108 19.9846 21.5091C20.6992 20.7114 21.2129 19.7545 21.4831 18.7181C21.5001 18.6525 21.504 18.5842 21.4946 18.5171C21.4851 18.45 21.4625 18.3854 21.4281 18.327C21.3937 18.2687 21.348 18.2177 21.2938 18.177C21.2396 18.1363 21.1779 18.1067 21.1123 18.0899Z" fill="#005089"/>
<path d="M19.2948 11.1999C19.2691 11.1374 19.2314 11.0805 19.1837 11.0325C19.136 10.9846 19.0794 10.9465 19.0169 10.9204C18.9545 10.8943 18.8876 10.8808 18.82 10.8806C18.7524 10.8804 18.6854 10.8936 18.6228 10.9193C18.5603 10.945 18.5034 10.9827 18.4554 11.0304C18.4075 11.0781 18.3694 11.1347 18.3433 11.1971C18.3173 11.2595 18.3038 11.3265 18.3036 11.3941C18.3034 11.4617 18.3165 11.5287 18.3422 11.5913C18.7078 12.4873 18.6048 12.8941 18.6048 17.06C18.6048 18.0159 18.225 18.9328 17.549 19.6088C16.873 20.2848 15.9562 20.6645 15.0002 20.6645C14.0442 20.6645 13.1274 20.2848 12.4514 19.6088C11.7754 18.9328 11.3956 18.0159 11.3956 17.06V12.9404C11.3958 12.3078 11.5625 11.6863 11.879 11.1385C12.1954 10.5907 12.6505 10.1358 13.1984 9.81958C13.7463 9.50334 14.3678 9.33688 15.0005 9.33693C15.6331 9.33698 16.2546 9.50354 16.8025 9.81986C16.8611 9.85712 16.9267 9.88213 16.9952 9.89341C17.0637 9.90468 17.1338 9.90197 17.2013 9.88545C17.2687 9.86893 17.3321 9.83893 17.3877 9.79726C17.4433 9.75559 17.4898 9.70312 17.5246 9.64299C17.5593 9.58286 17.5816 9.51633 17.5899 9.44738C17.5983 9.37844 17.5927 9.30852 17.5733 9.24182C17.554 9.17512 17.5213 9.11302 17.4773 9.05926C17.4334 9.00551 17.379 8.9612 17.3174 8.92901C16.6131 8.52234 15.8141 8.3082 15.0007 8.30811C14.1874 8.30801 13.3884 8.52196 12.6839 8.92846C11.9794 9.33497 11.3944 9.91971 10.9874 10.6239C10.5805 11.3282 10.3661 12.1271 10.3657 12.9404V17.06C10.3657 18.2891 10.854 19.4679 11.7231 20.337C12.5923 21.2062 13.7711 21.6944 15.0002 21.6944C16.2293 21.6944 17.4081 21.2062 18.2773 20.337C19.1464 19.4679 19.6347 18.2891 19.6347 17.06C19.6347 12.7602 19.7428 12.307 19.2948 11.1999Z" fill="#005089"/>
<path d="M14.4851 12.9407V17.5752C14.4851 17.7118 14.4308 17.8428 14.3342 17.9393C14.2377 18.0359 14.1067 18.0901 13.9701 18.0901C13.8335 18.0901 13.7026 18.0359 13.606 17.9393C13.5094 17.8428 13.4552 17.7118 13.4552 17.5752V17.0603C13.4552 16.9237 13.4009 16.7927 13.3044 16.6961C13.2078 16.5996 13.0768 16.5453 12.9402 16.5453C12.8037 16.5453 12.6727 16.5996 12.5761 16.6961C12.4795 16.7927 12.4253 16.9237 12.4253 17.0603V17.5752C12.4253 17.9849 12.5881 18.3779 12.8778 18.6676C13.1675 18.9573 13.5604 19.12 13.9701 19.12C14.3798 19.12 14.7728 18.9573 15.0625 18.6676C15.3522 18.3779 15.5149 17.9849 15.5149 17.5752V12.9407C15.5149 12.8042 15.4607 12.6732 15.3641 12.5766C15.2676 12.48 15.1366 12.4258 15 12.4258C14.8634 12.4258 14.7325 12.48 14.6359 12.5766C14.5393 12.6732 14.4851 12.8042 14.4851 12.9407Z" fill="#005089"/>
<path d="M17.0598 18.0899C17.1963 18.0899 17.3273 18.0356 17.4239 17.939C17.5205 17.8425 17.5747 17.7115 17.5747 17.5749V12.9404C17.5747 12.2576 17.3035 11.6027 16.8206 11.1198C16.3377 10.637 15.6829 10.3657 15 10.3657C14.3171 10.3657 13.6623 10.637 13.1794 11.1198C12.6966 11.6027 12.4253 12.2576 12.4253 12.9404V15.0002C12.4253 15.1368 12.4795 15.2678 12.5761 15.3643C12.6727 15.4609 12.8037 15.5151 12.9402 15.5151C13.0768 15.5151 13.2078 15.4609 13.3044 15.3643C13.4009 15.2678 13.4552 15.1368 13.4552 15.0002V12.9404C13.4552 12.5307 13.6179 12.1378 13.9076 11.8481C14.1974 11.5584 14.5903 11.3956 15 11.3956C15.4097 11.3956 15.8027 11.5584 16.0924 11.8481C16.3821 12.1378 16.5448 12.5307 16.5448 12.9404V17.5749C16.5448 17.7115 16.5991 17.8425 16.6957 17.939C16.7922 18.0356 16.9232 18.0899 17.0598 18.0899Z" fill="#005089"/>
<path fill-rule="evenodd" clip-rule="evenodd" d="M6.87502 5.0005C5.83945 5.0005 5.00002 5.83994 5.00002 6.8755V9.37549C5.00002 9.72068 4.72017 10.0005 4.375 10.0005C4.02982 10.0005 3.75 9.72068 3.75 9.37549V6.8755C3.75 5.14961 5.14913 3.75049 6.87502 3.75049H9.375C9.72019 3.75049 9.99998 4.03031 9.99998 4.37549C9.99998 4.72066 9.72019 5.0005 9.375 5.0005H6.87502ZM6.87502 25.0005C5.83945 25.0005 5.00002 24.161 5.00002 23.1255V20.6255C5.00002 20.2803 4.72017 20.0005 4.375 20.0005C4.02982 20.0005 3.75 20.2803 3.75 20.6255V23.1255C3.75 24.8514 5.14913 26.2505 6.87502 26.2505H9.375C9.72019 26.2505 9.99998 25.9706 9.99998 25.6255C9.99998 25.2803 9.72019 25.0005 9.375 25.0005H6.87502ZM23.125 5.0005C24.1605 5.0005 25 5.83994 25 6.8755V9.37549C25 9.72068 25.2798 10.0005 25.625 10.0005C25.9702 10.0005 26.25 9.72068 26.25 9.37549V6.8755C26.25 5.14961 24.8509 3.75049 23.125 3.75049H20.625C20.2798 3.75049 20 4.03031 20 4.37549C20 4.72066 20.2798 5.0005 20.625 5.0005H23.125ZM23.125 25.0005C24.1605 25.0005 25 24.161 25 23.1255V20.6255C25 20.2803 25.2798 20.0005 25.625 20.0005C25.9702 20.0005 26.25 20.2803 26.25 20.6255V23.1255C26.25 24.8514 24.8509 26.2505 23.125 26.2505H20.625C20.2798 26.2505 20 25.9706 20 25.6255C20 25.2803 20.2798 25.0005 20.625 25.0005H23.125Z" fill="#005089"/>
</svg>
