<svg width="24" height="24" viewBox="0 0 24 24" fill="none" xmlns="http://www.w3.org/2000/svg">
<path fill-rule="evenodd" clip-rule="evenodd" d="M17.6815 4.35229C15.8928 4.35229 14.4429 5.80229 14.4429 7.59093C14.4429 8.55768 14.8664 9.4255 15.5381 10.0189C14.2134 10.6536 13.2139 11.8585 12.8574 13.3157C12.4413 13.0269 11.9909 12.7841 11.5136 12.5946C12.506 11.8459 13.1474 10.6568 13.1474 9.31785C13.1474 7.05222 11.3107 5.21558 9.04514 5.21558C6.77952 5.21558 4.94287 7.05223 4.94287 9.31785C4.94287 10.6568 5.58435 11.8459 6.57675 12.5947C4.1019 13.5772 2.35205 15.9932 2.35205 18.8179V19.6816C2.35205 20.0393 2.64205 20.3293 2.99978 20.3293C3.35751 20.3293 3.64751 20.0393 3.64751 19.6816V18.8179C3.64751 15.8369 6.06415 13.4202 9.04523 13.4202C12.0263 13.4202 14.443 15.8369 14.443 18.8179V19.6816C14.443 20.0393 14.733 20.3293 15.0907 20.3293C15.4484 20.3293 15.7384 20.0393 15.7384 19.6816V18.8179C15.7384 17.0931 15.086 15.5207 14.0145 14.334C14.1009 12.392 15.6963 10.8424 17.6564 10.8295C17.6648 10.8295 17.6731 10.8296 17.6815 10.8296C17.6898 10.8296 17.6981 10.8295 17.7063 10.8295C19.7219 10.843 21.3517 12.4811 21.3517 14.4998V14.9317C21.3517 15.2894 21.6417 15.5794 21.9994 15.5794C22.3572 15.5794 22.6472 15.2894 22.6472 14.9317V14.4998C22.6472 12.5249 21.4942 10.8192 19.8247 10.0191C20.4965 9.42566 20.9201 8.55777 20.9201 7.59093C20.9201 5.80229 19.4702 4.35229 17.6815 4.35229ZM17.7039 9.53399C18.7668 9.52197 19.6247 8.65664 19.6247 7.59093C19.6247 6.51774 18.7547 5.64775 17.6815 5.64775C16.6083 5.64775 15.7383 6.51774 15.7383 7.59093C15.7383 8.65659 16.5961 9.52189 17.6589 9.53398C17.6664 9.53395 17.6738 9.53394 17.6812 9.53394C17.6888 9.53394 17.6964 9.53395 17.7039 9.53399ZM9.04514 6.51103C7.49498 6.51103 6.23833 7.76769 6.23833 9.31785C6.23833 10.868 7.49498 12.1247 9.04514 12.1247C10.5953 12.1247 11.852 10.868 11.852 9.31785C11.852 7.76769 10.5953 6.51103 9.04514 6.51103Z" fill="#005089"/>
</svg>
