<svg width="25" height="25" viewBox="0 0 25 25" fill="none" xmlns="http://www.w3.org/2000/svg">
<path d="M4.18955 9.54027L4.17688 9.55079L4.17691 9.56726C4.17733 9.77219 4.17731 9.92458 4.17727 10.1009C4.17724 10.2737 4.17721 10.4694 4.17758 10.7602L4.17758 18.2318C4.17758 19.5799 5.2704 20.6727 6.61845 20.6727H9.50549C9.79056 20.6727 10.0217 20.4416 10.0217 20.1565V14.3824C10.0217 14.136 10.2214 13.9362 10.4678 13.9362H13.3549C13.6013 13.9362 13.801 14.136 13.801 14.3824V20.1565C13.801 20.4416 14.0321 20.6727 14.3172 20.6727H17.2043C18.5523 20.6727 19.6451 19.5799 19.6451 18.2318V10.7601V10.7575V10.7548V10.7522V10.7495V10.7469V10.7443V10.7417V10.739V10.7364V10.7338V10.7312V10.7286V10.726V10.7234V10.7208V10.7182V10.7157V10.7131V10.7105V10.708V10.7054V10.7028V10.7003V10.6977V10.6952V10.6926V10.6901V10.6876V10.685V10.6825V10.68V10.6775V10.6749V10.6724V10.6699V10.6674V10.6649V10.6624V10.6599V10.6575V10.655V10.6525V10.65V10.6475V10.6451V10.6426V10.6401V10.6377V10.6352V10.6328V10.6303V10.6279V10.6254V10.623V10.6206V10.6181V10.6157V10.6133V10.6109V10.6085V10.6061V10.6036V10.6012V10.5988V10.5964V10.594V10.5917V10.5893V10.5869V10.5845V10.5821V10.5797V10.5774V10.575V10.5726V10.5703V10.5679V10.5656V10.5632V10.5609V10.5585V10.5562V10.5538V10.5515V10.5491V10.5468V10.5445V10.5422V10.5398V10.5375V10.5352V10.5329V10.5306V10.5283V10.526V10.5236V10.5213V10.5191V10.5168V10.5145V10.5122V10.5099V10.5076V10.5053V10.503V10.5008V10.4985V10.4962V10.4939V10.4917V10.4894V10.4872V10.4849V10.4826V10.4804V10.4781V10.4759V10.4736V10.4714V10.4692V10.4669V10.4647V10.4624V10.4602V10.458V10.4558V10.4535V10.4513V10.4491V10.4469V10.4446V10.4424V10.4402V10.438V10.4358V10.4336V10.4314V10.4292V10.427V10.4248V10.4226V10.4204V10.4182V10.416V10.4138V10.4116V10.4094V10.4073V10.4051V10.4029V10.4007V10.3986V10.3964V10.3942V10.392V10.3899V10.3877V10.3855V10.3834V10.3812V10.379V10.3769V10.3747V10.3726V10.3704V10.3683V10.3661V10.364V10.3618V10.3597V10.3575V10.3554V10.3532V10.3511V10.349V10.3468V10.3447V10.3425V10.3404V10.3383V10.3361V10.334V10.3319V10.3298V10.3276V10.3255V10.3234V10.3213V10.3191V10.317V10.3149V10.3128V10.3107V10.3085V10.3064V10.3043V10.3022V10.3001V10.298V10.2959V10.2937V10.2916V10.2895V10.2874V10.2853V10.2832V10.2811V10.279V10.2769V10.2748V10.2727V10.2706V10.2685V10.2664V10.2643V10.2622V10.2601V10.258V10.2559V10.2538V10.2517V10.2496V10.2475V10.2454V10.2433V10.2412V10.2391V10.237V10.2349V10.2328V10.2308V10.2287V10.2266V10.2245V10.2224V10.2203V10.2182V10.2161V10.214V10.2119V10.2098V10.2078V10.2057V10.2036V10.2015V10.1994V10.1973V10.1952V10.1931V10.1911V10.189V10.1869V10.1848V10.1827V10.1806V10.1785V10.1764V10.1743V10.1723V10.1702V10.1681V10.166V10.1639V10.1618V10.1597V10.1576V10.1555V10.1534V10.1513V10.1493V10.1472V10.1451V10.143V10.1409V10.1388V10.1367V10.1346V10.1325V10.1304V10.1283V10.1262V10.1241V10.122V10.1199V10.1178V10.1157V10.1136V10.1115V10.1094V10.1073V10.1052V10.1031V10.101V10.0989V10.0968V10.0947V10.0926V10.0905V10.0884V10.0862V10.0841V10.082V10.0799V10.0778V10.0757V10.0736V10.0714V10.0693V10.0672V10.0651V10.063V10.0608V10.0587V10.0566V10.0545V10.0523V10.0502V10.0481V10.046V10.0438V10.0417V10.0396V10.0374V10.0353V10.0331V10.031V10.0289V10.0267V10.0246V10.0224V10.0203V10.0181V10.016V10.0138V10.0117V10.0095V10.0074V10.0052V10.0031V10.0009V9.99873V9.99657V9.9944V9.99223V9.99007V9.98789V9.98572V9.98355V9.98137V9.97919V9.97701V9.97483V9.97265V9.97046V9.96828V9.96609V9.9639V9.96171V9.95951V9.95731V9.95512V9.95291V9.95071V9.94851V9.9463V9.94409V9.94188V9.93967V9.93745V9.93524V9.93302V9.93079V9.92857V9.92634V9.92412V9.92189V9.91965V9.91742V9.91518V9.91294V9.9107V9.90845V9.90621V9.90396V9.90171V9.89945V9.8972V9.89494V9.89268V9.89041V9.88815V9.88588V9.88361V9.88133V9.87905V9.87677V9.87449V9.87221V9.86992V9.86763V9.86534V9.86304V9.86074V9.85844V9.85614V9.85383V9.85152V9.84921V9.8469V9.84458V9.84226V9.83994V9.83761V9.83528V9.83295V9.83061V9.82827V9.82593V9.82359V9.82124V9.81889V9.81653V9.81418V9.81182V9.80946V9.80709V9.80472V9.80235V9.79997V9.79759V9.79521V9.79283V9.79044V9.78804V9.78565V9.78325V9.78085V9.77844V9.77603V9.77362V9.77121V9.76879V9.76636V9.76394V9.76151V9.75908V9.75664V9.7542V9.75176V9.74931V9.74686V9.7444V9.74194V9.73948V9.73702V9.73455V9.73208V9.7296V9.72712V9.72463V9.72215V9.71966V9.71716V9.71466V9.71216V9.70965V9.70714V9.70462V9.7021V9.69958V9.69706V9.69452V9.69199V9.68945V9.68691V9.68436V9.68181V9.67926V9.6767V9.67413V9.67157V9.66899V9.66642V9.66384V9.66125V9.65867V9.65607V9.65348V9.65087V9.64827V9.64566V9.64304V9.64043V9.6378V9.63518V9.63254V9.62991V9.62727V9.62462V9.62197V9.61932V9.61666V9.614V9.61133V9.60866V9.60598V9.6033V9.60061V9.59792V9.59523V9.59253V9.58982V9.57343L19.6325 9.56294L12.2397 3.39829L12.2395 3.39815C12.0489 3.24119 11.7738 3.24119 11.5832 3.39815L11.5831 3.39825L4.18955 9.54027ZM17.2043 19.6403H14.8334V14.3824C14.8334 13.5659 14.1714 12.9039 13.3549 12.9039H10.4678C9.65127 12.9039 8.98932 13.5659 8.98932 14.3824V19.6403H6.61845C5.84055 19.6403 5.20993 19.0097 5.20993 18.2318V10.0519C5.20993 10.03 5.20857 10.0085 5.20594 9.98739L11.9114 4.46528L18.6168 9.98739C18.6141 10.0085 18.6128 10.03 18.6128 10.0519V18.2318C18.6128 19.0097 17.9822 19.6403 17.2043 19.6403Z" fill="#005089" stroke="black" stroke-width="0.07"/>
</svg>
