<svg width="12" height="13" viewBox="0 0 12 13" fill="none" xmlns="http://www.w3.org/2000/svg">
<path d="M6.11914 5.48242V7.8225H9.37107C9.22827 8.57506 8.79975 9.21229 8.15707 9.64075L10.1181 11.1624C11.2607 10.1077 11.9199 8.55863 11.9199 6.71844C11.9199 6.28998 11.8814 5.87796 11.81 5.48249L6.11914 5.48242Z" fill="#EAEAEA"/>
<path d="M2.35115 8.1474L2.35146 8.14716L2.68869 7.88902C3.21249 9.29132 4.55022 10.3209 6.12065 10.3209C6.92251 10.3209 7.60784 10.1115 8.15395 9.76062L9.96934 11.1692C8.9969 12.0274 7.68415 12.5282 6.12065 12.5282C3.82508 12.5282 1.84023 11.2204 0.848924 9.31752L2.35115 8.1474Z" fill="#EAEAEA" stroke="#005089" stroke-width="0.193095"/>
<path d="M0.98129 8.97338C0.891115 9.04323 0.815405 9.10176 0.760995 9.14363C0.387421 8.36972 0.174672 7.50364 0.174672 6.58308C0.174672 5.66298 0.387206 4.79732 0.760431 4.02371L2.62405 5.46965C2.51314 5.82173 2.44797 6.19448 2.44797 6.58302C2.44797 6.9716 2.51315 7.34438 2.62408 7.6965L2.5911 7.72218L2.36335 7.89944L1.67228 8.43696C1.42097 8.6323 1.16971 8.82743 0.98129 8.97338Z" fill="#EAEAEA" stroke="#005089" stroke-width="0.193095"/>
<path d="M6.12078 2.94506C7.01068 2.94506 7.80168 3.25266 8.43339 3.84593L10.1637 2.11561C9.11452 1.13785 7.75226 0.539062 6.12078 0.539062C3.75875 0.539062 1.72082 1.89587 0.726562 3.8734L2.73702 5.43346C3.2149 4.00522 4.54975 2.94506 6.12078 2.94506Z" fill="#EAEAEA"/>
</svg>
