<svg width="18" height="15" viewBox="0 0 18 15" fill="none" xmlns="http://www.w3.org/2000/svg">
<path fill-rule="evenodd" clip-rule="evenodd" d="M15.6342 5.33769C15.3975 5.10098 15.0137 5.10098 14.777 5.33769C14.5403 5.57439 14.5403 5.95817 14.777 6.19488L15.5624 6.9803H13.3854C13.0507 6.9803 12.7793 7.25167 12.7793 7.58642C12.7793 7.92118 13.0507 8.19255 13.3854 8.19255H15.5589L14.777 8.97444C14.5403 9.21114 14.5403 9.59492 14.777 9.83163C15.0137 10.0683 15.3975 10.0683 15.6342 9.83163L17.45 8.01578C17.4505 8.01527 17.451 8.01476 17.4515 8.01425L17.4525 8.01325C17.6892 7.77655 17.6892 7.39277 17.4525 7.15606L15.6342 5.33769Z" fill="#EAEAEA"/>
<g clip-path="url(#clip0_6322_18233)">
<path d="M10.4277 1.55469H4.68555C4.05128 1.55469 3.53711 2.09462 3.53711 2.76066V12.4085C3.53711 13.0745 4.05128 13.6145 4.68555 13.6145H10.4277C11.062 13.6145 11.5762 13.0745 11.5762 12.4085V2.76066C11.5762 2.09462 11.062 1.55469 10.4277 1.55469Z" stroke="#EAEAEA" stroke-width="1.3" stroke-linecap="round" stroke-linejoin="round"/>
<rect x="6.21484" y="11.5547" width="2.68471" height="0.949298" rx="0.474649" fill="#EAEAEA"/>
</g>
<defs>
<clipPath id="clip0_6322_18233">
<rect width="14.4717" height="14.4717" fill="white" transform="translate(0.523438 0.347656)"/>
</clipPath>
</defs>
</svg>
