<svg width="33" height="33" viewBox="0 0 33 33" fill="none" xmlns="http://www.w3.org/2000/svg">
<path fill-rule="evenodd" clip-rule="evenodd" d="M1.96875 16.5C1.96875 24.4951 8.44982 30.9762 16.4455 30.9762C24.4401 30.9762 30.9211 24.4951 30.9211 16.5C30.9211 8.50488 24.4401 2.0238 16.4455 2.0238C8.44982 2.0238 1.96875 8.50488 1.96875 16.5Z" fill="#D64B4F"/>
<path d="M21.982 10.1817C21.6845 9.88411 21.2021 9.88411 20.9045 10.1817L16.325 14.7612L11.7457 10.1819C11.4481 9.88433 10.9657 9.88433 10.6682 10.1819L10.1294 10.7206C9.83186 11.0182 9.83186 11.5006 10.1294 11.7981L14.7087 16.3775L10.1296 20.9566C9.83204 21.2542 9.83204 21.7366 10.1296 22.0341L10.6683 22.5729C10.9659 22.8704 11.4483 22.8704 11.7458 22.5729L16.325 17.9937L20.9044 22.5731C21.2019 22.8706 21.6843 22.8706 21.9819 22.5731L22.5206 22.0343C22.8182 21.7368 22.8182 21.2544 22.5206 20.9568L17.9412 16.3775L22.5208 11.7979C22.8183 11.5004 22.8183 11.0179 22.5208 10.7204L21.982 10.1817Z" fill="white"/>
</svg>
