<svg width="18" height="18" viewBox="0 0 18 18" fill="none" xmlns="http://www.w3.org/2000/svg">
<path fill-rule="evenodd" clip-rule="evenodd" d="M0.610798 0.61092C0.825587 0.396132 1.17383 0.396132 1.38862 0.61092L17.3886 16.6109C17.6034 16.8257 17.6034 17.1739 17.3886 17.3887C17.1738 17.6035 16.8256 17.6035 16.6108 17.3887L13.1502 13.9281C11.9908 14.6387 10.5994 15.1502 8.99971 15.1502C6.24266 15.1502 4.10929 13.6343 2.69662 12.184C1.986 11.4544 1.4428 10.7267 1.07708 10.1817C0.893893 9.90866 0.754349 9.68015 0.659795 9.51836C0.612498 9.43743 0.576395 9.37308 0.551657 9.32809C0.539287 9.30558 0.529753 9.28791 0.523077 9.27541L0.515206 9.26058L0.512882 9.25616L0.512123 9.2547C0.512012 9.25449 0.511634 9.25376 0.999707 9.00022C0.511634 8.74668 0.511699 8.74655 0.511769 8.74642L0.51236 8.74528L0.51358 8.74295L0.517496 8.73552L0.53122 8.70986C0.542982 8.68806 0.559966 8.657 0.58212 8.61755C0.626418 8.53865 0.691448 8.42605 0.776791 8.28661C0.947344 8.00794 1.19978 7.62082 1.53082 7.18053C2.09664 6.42799 2.90161 5.50741 3.93091 4.70885L0.610798 1.38874C0.39601 1.17395 0.39601 0.825709 0.610798 0.61092ZM10.6596 11.4376L12.3472 13.1252C11.3743 13.6796 10.2554 14.0502 8.99971 14.0502C6.66584 14.0502 4.79921 12.7661 3.48461 11.4165C2.83159 10.746 2.32934 10.0737 1.99051 9.56877C1.83532 9.33748 1.71515 9.14241 1.63118 9.00022C1.65597 8.95824 1.68393 8.91164 1.71502 8.86083C1.87039 8.60697 2.10331 8.24952 2.41002 7.84159C2.95967 7.11056 3.73598 6.23126 4.71561 5.49355L6.56066 7.3386C6.23822 7.81145 6.04932 8.38343 6.04932 8.99894C6.04932 10.6282 7.37004 11.9489 8.99932 11.9489C9.61471 11.9489 10.1867 11.76 10.6596 11.4376ZM9.85944 10.6374L7.36086 8.1388C7.22564 8.39573 7.14932 8.68821 7.14932 8.99894C7.14932 10.0207 7.97755 10.8489 8.99932 10.8489C9.31014 10.8489 9.60254 10.7726 9.85944 10.6374Z" fill="#005795"/>
<path d="M0.999707 9.00022L0.511634 9.25376C0.429065 9.09482 0.4292 8.90536 0.511769 8.74642L0.999707 9.00022Z" fill="#005795"/>
<path d="M8.99971 3.95022C8.74843 3.95022 8.50306 3.96504 8.26365 3.99307C7.96195 4.02838 7.68875 3.81244 7.65344 3.51074C7.61812 3.20904 7.83407 2.93584 8.13576 2.90053C8.41699 2.86761 8.70506 2.85022 8.99971 2.85022C11.7567 2.85022 13.8901 4.36612 15.3028 5.81646C16.0134 6.54603 16.5566 7.27373 16.9223 7.81877C17.1055 8.09178 17.2451 8.32029 17.3396 8.48208C17.3869 8.56301 17.423 8.62736 17.4478 8.67235C17.4601 8.69485 17.4697 8.71253 17.4763 8.72502L17.4842 8.73985L17.4865 8.74428L17.4873 8.74573C17.4874 8.74595 17.4878 8.74667 16.9997 9.00022C17.4878 9.25377 17.4877 9.25385 17.4877 9.25393L17.4867 9.25574L17.4849 9.25926L17.4788 9.27088L17.4567 9.3118C17.4376 9.34671 17.4099 9.39661 17.3737 9.45966C17.3012 9.58571 17.1943 9.7646 17.0541 9.98161C16.774 10.4151 16.3585 11.0037 15.8144 11.6283C15.6149 11.8573 15.2675 11.8813 15.0384 11.6817C14.8094 11.4822 14.7855 11.1348 14.985 10.9058C15.4875 10.3289 15.872 9.78415 16.1302 9.38455C16.2282 9.23302 16.3076 9.10282 16.3682 9.00022C16.2843 8.85803 16.1641 8.66296 16.0089 8.43167C15.6701 7.92671 15.1678 7.25441 14.5148 6.58398C13.2002 5.23432 11.3336 3.95022 8.99971 3.95022Z" fill="#005795"/>
<path d="M16.9997 9.00022L17.4878 8.74667C17.5703 8.90562 17.5703 9.09498 17.4877 9.25393L16.9997 9.00022Z" fill="#005795"/>
</svg>
