<svg width="25" height="24" viewBox="0 0 25 24" fill="none" xmlns="http://www.w3.org/2000/svg">
<g clip-path="url(#clip0_3276_41518)">
<path d="M19.1045 19.6459L20.4069 20.7626C20.5058 20.8474 20.6565 20.7617 20.6342 20.6334L20.3433 18.9629" stroke="black" stroke-width="0.416691"/>
<path fill-rule="evenodd" clip-rule="evenodd" d="M13.5588 9.56991C13.5588 12.9002 10.8591 15.5999 7.52889 15.5999C6.82603 15.5999 6.15239 15.4798 5.52662 15.2596C5.26495 15.1675 5.05693 15.2886 4.99993 15.3251C4.95478 15.354 4.91774 15.3854 4.88907 15.4132L3.99678 16.0639L4.10717 14.9967C4.11718 14.9492 4.12468 14.8891 4.12081 14.8212C4.11553 14.7287 4.081 14.5235 3.88673 14.3761C2.43483 13.2739 1.49895 11.5313 1.49895 9.56991C1.49895 6.23966 4.19865 3.53996 7.52889 3.53996C10.8591 3.53996 13.5588 6.23966 13.5588 9.56991ZM7.52889 16.1554C11.166 16.1554 14.1144 13.207 14.1144 9.56991C14.1144 5.93282 11.166 2.98438 7.52889 2.98438C3.8918 2.98438 0.943359 5.93282 0.943359 9.56991C0.943359 11.7124 1.96648 13.616 3.5508 14.8186C3.57131 14.8342 3.56791 14.8692 3.5605 14.8939C3.55925 14.8981 3.55836 14.9025 3.55789 14.907L3.39599 16.4722C3.36506 16.7713 3.70302 16.9657 3.94598 16.7885L5.25079 15.8371C5.25537 15.8337 5.25939 15.83 5.26285 15.826C5.28154 15.8041 5.31507 15.7742 5.34219 15.7837C6.0264 16.0245 6.76235 16.1554 7.52889 16.1554ZM22.5653 16.1635C22.0934 17.2432 21.3308 18.1682 20.3653 18.837C20.2972 18.8842 20.228 18.9301 20.1579 18.9747L20.1559 18.9761C20.1413 18.9868 20.1372 19.0071 20.147 19.0227L20.3687 19.3755C20.3789 19.3917 20.4004 19.3966 20.4166 19.3863L20.4188 19.3849C20.4945 19.3367 20.5692 19.2871 20.6427 19.2362C21.682 18.5162 22.5028 17.5204 23.0108 16.3583C23.5597 15.1024 23.7181 13.7105 23.4653 12.3634C23.2124 11.0164 22.5601 9.77661 21.5931 8.80533C20.6261 7.83404 19.3893 7.17621 18.0434 6.91739C16.7979 6.67788 15.5123 6.79033 14.3303 7.23906C14.2467 7.27082 14.1635 7.30426 14.081 7.33939L14.0785 7.34043C14.0609 7.34794 14.0527 7.3684 14.0603 7.386L14.2255 7.76855C14.2328 7.78539 14.2518 7.79353 14.2689 7.78763L14.2712 7.78674C14.3477 7.75421 14.4247 7.72323 14.5022 7.69381C15.6002 7.27681 16.7945 7.17228 17.9516 7.39478C19.2016 7.63518 20.3505 8.24618 21.2486 9.14831C22.1467 10.0505 22.7526 11.202 22.9875 12.4531C23.2223 13.7043 23.0752 14.9971 22.5653 16.1635ZM12.9956 18.7322C12.0465 18.034 11.3121 17.0864 10.8725 15.9972C10.8415 15.9204 10.8119 15.8428 10.7838 15.7646L10.7829 15.7623C10.7756 15.7458 10.7568 15.7373 10.7394 15.7434L10.3465 15.8819C10.3284 15.8883 10.3189 15.9082 10.3253 15.9262L10.3262 15.9287C10.3565 16.0132 10.3885 16.0969 10.422 16.1799C10.8953 17.3523 11.6859 18.3722 12.7075 19.1238C13.8116 19.9359 15.1344 20.397 16.5041 20.4472C17.4049 20.4801 18.2985 20.3343 19.1349 20.0232C19.2189 19.9919 19.3022 19.959 19.385 19.9245L19.3874 19.9235C19.4051 19.9161 19.4134 19.8957 19.4059 19.878L19.2432 19.4944C19.2361 19.4775 19.2171 19.4692 19.2 19.475L19.1977 19.4759C19.121 19.5079 19.0438 19.5383 18.9661 19.5673C18.189 19.8565 17.3588 19.992 16.5218 19.9614C15.2497 19.9148 14.021 19.4865 12.9956 18.7322Z" fill="#005089"/>
<path d="M8.30365 11.5567L9.72646 12.686L9.12093 13.2172L7.72413 12.099L8.30365 11.5567ZM9.73761 9.42429V9.72149C9.73761 10.1301 9.68436 10.4967 9.57787 10.8211C9.47137 11.1455 9.31906 11.4217 9.12093 11.6495C8.9228 11.8774 8.68629 12.052 8.41138 12.1733C8.13648 12.2922 7.83186 12.3516 7.49752 12.3516C7.16565 12.3516 6.86227 12.2922 6.58736 12.1733C6.31494 12.052 6.07842 11.8774 5.87781 11.6495C5.67721 11.4217 5.52118 11.1455 5.40974 10.8211C5.30077 10.4967 5.24628 10.1301 5.24628 9.72149V9.42429C5.24628 9.01565 5.30077 8.65035 5.40974 8.32839C5.51871 8.00396 5.67226 7.72782 5.87038 7.49997C6.07099 7.26964 6.30751 7.09504 6.57993 6.97617C6.85484 6.85481 7.15822 6.79414 7.49009 6.79414C7.82443 6.79414 8.12905 6.85481 8.40395 6.97617C8.68133 7.09504 8.91909 7.26964 9.11722 7.49997C9.31535 7.72782 9.46766 8.00396 9.57415 8.32839C9.68312 8.65035 9.73761 9.01565 9.73761 9.42429ZM8.80145 9.72149V9.41686C8.80145 9.11472 8.77173 8.84848 8.71229 8.61816C8.65533 8.38536 8.56989 8.19094 8.45596 8.03492C8.34452 7.87641 8.20706 7.75754 8.04361 7.67828C7.88263 7.59656 7.69812 7.55569 7.49009 7.55569C7.287 7.55569 7.10497 7.59656 6.94399 7.67828C6.78301 7.75754 6.64556 7.87641 6.53164 8.03492C6.41772 8.19094 6.33103 8.38536 6.2716 8.61816C6.21216 8.84848 6.18244 9.11472 6.18244 9.41686V9.72149C6.18244 10.0236 6.21216 10.2911 6.2716 10.5239C6.33103 10.7567 6.41772 10.9536 6.53164 11.1146C6.64804 11.2731 6.78673 11.3932 6.94771 11.4749C7.11117 11.5542 7.29443 11.5938 7.49752 11.5938C7.70555 11.5938 7.89006 11.5542 8.05104 11.4749C8.21202 11.3932 8.34823 11.2731 8.45968 11.1146C8.57113 10.9536 8.65533 10.7567 8.71229 10.5239C8.77173 10.2911 8.80145 10.0236 8.80145 9.72149Z" fill="#005089"/>
<path d="M16.7704 11.4973L15.1544 16.1855H14.1774L16.2132 10.7766H16.8373L16.7704 11.4973ZM18.1226 16.1855L16.5029 11.4973L16.4324 10.7766H17.0602L19.1034 16.1855H18.1226ZM18.0446 14.1795V14.9188H15.1024V14.1795H18.0446Z" fill="#005089"/>
</g>
<defs>
<clipPath id="clip0_3276_41518">
<rect width="24" height="24" fill="white" transform="translate(0.262695)"/>
</clipPath>
</defs>
</svg>
