<svg width="25" height="24" viewBox="0 0 25 24" fill="none" xmlns="http://www.w3.org/2000/svg">
<path fill-rule="evenodd" clip-rule="evenodd" d="M5.87111 4.00001C5.04266 4.00001 4.37111 4.67156 4.37111 5.50001V7.5C4.37111 7.77615 4.14723 7.99999 3.87109 7.99999C3.59495 7.99999 3.37109 7.77615 3.37109 7.5V5.50001C3.37109 4.1193 4.49039 3 5.87111 3H7.87109C8.14724 3 8.37108 3.22386 8.37108 3.5C8.37108 3.77614 8.14724 4.00001 7.87109 4.00001H5.87111ZM5.87111 20C5.04266 20 4.37111 19.3284 4.37111 18.5V16.5C4.37111 16.2239 4.14723 16 3.87109 16C3.59495 16 3.37109 16.2239 3.37109 16.5V18.5C3.37109 19.8807 4.49039 21 5.87111 21H7.87109C8.14724 21 8.37108 20.7761 8.37108 20.5C8.37108 20.2239 8.14724 20 7.87109 20H5.87111ZM18.8711 4.00001C19.6995 4.00001 20.3711 4.67156 20.3711 5.50001V7.5C20.3711 7.77615 20.595 7.99999 20.8711 7.99999C21.1472 7.99999 21.3711 7.77615 21.3711 7.5V5.50001C21.3711 4.1193 20.2518 3 18.8711 3H16.8711C16.5949 3 16.3711 3.22386 16.3711 3.5C16.3711 3.77614 16.5949 4.00001 16.8711 4.00001H18.8711ZM18.8711 20C19.6995 20 20.3711 19.3284 20.3711 18.5V16.5C20.3711 16.2239 20.595 16 20.8711 16C21.1472 16 21.3711 16.2239 21.3711 16.5V18.5C21.3711 19.8807 20.2518 21 18.8711 21H16.8711C16.5949 21 16.3711 20.7761 16.3711 20.5C16.3711 20.2239 16.5949 20 16.8711 20H18.8711ZM8.62113 7.30005C8.89728 7.30005 9.12112 7.52392 9.12112 7.80004V8.6334C9.12112 8.90951 8.89728 9.13339 8.62113 9.13339C8.34498 9.13339 8.12111 8.90951 8.12111 8.6334V7.80004C8.12111 7.52392 8.34498 7.30005 8.62113 7.30005ZM16.1211 7.30005C16.3973 7.30005 16.6211 7.52392 16.6211 7.80004V8.6334C16.6211 8.90951 16.3973 9.13339 16.1211 9.13339C15.845 9.13339 15.6211 8.90951 15.6211 8.6334V7.80004C15.6211 7.52392 15.845 7.30005 16.1211 7.30005Z" fill="#005089"/>
<path fill-rule="evenodd" clip-rule="evenodd" d="M12.7876 8.9668C13.0638 8.9668 13.2876 9.19067 13.2876 9.46682V11.8001C13.2876 12.6286 12.616 13.3001 11.7876 13.3001H11.5376C11.2615 13.3001 11.0376 13.0763 11.0376 12.8002C11.0376 12.524 11.2615 12.3001 11.5376 12.3001H11.7876C12.0637 12.3001 12.2876 12.0763 12.2876 11.8001V9.46682C12.2876 9.19067 12.5115 8.9668 12.7876 8.9668Z" fill="#005089"/>
<path fill-rule="evenodd" clip-rule="evenodd" d="M8.34486 14.0501C8.575 13.8975 8.88527 13.9604 9.03786 14.1905C9.57119 14.9949 10.8209 15.6335 12.3712 15.6335C13.9214 15.6335 15.1711 14.9949 15.7044 14.1905C15.857 13.9604 16.1673 13.8975 16.3975 14.0501C16.6276 14.2027 16.6905 14.513 16.5379 14.7431C15.7667 15.9062 14.1488 16.6335 12.3712 16.6335C10.5935 16.6335 8.97554 15.9062 8.20442 14.7431C8.05184 14.513 8.11469 14.2027 8.34486 14.0501Z" fill="#005089"/>
</svg>
