<svg width="33" height="33" viewBox="0 0 33 33" fill="none" xmlns="http://www.w3.org/2000/svg">
<path fill-rule="evenodd" clip-rule="evenodd" d="M2.02393 16.6969C2.02393 24.692 8.505 31.1731 16.5007 31.1731C24.4952 31.1731 30.9763 24.692 30.9763 16.6969C30.9763 8.70178 24.4952 2.2207 16.5007 2.2207C8.505 2.2207 2.02393 8.70178 2.02393 16.6969Z" fill="#50AEF1"/>
<path d="M19.9865 23.6923L19.7417 24.7093C19.0073 25.0038 18.4207 25.228 17.9839 25.3822C17.5466 25.5368 17.1146 25.6068 16.4221 25.5471C15.7296 25.4873 15.3075 25.3042 14.8143 24.8646C14.3211 24.4232 14.0744 23.8639 14.0744 23.1854C14.0744 22.9227 14.0923 22.6525 14.1295 22.3773C14.1671 22.1017 14.2267 21.7913 14.3084 21.4444L15.2261 18.1431C15.3078 17.8269 15.3772 17.5274 15.4328 17.2442C15.4892 16.9627 15.5163 16.7037 15.5163 16.4705C15.5163 16.0489 15.4304 15.754 15.2594 15.5882C14.825 15.2376 14.3001 15.3443 13.8346 15.3905C13.8346 15.3905 13.6579 15.4202 13.4093 15.4948C13.1596 15.5698 12.9462 15.6423 12.7671 15.7096L13.0125 14.6918C13.6137 14.4431 13.8987 14.2756 14.4484 14.0988C14.9982 13.9215 15.5176 13.8328 16.0089 13.8328C16.8918 13.8328 17.5731 14.0497 18.0516 14.4834C18.53 14.9174 18.7691 15.4801 18.7691 16.1735C18.7691 16.3169 18.7534 16.5697 18.7197 16.931C18.6867 17.2931 18.6253 17.6248 18.5358 17.9266L17.6219 21.2147C17.547 21.4788 17.4797 21.7807 17.4211 22.1204C17.3607 22.4579 17.3318 22.7158 17.3318 22.8888C17.3318 23.3254 17.4276 23.6235 17.6196 23.782C17.813 23.9404 18.1462 24.0192 18.6195 24.0192C18.8417 24.0192 19.0945 23.9792 19.3754 23.9005C19.6555 23.8218 19.8598 23.7528 19.9865 23.6923ZM20.2183 9.88788C20.2183 10.4608 20.0058 10.95 19.5789 11.3523C19.153 11.7561 18.6399 11.9581 18.0396 11.9581C17.4374 11.9581 16.9231 11.7561 16.4924 11.3523C16.0624 10.9499 15.847 10.4608 15.847 9.88788C15.847 9.31612 16.0624 8.82606 16.4924 8.41866C16.9223 8.0119 17.4376 7.80859 18.0396 7.80859C18.6397 7.80859 19.153 8.01237 19.5789 8.41866C20.0061 8.82606 20.2183 9.31628 20.2183 9.88788Z" fill="white"/>
</svg>
