<svg width="24" height="24" viewBox="0 0 24 24" fill="none" xmlns="http://www.w3.org/2000/svg">
<g id="Icon information">
<path id="background" fill-rule="evenodd" clip-rule="evenodd" d="M1.14307 11.9997C1.14307 17.9961 6.00387 22.8569 12.0007 22.8569C17.9965 22.8569 22.8574 17.9961 22.8574 11.9997C22.8574 6.00338 17.9965 1.14258 12.0007 1.14258C6.00387 1.14258 1.14307 6.00338 1.14307 11.9997Z" fill="#50AEF1"/>
<path id="icon" d="M14.6147 17.2458L14.4312 18.0085C13.8804 18.2294 13.4404 18.3976 13.1128 18.5132C12.7848 18.6292 12.4608 18.6817 11.9414 18.6369C11.4221 18.5921 11.1055 18.4547 10.7356 18.125C10.3657 17.794 10.1807 17.3745 10.1807 16.8656C10.1807 16.6686 10.1941 16.466 10.222 16.2595C10.2502 16.0528 10.2949 15.82 10.3562 15.5599L11.0445 13.0839C11.1057 12.8468 11.1578 12.6221 11.1995 12.4097C11.2417 12.1986 11.2621 12.0043 11.2621 11.8295C11.2621 11.5133 11.1977 11.2921 11.0695 11.1677C10.7437 10.9047 10.3499 10.9848 10.0009 11.0194C10.0009 11.0194 9.86827 11.0417 9.68185 11.0977C9.49461 11.1539 9.33456 11.2083 9.2002 11.2588L9.38426 10.4954C9.83518 10.3089 10.0489 10.1833 10.4612 10.0507C10.8735 9.9177 11.2631 9.85116 11.6315 9.85116C12.2937 9.85116 12.8047 10.0138 13.1635 10.3391C13.5224 10.6646 13.7017 11.0866 13.7017 11.6067C13.7017 11.7143 13.6899 11.9038 13.6646 12.1748C13.6399 12.4464 13.5939 12.6952 13.5267 12.9215L12.8413 15.3876C12.7852 15.5856 12.7346 15.8121 12.6907 16.0669C12.6454 16.32 12.6237 16.5134 12.6237 16.6432C12.6237 16.9706 12.6955 17.1942 12.8396 17.313C12.9847 17.4319 13.2346 17.491 13.5895 17.491C13.7561 17.491 13.9457 17.461 14.1564 17.402C14.3665 17.343 14.5197 17.2911 14.6147 17.2458ZM14.7886 6.89248C14.7886 7.32214 14.6292 7.68909 14.309 7.99081C13.9897 8.2936 13.6048 8.44512 13.1546 8.44512C12.703 8.44512 12.3172 8.2936 11.9941 7.99081C11.6717 7.68897 11.5101 7.32214 11.5101 6.89248C11.5101 6.46365 11.6717 6.09611 11.9941 5.79056C12.3166 5.48548 12.7031 5.33301 13.1546 5.33301C13.6047 5.33301 13.9897 5.48584 14.309 5.79056C14.6295 6.09611 14.7886 6.46377 14.7886 6.89248Z" fill="white"/>
</g>
</svg>
