<svg width="16" height="18" viewBox="0 0 16 18" fill="none" xmlns="http://www.w3.org/2000/svg">
<path d="M8 9.00002C10.3672 9.00002 12.2857 7.08149 12.2857 4.7143C12.2857 2.34712 10.3672 0.428589 8 0.428589C5.63281 0.428589 3.71429 2.34712 3.71429 4.7143C3.71429 7.08149 5.63281 9.00002 8 9.00002ZM11 10.0714H10.4408C9.69754 10.413 8.87054 10.6072 8 10.6072C7.12946 10.6072 6.3058 10.413 5.55915 10.0714H5C2.51562 10.0714 0.5 12.0871 0.5 14.5714V15.9643C0.5 16.8516 1.21987 17.5714 2.10714 17.5714H13.8929C14.7801 17.5714 15.5 16.8516 15.5 15.9643V14.5714C15.5 12.0871 13.4844 10.0714 11 10.0714Z" fill="#005795"/>
</svg>
