<svg width="24" height="25" viewBox="0 0 24 25" fill="none" xmlns="http://www.w3.org/2000/svg">
<path d="M16.5625 10.1694V8.54443C16.5625 6.26943 14.775 4.48193 12.5 4.48193C10.225 4.48193 8.4375 6.26943 8.4375 8.54443V10.1694C7.05625 10.1694 6 11.2257 6 12.6069V18.2944C6 19.6757 7.05625 20.7319 8.4375 20.7319H16.5625C17.9438 20.7319 19 19.6757 19 18.2944V12.6069C19 11.2257 17.9438 10.1694 16.5625 10.1694ZM10.0625 8.54443C10.0625 7.16318 11.1188 6.10693 12.5 6.10693C13.8812 6.10693 14.9375 7.16318 14.9375 8.54443V10.1694H10.0625V8.54443ZM13.3938 15.4507L13.3125 15.5319V16.6694C13.3125 17.1569 12.9875 17.4819 12.5 17.4819C12.0125 17.4819 11.6875 17.1569 11.6875 16.6694V15.5319C11.2 15.0444 11.1187 14.3132 11.6062 13.8257C12.0937 13.3382 12.825 13.2569 13.3125 13.7444C13.8 14.1507 13.8813 14.9632 13.3938 15.4507Z" fill="#005089"/>
</svg>
