<svg width="81" height="80" viewBox="0 0 81 80" fill="none" xmlns="http://www.w3.org/2000/svg">
<g filter="url(#filter0_b_6970_97391)">
<path d="M52.2965 19.3459C52.5129 19.477 52.7835 19.4761 53.0044 19.3526C53.7651 18.9271 54.5586 18.5824 55.3739 18.3208C55.6152 18.2434 55.8007 18.0459 55.8524 17.7978L56.3011 15.6448C56.3661 15.3328 56.6384 15.1074 56.957 15.102L61.0837 15.0309C61.4024 15.0254 61.6824 15.2413 61.758 15.551L62.2794 17.685C62.3397 17.9318 62.5325 18.1231 62.777 18.1918C63.6003 18.4231 64.4046 18.7376 65.179 19.1355C65.4043 19.2512 65.6749 19.2425 65.8867 19.1037L67.7223 17.9008C67.9888 17.7262 68.3406 17.7593 68.5699 17.9806L71.54 20.8481C71.7692 21.0693 71.8147 21.4196 71.6497 21.6921L70.5126 23.5699C70.3815 23.7864 70.3824 24.0569 70.5059 24.2778C70.9314 25.0386 71.2761 25.8321 71.5377 26.6475C71.6151 26.8887 71.8125 27.0742 72.0605 27.1259L74.209 27.5744C74.5208 27.6395 74.7461 27.9118 74.7515 28.2303L74.8226 32.3572C74.8281 32.6759 74.6122 32.9558 74.3025 33.0315L72.1685 33.5528C71.9217 33.6131 71.7304 33.8059 71.6617 34.0505C71.4304 34.8737 71.1159 35.678 70.718 36.4525C70.6023 36.6777 70.611 36.9483 70.7498 37.1601L71.9527 38.9957C72.1273 39.2622 72.0942 39.6141 71.8729 39.8433L69.0054 42.8135C68.7842 43.0426 68.4339 43.0881 68.1614 42.9232L66.2836 41.786C66.0671 41.6549 65.7966 41.6558 65.5757 41.7793C64.815 42.2048 64.0215 42.5495 63.2061 42.8111C62.9648 42.8885 62.7794 43.086 62.7277 43.3341L62.279 45.4872C62.214 45.7991 61.9416 46.0245 61.623 46.03L57.4963 46.1011C57.1777 46.1066 56.8977 45.8906 56.822 45.581L56.3007 43.4469C56.2404 43.2002 56.0476 43.0088 55.803 42.9401C54.9798 42.7088 54.1755 42.3943 53.401 41.9965C53.1758 41.8808 52.9052 41.8894 52.6934 42.0282L50.8578 43.2311C50.5913 43.4057 50.2394 43.3726 50.0102 43.1513L47.04 40.2838C46.8109 40.0626 46.7654 39.7123 46.9303 39.4399L48.0675 37.562C48.1986 37.3456 48.1977 37.075 48.0742 36.8541C47.6486 36.0934 47.304 35.2998 47.0424 34.4844C46.965 34.2432 46.7675 34.0578 46.5196 34.006L44.3711 33.5575C44.0593 33.4924 43.834 33.2201 43.8285 32.9016L43.7574 28.7748C43.7519 28.4561 43.9679 28.1761 44.2775 28.1005L46.4116 27.5791C46.6583 27.5188 46.8497 27.326 46.9184 27.0815C47.1497 26.2582 47.4642 25.4539 47.862 24.6795C47.9777 24.4542 47.9691 24.1836 47.8303 23.9718L46.6274 22.1362C46.4528 21.8697 46.4859 21.5178 46.7072 21.2886L49.5747 18.3185C49.7959 18.0893 50.1462 18.0438 50.4186 18.2088L52.2965 19.3459ZM55.4289 26.5076C53.2824 28.734 53.3423 32.2732 55.5686 34.4196C57.79 36.5661 61.3342 36.5062 63.4807 34.2799C65.6271 32.0585 65.5672 28.5143 63.3409 26.3679C61.1195 24.2214 57.5753 24.2813 55.4289 26.5076Z" fill="#52B6FD"/>
</g>
<g filter="url(#filter1_b_6970_97391)">
<path d="M19.9309 22.6581C20.1474 22.7892 20.4182 22.7889 20.6376 22.6628C21.9788 21.8922 23.3861 21.2814 24.8355 20.8353C25.0777 20.7607 25.263 20.5627 25.3147 20.3146L26.1407 16.3512C26.2057 16.0393 26.478 15.8139 26.7966 15.8084L33.9795 15.6847C34.2982 15.6792 34.5782 15.8951 34.6538 16.2048L35.6138 20.1345C35.6741 20.3813 35.8667 20.5731 36.1121 20.6389C37.5753 21.0313 39.0023 21.5887 40.3688 22.311C40.5926 22.4294 40.8635 22.4202 41.0753 22.2814L44.4551 20.0666C44.7216 19.892 45.0734 19.9251 45.3027 20.1464L50.4721 25.1372C50.7012 25.3584 50.7468 25.7087 50.5818 25.9811L48.4883 29.4382C48.3572 29.6547 48.3576 29.9255 48.4837 30.145C49.2543 31.4862 49.8651 32.8936 50.3113 34.343C50.3858 34.5851 50.5837 34.7704 50.8317 34.8221L54.7876 35.6478C55.0994 35.7129 55.3247 35.9852 55.3302 36.3038L55.4539 43.4868C55.4594 43.8055 55.2434 44.0855 54.9338 44.1611L51.004 45.1212C50.7573 45.1814 50.5654 45.3741 50.4996 45.6194C50.1072 47.0827 49.5499 48.5096 48.8275 49.8761C48.7092 50.1 48.7183 50.3708 48.8571 50.5826L51.0719 53.9624C51.2465 54.2289 51.2134 54.5808 50.9921 54.81L46.0014 59.9794C45.7802 60.2086 45.4299 60.2541 45.1574 60.0891L41.7003 57.9957C41.4839 57.8646 41.213 57.8649 40.9936 57.991C39.6524 58.7616 38.2451 59.3724 36.7957 59.8186C36.5535 59.8931 36.3682 60.0911 36.3165 60.3392L35.4906 64.3026C35.4256 64.6146 35.1532 64.8399 34.8346 64.8454L27.6518 64.9691C27.3331 64.9746 27.0531 64.7587 26.9774 64.449L26.0174 60.5193C25.9571 60.2725 25.7645 60.0807 25.5192 60.0149C24.0559 59.6225 22.629 59.0651 21.2625 58.3428C21.0386 58.2244 20.7677 58.2336 20.5559 58.3724L17.1761 60.5872C16.9097 60.7618 16.5578 60.7287 16.3286 60.5074L11.1591 55.5167C10.93 55.2954 10.8845 54.9451 11.0494 54.6727L13.1429 51.2156C13.274 50.9991 13.2736 50.7283 13.1475 50.5089C12.3769 49.1676 11.7661 47.7602 11.32 46.3108C11.2455 46.0687 11.0475 45.8834 10.7995 45.8317L6.84366 45.006C6.53181 44.9409 6.30656 44.6686 6.30108 44.35L6.17736 37.167C6.17187 36.8483 6.38782 36.5683 6.69744 36.4927L10.6272 35.5327C10.8739 35.4724 11.0658 35.2797 11.1316 35.0344C11.524 33.5711 12.0814 32.1442 12.8037 30.7777C12.9221 30.5538 12.9129 30.283 12.7741 30.0712L10.5593 26.6914C10.3847 26.4249 10.4178 26.073 10.6391 25.8438L15.6298 20.6744C15.851 20.4452 16.2014 20.3997 16.4738 20.5647L19.9309 22.6581ZM25.7136 33.8909C22.3096 37.4216 22.4046 43.0343 25.9353 46.4383C29.4581 49.8424 35.0787 49.7474 38.4828 46.2167C41.8868 42.6939 41.7918 37.0733 38.2611 33.6692C34.7383 30.2652 29.1177 30.3602 25.7136 33.8909Z" fill="url(#paint0_linear_6970_97391)" fill-opacity="0.8"/>
</g>
<path opacity="0.3" d="M46.847 46.8271C45.6412 49.4303 43.7673 51.6676 41.4161 53.3116C39.0649 54.9555 36.3203 55.9473 33.4613 56.1862C30.6024 56.425 27.7312 55.9024 25.1398 54.6714C22.5484 53.4404 20.3293 51.545 18.7082 49.178C17.0872 46.811 16.1219 44.0569 15.9108 41.1957C15.6996 38.3346 16.25 35.4686 17.506 32.8893C18.762 30.3099 20.6788 28.1093 23.0614 26.5112C25.4439 24.9131 28.2073 23.9745 31.0703 23.7911L31.2781 27.0329C28.9876 27.1797 26.777 27.9305 24.8709 29.209C22.9648 30.4875 21.4314 32.248 20.4266 34.3115C19.4218 36.3749 18.9815 38.6677 19.1504 40.9566C19.3194 43.2455 20.0915 45.4488 21.3884 47.3424C22.6853 49.236 24.4606 50.7523 26.5337 51.7371C28.6068 52.7219 30.9037 53.14 33.1909 52.949C35.478 52.7579 37.6738 51.9644 39.5547 50.6493C41.4357 49.3342 42.9347 47.5443 43.8994 45.4617L46.847 46.8271Z" fill="white"/>
<defs>
<filter id="filter0_b_6970_97391" x="43.0753" y="14.3487" width="32.4295" height="32.4344" filterUnits="userSpaceOnUse" color-interpolation-filters="sRGB">
<feFlood flood-opacity="0" result="BackgroundImageFix"/>
<feGaussianBlur in="BackgroundImageFix" stdDeviation="0.341026"/>
<feComposite in2="SourceAlpha" operator="in" result="effect1_backgroundBlur_6970_97391"/>
<feBlend mode="normal" in="SourceGraphic" in2="effect1_backgroundBlur_6970_97391" result="shape"/>
</filter>
<filter id="filter1_b_6970_97391" x="5.49519" y="15.0025" width="50.641" height="50.6488" filterUnits="userSpaceOnUse" color-interpolation-filters="sRGB">
<feFlood flood-opacity="0" result="BackgroundImageFix"/>
<feGaussianBlur in="BackgroundImageFix" stdDeviation="0.341026"/>
<feComposite in2="SourceAlpha" operator="in" result="effect1_backgroundBlur_6970_97391"/>
<feBlend mode="normal" in="SourceGraphic" in2="effect1_backgroundBlur_6970_97391" result="shape"/>
</filter>
<linearGradient id="paint0_linear_6970_97391" x1="28.7088" y1="9.85916" x2="28.7088" y2="44.4312" gradientUnits="userSpaceOnUse">
<stop stop-color="#D3EDFF"/>
<stop offset="1" stop-color="#89CEFF"/>
</linearGradient>
</defs>
</svg>
