<svg width="33" height="33" viewBox="0 0 33 33" fill="none" xmlns="http://www.w3.org/2000/svg">
<path d="M15.6686 4.50605C16.2551 3.49017 17.7214 3.49017 18.3079 4.50605L31.5045 27.3632C32.091 28.3791 31.3579 29.6489 30.1849 29.6489H3.79171C2.61868 29.6489 1.88554 28.3791 2.47205 27.3632L15.6686 4.50605Z" fill="#EAA601"/>
<path d="M16.2662 11.3633C15.8301 11.3633 15.483 11.7287 15.5053 12.1642L15.9351 20.5452C15.9559 20.9502 16.2904 21.268 16.696 21.268H17.2801C17.6857 21.268 18.0202 20.9502 18.041 20.5452L18.4708 12.1642C18.4931 11.7287 18.146 11.3633 17.7099 11.3633H16.2662Z" fill="white"/>
<path d="M16.9879 23.5538C16.1463 23.5538 15.4641 24.236 15.4641 25.0776C15.4641 25.9191 16.1463 26.6014 16.9879 26.6014C17.8295 26.6014 18.5117 25.9191 18.5117 25.0776C18.5117 24.236 17.8295 23.5538 16.9879 23.5538Z" fill="white"/>
</svg>
