<svg width="16" height="15" viewBox="0 0 16 15" fill="none" xmlns="http://www.w3.org/2000/svg">
<path d="M0.751953 14.8646L1.77567 11.1247C1.14396 10.03 0.812029 8.78905 0.812636 7.51654C0.814456 3.53819 4.05187 0.300781 8.02961 0.300781C9.95992 0.301388 11.7719 1.05324 13.1348 2.41739C14.4972 3.78153 15.2472 5.59473 15.2466 7.52322C15.2448 11.5022 12.0073 14.7396 8.02961 14.7396C6.82203 14.739 5.63204 14.4362 4.57799 13.8609L0.751953 14.8646ZM4.75518 12.5544C5.77222 13.1582 6.74314 13.5199 8.02718 13.5205C11.3332 13.5205 14.0263 10.8298 14.0281 7.522C14.0293 4.20752 11.3489 1.5205 8.03204 1.51929C4.72362 1.51929 2.03235 4.20995 2.03114 7.51715C2.03053 8.86733 2.42618 9.8783 3.09066 10.936L2.48444 13.1497L4.75518 12.5544ZM11.6651 9.23871C11.6202 9.16346 11.5 9.11856 11.3192 9.02814C11.139 8.93773 10.2524 8.50142 10.0867 8.44134C9.92169 8.38127 9.80154 8.35093 9.68078 8.53176C9.56063 8.71199 9.21474 9.11856 9.10976 9.23871C9.00478 9.35886 8.89919 9.37403 8.71896 9.28362C8.53873 9.1932 7.9574 9.00326 7.26865 8.38855C6.73282 7.91037 6.37055 7.31993 6.26557 7.1391C6.16059 6.95887 6.25464 6.86117 6.34445 6.77136C6.42577 6.69065 6.52468 6.56079 6.6151 6.4552C6.70673 6.35083 6.73646 6.27558 6.79715 6.15483C6.85722 6.03467 6.82749 5.92909 6.78198 5.83867C6.73646 5.74886 6.37601 4.86107 6.22612 4.50001C6.07927 4.14866 5.9306 4.19599 5.82016 4.19053L5.47427 4.18446C5.35412 4.18446 5.15872 4.22937 4.99366 4.4102C4.8286 4.59104 4.36256 5.02674 4.36256 5.91452C4.36256 6.80231 5.00883 7.65975 5.09864 7.7799C5.18906 7.90005 6.36994 9.72174 8.17889 10.5027C8.60913 10.6884 8.94531 10.7995 9.20685 10.8826C9.63891 11.0197 10.0321 11.0003 10.3428 10.9542C10.6893 10.9026 11.4096 10.5179 11.5601 10.0968C11.7106 9.67502 11.7106 9.31396 11.6651 9.23871Z" fill="#EAEAEA"/>
</svg>
