<svg width="25" height="24" viewBox="0 0 25 24" fill="none" xmlns="http://www.w3.org/2000/svg">
<g id="Instagram">
<rect x="0.5" width="24" height="24" rx="12" fill="#005089"/>
<path id="Vector" d="M12.25 5.39561C14.3207 5.39561 14.5659 5.40469 15.3803 5.44102C16.1371 5.47432 16.5458 5.60147 16.8183 5.70742C17.1785 5.84668 17.4389 6.01621 17.7083 6.28564C17.9808 6.55811 18.1473 6.81543 18.2865 7.17568C18.3925 7.44814 18.5196 7.85986 18.5529 8.61367C18.5893 9.43106 18.5983 9.67627 18.5983 11.7439C18.5983 13.8146 18.5893 14.0599 18.5529 14.8742C18.5196 15.6311 18.3925 16.0397 18.2865 16.3122C18.1473 16.6725 17.9777 16.9328 17.7083 17.2022C17.4358 17.4747 17.1785 17.6412 16.8183 17.7805C16.5458 17.8864 16.1341 18.0136 15.3803 18.0469C14.5629 18.0832 14.3177 18.0923 12.25 18.0923C10.1793 18.0923 9.93408 18.0832 9.11973 18.0469C8.36289 18.0136 7.9542 17.8864 7.68174 17.7805C7.32148 17.6412 7.06113 17.4717 6.7917 17.2022C6.51924 16.9298 6.35273 16.6725 6.21348 16.3122C6.10752 16.0397 5.98037 15.628 5.94707 14.8742C5.91074 14.0568 5.90166 13.8116 5.90166 11.7439C5.90166 9.67324 5.91074 9.42803 5.94707 8.61367C5.98037 7.85684 6.10752 7.44814 6.21348 7.17568C6.35273 6.81543 6.52227 6.55508 6.7917 6.28564C7.06416 6.01318 7.32148 5.84668 7.68174 5.70742C7.9542 5.60147 8.36592 5.47432 9.11973 5.44102C9.93408 5.40469 10.1793 5.39561 12.25 5.39561ZM12.25 4C10.146 4 9.88262 4.00908 9.05615 4.04541C8.23271 4.08174 7.6666 4.21494 7.17617 4.40566C6.66455 4.60547 6.23164 4.86885 5.80176 5.30176C5.36885 5.73164 5.10547 6.16455 4.90566 6.67315C4.71494 7.1666 4.58174 7.72969 4.54541 8.55312C4.50908 9.38262 4.5 9.646 4.5 11.75C4.5 13.854 4.50908 14.1174 4.54541 14.9438C4.58174 15.7673 4.71494 16.3334 4.90566 16.8238C5.10547 17.3355 5.36885 17.7684 5.80176 18.1982C6.23164 18.6281 6.66455 18.8945 7.17314 19.0913C7.6666 19.282 8.22969 19.4152 9.05312 19.4516C9.87959 19.4879 10.143 19.497 12.247 19.497C14.351 19.497 14.6144 19.4879 15.4408 19.4516C16.2643 19.4152 16.8304 19.282 17.3208 19.0913C17.8294 18.8945 18.2623 18.6281 18.6922 18.1982C19.1221 17.7684 19.3885 17.3355 19.5853 16.8269C19.776 16.3334 19.9092 15.7703 19.9455 14.9469C19.9818 14.1204 19.9909 13.857 19.9909 11.753C19.9909 9.64902 19.9818 9.38564 19.9455 8.55918C19.9092 7.73574 19.776 7.16963 19.5853 6.6792C19.3945 6.16455 19.1312 5.73164 18.6982 5.30176C18.2684 4.87188 17.8355 4.60547 17.3269 4.40869C16.8334 4.21797 16.2703 4.08477 15.4469 4.04844C14.6174 4.00908 14.354 4 12.25 4Z" fill="#EAEAEA"/>
<path id="Vector_2" d="M12.25 7.76904C10.0521 7.76904 8.26904 9.55215 8.26904 11.75C8.26904 13.9479 10.0521 15.731 12.25 15.731C14.4479 15.731 16.231 13.9479 16.231 11.75C16.231 9.55215 14.4479 7.76904 12.25 7.76904ZM12.25 14.3323C10.8241 14.3323 9.66768 13.1759 9.66768 11.75C9.66768 10.3241 10.8241 9.16768 12.25 9.16768C13.6759 9.16768 14.8323 10.3241 14.8323 11.75C14.8323 13.1759 13.6759 14.3323 12.25 14.3323Z" fill="#EAEAEA"/>
<path id="Vector_3" d="M17.3178 7.61153C17.3178 8.12617 16.9 8.54092 16.3884 8.54092C15.8737 8.54092 15.459 8.12315 15.459 7.61153C15.459 7.09688 15.8768 6.68213 16.3884 6.68213C16.9 6.68213 17.3178 7.0999 17.3178 7.61153Z" fill="#EAEAEA"/>
</g>
</svg>
