<svg width="25" height="24" viewBox="0 0 25 24" fill="none" xmlns="http://www.w3.org/2000/svg">
<rect x="0.166626" width="24" height="24" rx="12" fill="#005089"/>
<path d="M14.1844 9.55569C13.6776 9.55395 13.1754 9.65216 12.7066 9.84471C12.2378 10.0373 11.8115 10.3204 11.4522 10.6778C11.0929 11.0353 10.8076 11.4601 10.6127 11.9279C10.4177 12.3957 10.3169 12.8974 10.316 13.4042V17.2924C10.316 17.4503 10.3787 17.6016 10.4904 17.7133C10.602 17.8249 10.7533 17.8876 10.9112 17.8876H12.2998C12.4577 17.8876 12.609 17.8249 12.7206 17.7133C12.8323 17.6016 12.895 17.4503 12.895 17.2924V13.4042C12.8948 13.224 12.9327 13.0457 13.0061 12.8811C13.0794 12.7164 13.1867 12.5691 13.3208 12.4487C13.455 12.3282 13.613 12.2375 13.7846 12.1822C13.9562 12.1269 14.1375 12.1085 14.3167 12.128C14.638 12.1685 14.9334 12.3255 15.1467 12.5693C15.36 12.813 15.4764 13.1266 15.4739 13.4505V17.2924C15.4739 17.4503 15.5366 17.6016 15.6482 17.7133C15.7598 17.8249 15.9112 17.8876 16.069 17.8876H17.4576C17.6155 17.8876 17.7669 17.8249 17.8785 17.7133C17.9901 17.6016 18.0528 17.4503 18.0528 17.2924V13.4042C18.0519 12.8974 17.9511 12.3957 17.7562 11.9279C17.5612 11.4601 17.2759 11.0353 16.9166 10.6778C16.5573 10.3204 16.1311 10.0373 15.6622 9.84471C15.1934 9.65216 14.6912 9.55395 14.1844 9.55569Z" fill="#EAEAEA"/>
<path d="M8.5308 10.1509H6.7454C6.41672 10.1509 6.15027 10.4173 6.15027 10.746V17.2925C6.15027 17.6212 6.41672 17.8876 6.7454 17.8876H8.5308C8.85949 17.8876 9.12594 17.6212 9.12594 17.2925V10.746C9.12594 10.4173 8.85949 10.1509 8.5308 10.1509Z" fill="#EAEAEA"/>
<path d="M7.6381 8.96005C8.45981 8.96005 9.12594 8.29392 9.12594 7.47221C9.12594 6.6505 8.45981 5.98438 7.6381 5.98438C6.81639 5.98438 6.15027 6.6505 6.15027 7.47221C6.15027 8.29392 6.81639 8.96005 7.6381 8.96005Z" fill="#EAEAEA"/>
</svg>
