<svg width="24" height="24" viewBox="0 0 24 24" fill="none" xmlns="http://www.w3.org/2000/svg">
<path d="M16.5625 9.6875V8.0625C16.5625 5.7875 14.775 4 12.5 4C10.225 4 8.4375 5.7875 8.4375 8.0625V9.6875C7.05625 9.6875 6 10.7437 6 12.125V17.8125C6 19.1937 7.05625 20.25 8.4375 20.25H16.5625C17.9438 20.25 19 19.1937 19 17.8125V12.125C19 10.7437 17.9438 9.6875 16.5625 9.6875ZM10.0625 8.0625C10.0625 6.68125 11.1188 5.625 12.5 5.625C13.8812 5.625 14.9375 6.68125 14.9375 8.0625V9.6875H10.0625V8.0625ZM13.3938 14.9687L13.3125 15.05V16.1875C13.3125 16.675 12.9875 17 12.5 17C12.0125 17 11.6875 16.675 11.6875 16.1875V15.05C11.2 14.5625 11.1187 13.8312 11.6062 13.3437C12.0937 12.8562 12.825 12.775 13.3125 13.2625C13.8 13.6687 13.8813 14.4812 13.3938 14.9687Z" fill="#005089"/>
</svg>
