<svg width="129" height="25" viewBox="0 0 129 25" fill="none" xmlns="http://www.w3.org/2000/svg">
<path d="M59.8162 14.4122C59.8162 14.3162 59.8411 14.238 59.8909 14.1811C59.9407 14.1242 60.0153 14.0957 60.1185 14.0957H64.5072C64.8237 14.0957 65.1189 14.1384 65.3999 14.2273C65.6808 14.3162 65.9369 14.4336 66.1681 14.5865C66.4028 14.7394 66.6126 14.9244 66.8011 15.1378C66.9896 15.3511 67.1497 15.5823 67.2777 15.8277C67.4057 16.0731 67.5089 16.3363 67.5764 16.6066C67.644 16.8769 67.6796 17.1543 67.6796 17.4353C67.6796 17.8478 67.6049 18.2497 67.4555 18.6445C67.3062 19.0392 67.0963 19.3878 66.8189 19.6936C66.5451 19.9995 66.2143 20.2484 65.8302 20.4405C65.4461 20.6325 65.0193 20.7286 64.5534 20.7321H62.4729V24.0005C62.4729 24.1961 62.3662 24.2957 62.1564 24.2957H60.1149C60.0225 24.2957 59.9513 24.2708 59.8944 24.2246C59.8411 24.1748 59.8126 24.1037 59.8126 24.0005V14.4122H59.8162ZM64.9873 17.421C64.9873 17.2823 64.9624 17.1472 64.9162 17.0085C64.87 16.8698 64.7988 16.7488 64.7064 16.6421C64.6139 16.5355 64.5036 16.4465 64.3721 16.379C64.2405 16.3114 64.0946 16.2758 63.9275 16.2758H62.4729V18.5698H63.9275C64.0911 18.5698 64.2405 18.5378 64.3756 18.4702C64.5107 18.4026 64.621 18.3173 64.7099 18.2141C64.7988 18.111 64.8664 17.9865 64.9162 17.8514C64.966 17.7162 64.9873 17.5704 64.9873 17.4246V17.421Z" fill="#A02225"/>
<path d="M69.1735 14.4122C69.1735 14.3162 69.1984 14.238 69.2517 14.1811C69.3051 14.1242 69.3797 14.0957 69.4758 14.0957H76.29C76.3896 14.0957 76.4678 14.1242 76.5247 14.1846C76.5816 14.2451 76.6065 14.3233 76.6065 14.4229V16.1229C76.6065 16.2011 76.5781 16.2758 76.5247 16.347C76.4714 16.4181 76.3896 16.4537 76.2829 16.4537H71.8302V18.1572H75.2657C75.3511 18.1572 75.4258 18.1786 75.4827 18.2177C75.5396 18.2568 75.568 18.3279 75.568 18.424V19.907C75.568 19.971 75.5431 20.0315 75.4933 20.092C75.4436 20.1524 75.3689 20.1809 75.2728 20.1809H71.8302V21.9378H76.4465C76.6528 21.9378 76.7559 22.0445 76.7559 22.2543V23.9792C76.7559 24.0254 76.7381 24.0646 76.7025 24.1037C76.6848 24.2317 76.5887 24.2957 76.4216 24.2957H69.4758C69.3833 24.2957 69.3122 24.2708 69.2553 24.2246C69.2019 24.1748 69.1735 24.1037 69.1735 24.0005V14.4122Z" fill="#A02225"/>
<path d="M78.4592 14.4122C78.4592 14.3162 78.4841 14.238 78.5339 14.1811C78.5837 14.1242 78.6584 14.0957 78.7615 14.0957H83.2001C83.6731 14.0957 84.1141 14.1846 84.5266 14.3589C84.9392 14.5331 85.2984 14.775 85.6042 15.0773C85.9101 15.3796 86.1519 15.7317 86.3298 16.1371C86.5076 16.5426 86.5929 16.9729 86.5929 17.4317C86.5929 17.7447 86.5503 18.0399 86.4649 18.3208C86.3796 18.6018 86.2622 18.865 86.1128 19.1104C85.9635 19.3558 85.7821 19.5763 85.5722 19.7754C85.3624 19.9746 85.1348 20.1453 84.8894 20.2876L86.6534 23.6129C86.6854 23.6769 86.7281 23.7516 86.7779 23.8405C86.8277 23.9259 86.8526 24.0041 86.8526 24.0681C86.8526 24.1428 86.8277 24.1961 86.7814 24.2353C86.7316 24.2744 86.6676 24.2922 86.5858 24.2922H84.2279C84.1496 24.2922 84.0785 24.2708 84.018 24.2246C83.9576 24.1784 83.9149 24.1179 83.8971 24.0397L82.2291 20.8993H81.1159V23.997C81.1159 24.1926 81.0093 24.2922 80.7994 24.2922H78.758C78.6655 24.2922 78.5944 24.2673 78.5375 24.221C78.4806 24.1748 78.4557 24.1001 78.4557 23.997V14.4087L78.4592 14.4122ZM83.8367 17.4637C83.8367 17.325 83.8118 17.1899 83.762 17.0511C83.7122 16.9124 83.6411 16.788 83.5486 16.6742C83.4561 16.5604 83.3459 16.4643 83.2178 16.3861C83.0898 16.3078 82.9475 16.258 82.7911 16.2367C82.663 16.226 82.5421 16.2189 82.4318 16.2118C82.3216 16.2047 82.1971 16.2011 82.0655 16.2011H81.1159V18.7227H82.3785C82.4603 18.7227 82.535 18.7227 82.599 18.7156C82.663 18.7085 82.7342 18.7049 82.8124 18.6942C82.9724 18.6765 83.1183 18.6302 83.2463 18.552C83.3743 18.4773 83.481 18.3813 83.5699 18.271C83.6553 18.1572 83.7229 18.0327 83.7691 17.894C83.8153 17.7553 83.8367 17.6131 83.8367 17.4637Z" fill="#A02225"/>
<path d="M87.5532 14.3946C87.5532 14.3021 87.5852 14.231 87.6457 14.1741C87.7062 14.1207 87.7844 14.0923 87.8769 14.0923H95.2673C95.3491 14.0923 95.4237 14.1172 95.4878 14.167C95.5518 14.2168 95.5873 14.2915 95.598 14.3946V16.0981C95.598 16.1799 95.5696 16.2582 95.5127 16.3329C95.4558 16.4076 95.374 16.4467 95.2673 16.4467H92.8986V23.9687C92.8986 24.0505 92.8702 24.1252 92.8097 24.1927C92.7493 24.2603 92.6746 24.2923 92.5786 24.2923H90.5656C90.4873 24.2923 90.4162 24.2603 90.3451 24.1998C90.2775 24.1394 90.2419 24.0611 90.2419 23.9687V16.4467H87.8804C87.788 16.4467 87.7133 16.4182 87.6492 16.3578C87.5852 16.2973 87.5568 16.212 87.5568 16.0981V14.3946H87.5532Z" fill="#A02225"/>
<path d="M98.8309 14.3624C98.8344 14.334 98.8486 14.3055 98.8771 14.2735C98.9056 14.2415 98.934 14.2131 98.9696 14.1846C99.0051 14.1562 99.0443 14.1348 99.0869 14.1206C99.1296 14.1064 99.1687 14.0957 99.2043 14.0957H100.961C101.039 14.0957 101.107 14.1206 101.16 14.1668C101.214 14.2131 101.256 14.2557 101.285 14.2949L101.456 14.6861L105.062 23.9863C105.097 24.0788 105.09 24.1535 105.041 24.2104C104.991 24.2673 104.902 24.2957 104.781 24.2957H102.811C102.704 24.2957 102.626 24.2779 102.565 24.2388C102.508 24.1997 102.462 24.1357 102.43 24.0432C102.338 23.8085 102.249 23.5773 102.163 23.3461C102.078 23.115 101.989 22.8838 101.904 22.6491H98.2547C98.1694 22.8838 98.0805 23.115 97.9915 23.3461C97.9026 23.5773 97.8137 23.8085 97.7284 24.0432C97.6679 24.2139 97.5505 24.2957 97.3763 24.2957H95.3491C95.2637 24.2957 95.189 24.2744 95.1321 24.2282C95.0752 24.1819 95.0645 24.1143 95.1001 24.0219L98.8309 14.3624ZM100.083 17.3037C99.9974 17.5384 99.9085 17.7873 99.8196 18.0576C99.7307 18.3279 99.6417 18.6018 99.5564 18.8756C99.471 19.1495 99.3821 19.4233 99.2932 19.6901C99.2043 19.9568 99.1154 20.2093 99.03 20.444H101.139L100.086 17.3037H100.083Z" fill="#A02225"/>
<path d="M107 14.398C107.007 14.3162 107.043 14.2451 107.096 14.1846C107.15 14.1242 107.228 14.0957 107.331 14.0957H109.707C109.878 14.0957 109.988 14.1811 110.038 14.3553L111.905 20.5934L113.786 14.3553C113.85 14.1811 113.967 14.0957 114.138 14.0957H116.485C116.567 14.0957 116.642 14.1242 116.71 14.1811C116.777 14.238 116.813 14.3091 116.823 14.398C116.983 16.0091 117.147 17.6095 117.314 19.1957C117.481 20.7819 117.645 22.3823 117.805 23.9934V24.029C117.805 24.2068 117.705 24.2957 117.503 24.2957H115.557C115.347 24.2957 115.237 24.1961 115.226 23.9934L114.629 18.6836L113.082 24.029C113.071 24.0752 113.039 24.1286 112.982 24.1926C112.925 24.2566 112.869 24.2886 112.815 24.2886H111.008C110.955 24.2886 110.895 24.2566 110.834 24.1961C110.774 24.1357 110.738 24.0788 110.735 24.029L109.188 18.6978L108.59 23.9934C108.579 24.1961 108.469 24.2957 108.252 24.2957H106.307C106.111 24.2957 106.012 24.1961 106.012 23.9934L106.993 14.398H107Z" fill="#A02225"/>
<path d="M122.542 14.3624C122.545 14.334 122.56 14.3055 122.588 14.2735C122.617 14.2415 122.645 14.2131 122.681 14.1846C122.716 14.1562 122.755 14.1348 122.798 14.1206C122.841 14.1064 122.88 14.0957 122.915 14.0957H124.672C124.751 14.0957 124.818 14.1206 124.871 14.1668C124.925 14.2131 124.967 14.2557 124.996 14.2949L125.167 14.6861L128.773 23.9863C128.808 24.0788 128.801 24.1535 128.752 24.2104C128.702 24.2673 128.613 24.2957 128.492 24.2957H126.522C126.415 24.2957 126.337 24.2779 126.276 24.2388C126.219 24.1997 126.173 24.1357 126.141 24.0432C126.049 23.8085 125.96 23.5773 125.874 23.3461C125.789 23.115 125.7 22.8838 125.615 22.6491H121.966C121.88 22.8838 121.792 23.115 121.703 23.3461C121.614 23.5773 121.525 23.8085 121.439 24.0432C121.379 24.2139 121.262 24.2957 121.087 24.2957H119.06C118.975 24.2957 118.9 24.2744 118.843 24.2282C118.786 24.1819 118.776 24.1143 118.811 24.0219L122.542 14.3624ZM123.794 17.3037C123.708 17.5384 123.62 17.7873 123.531 18.0576C123.442 18.3279 123.353 18.6018 123.267 18.8756C123.182 19.1495 123.093 19.4233 123.004 19.6901C122.915 19.9568 122.826 20.2093 122.741 20.444H124.85L123.797 17.3037H123.794Z" fill="#A02225"/>
<path d="M64.0591 8.21639C64.0982 8.24129 64.1302 8.26974 64.148 8.30886C64.1658 8.34798 64.1622 8.39066 64.1373 8.44401L63.5363 9.29757C63.5114 9.33669 63.4829 9.36158 63.4545 9.36869C63.426 9.37581 63.3869 9.36514 63.3442 9.34024C63.2269 9.25133 63.0988 9.18376 62.9601 9.13752C62.8214 9.09129 62.672 9.0664 62.5156 9.0664C62.32 9.0664 62.1421 9.10196 61.9785 9.17665C61.8149 9.25133 61.6727 9.35091 61.5553 9.47894C61.4379 9.60698 61.3455 9.75636 61.2779 9.92707C61.2103 10.0978 61.1783 10.2792 61.1783 10.4748C61.1783 10.6704 61.2103 10.8518 61.2779 11.0225C61.3455 11.1932 61.4379 11.339 61.5553 11.467C61.6727 11.5951 61.8149 11.6946 61.9785 11.7693C62.1421 11.844 62.32 11.8796 62.5156 11.8796C62.672 11.8796 62.8214 11.8547 62.9637 11.8049C63.1059 11.7551 63.234 11.6875 63.3513 11.5986C63.394 11.5737 63.4296 11.5631 63.458 11.5666C63.4865 11.5702 63.5149 11.5915 63.5434 11.6306L64.1515 12.5055C64.1764 12.5589 64.18 12.6015 64.1622 12.6371C64.1444 12.6727 64.1124 12.7011 64.0733 12.726C63.8492 12.8754 63.611 12.9928 63.3513 13.0746C63.0917 13.1564 62.8214 13.199 62.5369 13.199C62.2844 13.199 62.0425 13.167 61.8114 13.103C61.5802 13.039 61.3633 12.9465 61.1605 12.8292C60.9578 12.7118 60.7764 12.5695 60.6093 12.4024C60.4457 12.2388 60.3034 12.0538 60.1825 11.8547C60.0616 11.6555 59.9727 11.4386 59.9086 11.2074C59.8446 10.9762 59.8126 10.7344 59.8126 10.4819C59.8126 10.2294 59.8446 9.98752 59.9086 9.75635C59.9727 9.52518 60.0651 9.30824 60.1825 9.10552C60.2999 8.9028 60.4421 8.71785 60.6093 8.5507C60.7764 8.38354 60.9578 8.24129 61.1605 8.12392C61.3633 8.00656 61.5802 7.91409 61.8114 7.85007C62.0425 7.78605 62.2844 7.75049 62.5369 7.75049C62.8214 7.75049 63.0917 7.78961 63.3442 7.87141C63.5967 7.94966 63.835 8.06702 64.0591 8.21639Z" fill="#005089"/>
<path d="M67.2601 10.4785C67.2601 10.226 67.2921 9.98411 67.3562 9.75293C67.4202 9.52176 67.5126 9.30481 67.63 9.10209C67.7474 8.89937 67.8896 8.71444 68.0568 8.54728C68.2239 8.38013 68.4053 8.23787 68.608 8.1205C68.8108 8.00314 69.0277 7.91067 69.2589 7.84665C69.4901 7.78263 69.7319 7.74707 69.9844 7.74707C70.2369 7.74707 70.4752 7.77908 70.7064 7.84665C70.9375 7.91067 71.1545 8.00314 71.3572 8.1205C71.5599 8.23787 71.7413 8.38013 71.9085 8.54728C72.0756 8.71444 72.2179 8.89937 72.3352 9.10209C72.4526 9.30481 72.5451 9.52176 72.6091 9.75293C72.6731 9.98411 72.7087 10.226 72.7087 10.4785C72.7087 10.731 72.6767 10.9728 72.6091 11.204C72.5451 11.4352 72.4526 11.6521 72.3352 11.8513C72.2179 12.0504 72.0756 12.2354 71.9085 12.399C71.7413 12.5626 71.5599 12.7048 71.3572 12.8257C71.1545 12.9431 70.9375 13.0356 70.7064 13.0996C70.4752 13.1636 70.2334 13.1956 69.9844 13.1956C69.7355 13.1956 69.4901 13.1636 69.2589 13.0996C69.0277 13.0356 68.8108 12.9431 68.608 12.8257C68.4053 12.7084 68.2239 12.5661 68.0568 12.399C67.8932 12.2354 67.7509 12.0504 67.63 11.8513C67.5091 11.6521 67.4202 11.4352 67.3562 11.204C67.2921 10.9728 67.2601 10.731 67.2601 10.4785ZM68.6365 10.4785C68.6365 10.6741 68.6685 10.859 68.7361 11.0297C68.8036 11.2004 68.8961 11.3498 69.0135 11.4778C69.1344 11.6059 69.2731 11.7054 69.4367 11.7766C69.6003 11.8477 69.7817 11.8868 69.9773 11.8868C70.1729 11.8868 70.3543 11.8513 70.5179 11.7766C70.6815 11.7054 70.8237 11.6059 70.9447 11.4778C71.0656 11.3498 71.158 11.2004 71.2221 11.0297C71.2896 10.859 71.3217 10.6741 71.3217 10.4785C71.3217 10.2829 71.2896 10.1015 71.2221 9.9272C71.1545 9.75649 71.062 9.60356 70.9447 9.47553C70.8237 9.34749 70.6815 9.24791 70.5179 9.17322C70.3543 9.09854 70.1729 9.06297 69.9773 9.06297C69.7817 9.06297 69.6003 9.09854 69.4367 9.17322C69.2731 9.24791 69.1308 9.34749 69.0135 9.47553C68.8926 9.60356 68.8001 9.75294 68.7361 9.9272C68.6685 10.0979 68.6365 10.2829 68.6365 10.4785Z" fill="#005089"/>
<path d="M76.368 10.1013C76.368 9.99817 76.4214 9.94482 76.5245 9.94482H78.9501C78.9927 9.94482 79.0283 9.95905 79.0603 9.9875C79.0923 10.016 79.1065 10.0515 79.1065 10.1049V10.8268C79.1065 10.8624 79.0923 10.9015 79.0639 10.9406C79.0354 10.9798 78.9963 11.0011 78.9501 11.0011H76.5245C76.4214 11.0011 76.368 10.9442 76.368 10.8304V10.1084V10.1013Z" fill="#005089"/>
<path d="M82.7913 10.4785C82.7913 10.226 82.8233 9.98411 82.8873 9.75293C82.9513 9.52176 83.0438 9.30481 83.1611 9.10209C83.2785 8.89937 83.4208 8.71444 83.5879 8.54728C83.7551 8.38013 83.9364 8.23787 84.1392 8.1205C84.3419 8.00314 84.5588 7.91067 84.79 7.84665C85.0212 7.78263 85.263 7.74707 85.5155 7.74707C85.768 7.74707 86.0063 7.77908 86.2375 7.84665C86.4687 7.91067 86.6856 8.00314 86.8883 8.1205C87.0911 8.23787 87.2724 8.38013 87.4396 8.54728C87.6067 8.71444 87.749 8.89937 87.8664 9.10209C87.9837 9.30481 88.0762 9.52176 88.1402 9.75293C88.2042 9.98411 88.2398 10.226 88.2398 10.4785C88.2398 10.731 88.2078 10.9728 88.1402 11.204C88.0762 11.4352 87.9837 11.6521 87.8664 11.8513C87.749 12.0504 87.6067 12.2354 87.4396 12.399C87.2724 12.5626 87.0911 12.7048 86.8883 12.8257C86.6856 12.9431 86.4687 13.0356 86.2375 13.0996C86.0063 13.1636 85.7645 13.1956 85.5155 13.1956C85.2666 13.1956 85.0212 13.1636 84.79 13.0996C84.5588 13.0356 84.3419 12.9431 84.1392 12.8257C83.9364 12.7084 83.7551 12.5661 83.5879 12.399C83.4243 12.2354 83.282 12.0504 83.1611 11.8513C83.0402 11.6521 82.9513 11.4352 82.8873 11.204C82.8233 10.9728 82.7913 10.731 82.7913 10.4785ZM84.1676 10.4785C84.1676 10.6741 84.1996 10.859 84.2672 11.0297C84.3348 11.2004 84.4272 11.3498 84.5446 11.4778C84.6655 11.6059 84.8042 11.7054 84.9678 11.7766C85.1314 11.8477 85.3128 11.8868 85.5084 11.8868C85.704 11.8868 85.8854 11.8513 86.049 11.7766C86.2126 11.7054 86.3549 11.6059 86.4758 11.4778C86.5967 11.3498 86.6892 11.2004 86.7532 11.0297C86.8208 10.859 86.8528 10.6741 86.8528 10.4785C86.8528 10.2829 86.8208 10.1015 86.7532 9.9272C86.6856 9.75649 86.5931 9.60356 86.4758 9.47553C86.3549 9.34749 86.2126 9.24791 86.049 9.17322C85.8854 9.09854 85.704 9.06297 85.5084 9.06297C85.3128 9.06297 85.1314 9.09854 84.9678 9.17322C84.8042 9.24791 84.662 9.34749 84.5446 9.47553C84.4237 9.60356 84.3312 9.75294 84.2672 9.9272C84.1996 10.0979 84.1676 10.2829 84.1676 10.4785Z" fill="#005089"/>
<path d="M91.8139 7.99626C91.8139 7.94647 91.8281 7.90735 91.853 7.87534C91.8779 7.84689 91.917 7.8291 91.9703 7.8291H94.2429C94.4065 7.8291 94.5595 7.85044 94.7053 7.89668C94.8511 7.94291 94.9827 8.00337 95.1036 8.08517C95.2245 8.16341 95.3348 8.25944 95.4308 8.36969C95.5268 8.47994 95.6122 8.60086 95.6798 8.72889C95.7473 8.85693 95.8007 8.99207 95.8327 9.13433C95.8683 9.27659 95.886 9.41886 95.886 9.56467C95.886 9.77806 95.8469 9.98789 95.7687 10.1906C95.6904 10.3933 95.5802 10.5747 95.4379 10.7348C95.2957 10.8948 95.125 11.0228 94.9258 11.1224C94.7266 11.222 94.5061 11.2718 94.2643 11.2753H93.1867V12.9682C93.1867 13.0714 93.1333 13.1212 93.0231 13.1212H91.9668C91.9206 13.1212 91.8814 13.1069 91.853 13.082C91.8245 13.0571 91.8103 13.018 91.8103 12.9647V7.99626H91.8139ZM94.4955 9.554C94.4955 9.48287 94.4812 9.41174 94.4563 9.34061C94.4314 9.26948 94.3959 9.20547 94.3461 9.14856C94.2963 9.09166 94.243 9.04543 94.1718 9.00986C94.1007 8.9743 94.026 8.95651 93.9406 8.95651H93.1867V10.1444H93.9406C94.026 10.1444 94.1042 10.1266 94.1718 10.0946C94.2394 10.0626 94.2999 10.0163 94.3461 9.95944C94.3923 9.9061 94.4279 9.84208 94.4528 9.77095C94.4777 9.69982 94.4919 9.62514 94.4919 9.55045L94.4955 9.554Z" fill="#005089"/>
<path d="M99.4355 7.99626C99.4355 7.94647 99.4498 7.90735 99.4782 7.87534C99.5067 7.84689 99.5458 7.8291 99.5956 7.8291H101.957C102.167 7.8291 102.363 7.86823 102.547 7.95003C102.732 8.02827 102.896 8.13852 103.035 8.27722C103.173 8.41593 103.284 8.57952 103.365 8.76446C103.447 8.9494 103.486 9.15212 103.486 9.36551C103.486 9.54333 103.458 9.71049 103.405 9.86342C103.348 10.0163 103.269 10.1551 103.166 10.276C103.337 10.4325 103.472 10.6174 103.572 10.8343C103.671 11.0513 103.721 11.2789 103.721 11.5207C103.721 11.7377 103.678 11.9404 103.597 12.136C103.515 12.3281 103.401 12.4988 103.259 12.6446C103.117 12.7904 102.953 12.9078 102.764 12.9931C102.576 13.0785 102.377 13.1212 102.167 13.1212H99.5956C99.5494 13.1212 99.5102 13.1069 99.4818 13.082C99.4533 13.0571 99.4391 13.018 99.4391 12.9647V7.99626H99.4355ZM102.114 9.39752C102.114 9.32639 102.099 9.25881 102.074 9.19835C102.05 9.13789 102.01 9.08099 101.964 9.03475C101.918 8.98852 101.861 8.9494 101.794 8.92095C101.726 8.8925 101.655 8.87827 101.577 8.87827H100.812V9.90965H101.566C101.648 9.90965 101.722 9.89543 101.79 9.87053C101.858 9.84564 101.914 9.81007 101.964 9.76384C102.01 9.7176 102.05 9.66426 102.078 9.60024C102.106 9.53622 102.121 9.46865 102.121 9.3904L102.114 9.39752ZM102.302 11.4638C102.302 11.3927 102.288 11.3216 102.259 11.2505C102.231 11.1793 102.195 11.1153 102.146 11.0584C102.096 11.0015 102.039 10.9588 101.971 10.9197C101.904 10.8841 101.829 10.8664 101.751 10.8664H100.808V12.0542H101.751C101.829 12.0542 101.9 12.0364 101.968 12.0044C102.035 11.9724 102.092 11.9262 102.142 11.8693C102.192 11.8124 102.231 11.7484 102.259 11.6772C102.288 11.6061 102.302 11.5314 102.302 11.4567V11.4638Z" fill="#005089"/>
<path d="M108.743 7.97136C108.743 7.97136 108.754 7.94291 108.768 7.92513C108.782 7.90735 108.796 7.89312 108.818 7.87889C108.839 7.86467 108.857 7.854 108.878 7.84333C108.899 7.83622 108.921 7.8291 108.938 7.8291H109.849C109.888 7.8291 109.924 7.84333 109.952 7.86822C109.981 7.89312 110.002 7.91446 110.016 7.93224L110.105 8.13496L111.972 12.954C111.99 13.0002 111.986 13.0394 111.961 13.0714C111.937 13.0998 111.89 13.1176 111.826 13.1176H110.806C110.752 13.1176 110.71 13.1069 110.681 13.0856C110.653 13.0643 110.628 13.0323 110.61 12.986C110.564 12.8651 110.518 12.7442 110.471 12.6233C110.425 12.5023 110.382 12.3814 110.336 12.2605H108.448C108.401 12.3814 108.359 12.5023 108.313 12.6233C108.266 12.7442 108.22 12.8651 108.174 12.986C108.142 13.0749 108.081 13.1176 107.992 13.1176H106.943C106.897 13.1176 106.861 13.1069 106.829 13.082C106.797 13.0572 106.794 13.0216 106.812 12.9753L108.743 7.97136ZM109.39 9.49354C109.344 9.61446 109.301 9.74605 109.255 9.88476C109.209 10.0235 109.163 10.1657 109.116 10.308C109.07 10.4502 109.024 10.5925 108.978 10.7312C108.931 10.8699 108.885 11.0015 108.839 11.1224H109.931L109.387 9.4971L109.39 9.49354Z" fill="#005089"/>
<path d="M115.468 7.98915C115.468 7.94647 115.482 7.9109 115.507 7.87889C115.532 7.84688 115.571 7.83266 115.625 7.83266H116.788C116.82 7.83266 116.855 7.83977 116.891 7.85755C116.926 7.87534 116.958 7.90379 116.983 7.94291C117.286 8.43015 117.584 8.91028 117.88 9.37973C118.175 9.85275 118.477 10.3329 118.779 10.8166V7.96425C118.79 7.92157 118.808 7.88956 118.836 7.86467C118.865 7.83977 118.897 7.8291 118.936 7.8291H119.949C119.999 7.8291 120.042 7.84333 120.074 7.87178C120.106 7.90024 120.124 7.9358 120.124 7.98915V12.9789C120.124 13.0251 120.109 13.0607 120.081 13.0856C120.053 13.1105 120.013 13.1212 119.964 13.1212H118.829C118.797 13.1212 118.772 13.1105 118.747 13.0892C118.722 13.0678 118.698 13.0394 118.673 13.0038C118.356 12.481 118.047 11.9653 117.737 11.4567C117.428 10.9482 117.115 10.4325 116.798 9.90965V12.9682C116.798 13.0216 116.788 13.0607 116.763 13.0856C116.738 13.1105 116.695 13.1247 116.635 13.1247H115.625C115.571 13.1247 115.529 13.1105 115.504 13.0785C115.479 13.05 115.468 13.0145 115.468 12.9682V7.9927V7.98915Z" fill="#005089"/>
<path d="M124.057 7.9888C124.057 7.94612 124.071 7.91055 124.096 7.87854C124.125 7.84653 124.16 7.83231 124.21 7.83231H125.259C125.295 7.83231 125.334 7.84653 125.369 7.87499C125.405 7.90344 125.426 7.94256 125.426 7.9888V9.92708C125.686 9.59633 125.939 9.26913 126.187 8.94549C126.436 8.62185 126.689 8.29465 126.945 7.9639C126.97 7.92478 127.005 7.88921 127.048 7.86432C127.091 7.83942 127.13 7.8252 127.173 7.8252H128.524C128.581 7.8252 128.609 7.84298 128.609 7.87854C128.609 7.90344 128.595 7.93189 128.57 7.9639L126.895 10.1725L128.748 12.9608C128.773 12.9999 128.787 13.0319 128.787 13.0568C128.787 13.0924 128.762 13.1101 128.709 13.1101H127.365C127.326 13.1101 127.286 13.0995 127.244 13.0746C127.201 13.0497 127.173 13.0177 127.144 12.9786C127.02 12.8078 126.902 12.6442 126.799 12.4878C126.696 12.3313 126.596 12.1748 126.5 12.0183C126.404 11.8618 126.305 11.7053 126.205 11.5453C126.106 11.3852 125.995 11.2181 125.878 11.0438L125.426 11.5631V12.9501C125.426 13.0532 125.369 13.1066 125.256 13.1066H124.21C124.103 13.1066 124.05 13.0532 124.05 12.9501V7.97812L124.057 7.9888Z" fill="#005089"/>
<path d="M62.864 2.40919C62.9067 2.43764 62.921 2.41986 62.9494 2.39852C63.0028 2.3594 63.1308 2.21714 63.1984 2.14245C63.305 2.24559 63.4295 2.34517 63.5113 2.40919C63.5433 2.43408 63.554 2.43408 63.5753 2.40207C63.6714 2.28471 63.7674 2.17801 63.8705 2.06776C63.9061 2.0322 63.9061 2.02153 63.8705 2.00019C63.7567 1.92195 63.6358 1.80103 63.5327 1.68722C63.5113 1.66233 63.4971 1.67299 63.458 1.71211C63.4046 1.7619 63.2837 1.90061 63.2197 1.97885C63.1343 1.93262 62.985 1.79747 62.9067 1.70856C62.8783 1.67655 62.8605 1.67299 62.8392 1.69789C62.7325 1.80459 62.6186 1.93618 62.5368 2.0322C62.5084 2.06421 62.5084 2.07844 62.5297 2.10333C62.6151 2.21714 62.7573 2.33806 62.8676 2.40563L62.864 2.40919Z" fill="#A02225"/>
<path d="M64.461 3.90653C64.5819 3.74649 64.5997 3.54021 64.5997 3.35883C64.5997 2.94272 64.4219 2.59063 64.3472 2.59063C64.3365 2.59063 64.3259 2.6013 64.3187 2.61908C64.3116 2.63331 64.1658 2.94984 64.1658 3.03164C64.1658 3.03875 64.1658 3.0423 64.1658 3.04586C64.2334 3.14544 64.3828 3.38372 64.4005 3.58289C64.269 3.70736 63.9169 3.71448 63.6964 3.71448H62.3236C62.2062 3.6967 61.9786 3.75716 61.9786 3.20946C61.9786 2.40214 61.847 1.27473 61.8221 0.801712C61.815 0.670121 61.8114 0.627441 61.783 0.627441C61.7545 0.627441 61.7083 0.695017 61.6798 0.741252C61.5909 0.901294 61.4913 1.13247 61.4913 1.28184C61.4913 1.58414 61.7296 3.13833 61.7296 3.79628C61.7296 4.22306 62.1386 4.2195 62.1635 4.2195C62.1635 4.2195 62.1671 4.2195 62.1706 4.2195C62.4445 4.2195 63.8102 4.21594 63.8884 4.20527C64.1907 4.15904 64.3579 4.04524 64.4539 3.91009L64.461 3.90653Z" fill="#A02225"/>
<path d="M67.0572 1.19982C67.0821 1.21404 67.0893 1.21405 67.107 1.19271C67.1888 1.10024 67.3631 0.897515 67.42 0.826385C67.4378 0.808602 67.4449 0.797935 67.42 0.783709C67.2671 0.684127 67.107 0.545426 67.0252 0.452957C67.011 0.438731 67.0003 0.442288 66.9577 0.48141C66.8723 0.566766 66.7443 0.712579 66.6731 0.82283C66.6589 0.851282 66.6589 0.851285 66.6731 0.876181C66.73 0.965093 66.9506 1.13225 67.0537 1.19271L67.0572 1.19982Z" fill="#A02225"/>
<path d="M66.7515 1.82569C66.7942 1.85415 66.8084 1.83636 66.8368 1.81502C66.8902 1.7759 67.0182 1.63364 67.0858 1.55896C67.1925 1.66209 67.317 1.76168 67.3988 1.82569C67.4308 1.85059 67.4414 1.85059 67.4663 1.81858C67.5624 1.70121 67.6584 1.59452 67.7615 1.48427C67.7971 1.4487 67.7971 1.43803 67.7615 1.41669C67.6477 1.33845 67.5268 1.21753 67.4237 1.10373C67.4023 1.07883 67.3881 1.0895 67.349 1.12862C67.2956 1.17841 67.1747 1.31711 67.1107 1.39535C67.0253 1.34912 66.876 1.21398 66.7977 1.12506C66.7693 1.09305 66.7515 1.0895 66.7302 1.11439C66.6235 1.22109 66.5096 1.35267 66.4278 1.4487C66.3994 1.48071 66.3994 1.49494 66.4207 1.51983C66.5061 1.63364 66.6483 1.75456 66.7586 1.82213L66.7515 1.82569Z" fill="#A02225"/>
<path d="M67.157 1.97161C67.0112 1.97161 66.7125 2.48374 66.7125 2.87851C66.7125 3.16303 66.8654 3.30529 67.1037 3.30529C67.2886 3.30529 67.4522 3.20571 67.4949 3.08835C67.5376 3.18437 67.5625 3.26973 67.5625 3.36931C67.5625 3.52935 67.534 3.54714 67.3704 3.60404C67.189 3.66806 66.8618 3.71073 66.5702 3.71073H66.179C66.179 3.71073 66.1612 3.71429 66.1505 3.71429C66.1434 3.68228 66.1399 3.65027 66.1328 3.61827C66.0474 3.30529 65.8411 2.9283 65.7451 2.9283C65.7309 2.9283 65.7166 2.94253 65.6989 2.97099C65.6562 3.04923 65.5673 3.2804 65.5673 3.34086C65.5673 3.3622 65.5673 3.37287 65.5815 3.39065C65.642 3.49023 65.6846 3.55069 65.7558 3.65739C65.9585 3.95258 65.9727 4.14463 65.9727 4.17664C65.9727 4.20865 65.962 4.28688 65.9443 4.33312C65.8233 4.66032 65.3468 5.04798 65.1085 5.15823C64.9022 5.25425 64.7777 5.28626 64.6355 5.28626C64.4612 5.28626 64.2941 5.25069 64.23 5.25069C64.198 5.25069 64.166 5.26137 64.166 5.28626C64.166 5.3076 64.1731 5.33249 64.2443 5.36806C64.511 5.50321 64.9378 5.6099 65.1334 5.6099C65.1903 5.6099 65.2365 5.59923 65.2757 5.58501C65.802 5.36806 66.1292 4.86659 66.1754 4.20508C66.1754 4.20508 66.1826 4.20508 66.1861 4.20508H66.5773C66.7623 4.20508 67.0041 4.15885 67.3064 4.06283C67.4024 4.03437 67.5625 3.95613 67.6087 3.88145C67.7296 3.69651 67.8114 3.32308 67.8114 3.06345C67.8114 2.7078 67.5696 1.96094 67.157 1.96094V1.97161ZM67.157 2.80383C67.0503 2.80383 66.9401 2.76115 66.9401 2.66157C66.9401 2.64023 66.9508 2.60111 66.9828 2.55132C67.0219 2.48374 67.061 2.45529 67.1001 2.45529C67.1464 2.45529 67.2175 2.48019 67.2602 2.51931C67.3277 2.57266 67.3633 2.6758 67.3633 2.69713C67.3633 2.76471 67.2602 2.80383 67.157 2.80383Z" fill="#A02225"/>
<path d="M79.8321 1.43832C79.7788 1.48812 79.6579 1.62682 79.5938 1.70506C79.5085 1.65883 79.3591 1.52368 79.2809 1.43477C79.2524 1.40276 79.2346 1.39921 79.2133 1.4241C79.1066 1.5308 78.9928 1.66239 78.911 1.75841C78.8825 1.79042 78.8825 1.80465 78.9039 1.82954C78.9892 1.94335 79.1315 2.06427 79.2418 2.13185C79.2844 2.1603 79.2987 2.14252 79.3271 2.12118C79.3804 2.08205 79.5085 1.93979 79.5761 1.86511C79.6828 1.96825 79.8072 2.06783 79.889 2.13185C79.921 2.15674 79.9317 2.15674 79.9566 2.12473C80.0526 2.00737 80.1487 1.90067 80.2518 1.79042C80.2874 1.75485 80.2874 1.74418 80.2518 1.72285C80.138 1.6446 80.0171 1.52369 79.9139 1.40988C79.8926 1.38498 79.8784 1.39565 79.8392 1.43477L79.8321 1.43832Z" fill="#A02225"/>
<path d="M79.5477 1.43127C79.5726 1.44549 79.5797 1.44549 79.5975 1.42415C79.6793 1.33169 79.8536 1.12897 79.9105 1.05784C79.9283 1.04005 79.9354 1.02939 79.9105 1.01516C79.7576 0.915577 79.5975 0.776871 79.5157 0.684402C79.5015 0.670176 79.4908 0.673734 79.4481 0.712855C79.3628 0.798211 79.2348 0.94403 79.1636 1.05428C79.1494 1.08273 79.1494 1.08273 79.1636 1.10763C79.2205 1.19654 79.441 1.36369 79.5442 1.42415L79.5477 1.43127Z" fill="#A02225"/>
<path d="M82.7593 4.78823C82.7593 4.78823 82.738 4.774 82.6918 4.80957C82.5957 4.88425 82.4535 5.01584 82.3717 5.11542C82.3539 5.14032 82.3539 5.14387 82.3646 5.16877C82.4108 5.2648 82.6135 5.45684 82.706 5.52797C82.7273 5.54576 82.738 5.54576 82.7558 5.52797C82.8483 5.44617 83.0439 5.26124 83.1079 5.20078C83.1292 5.18655 83.1363 5.17233 83.115 5.1581C82.9727 5.04074 82.834 4.88425 82.7593 4.78467V4.78823Z" fill="#A02225"/>
<path d="M86.4865 1.77979C86.5291 1.80825 86.5434 1.79046 86.5718 1.76913C86.6252 1.73 86.7532 1.58774 86.8208 1.51306C86.9275 1.6162 87.052 1.71578 87.1338 1.77979C87.1658 1.80469 87.1764 1.80469 87.2013 1.77268C87.2974 1.65532 87.3934 1.54862 87.4965 1.43837C87.5321 1.4028 87.5321 1.39214 87.4965 1.3708C87.3827 1.29256 87.2618 1.17163 87.1587 1.05783C87.1373 1.03293 87.1231 1.0436 87.084 1.08272C87.0306 1.13251 86.9097 1.27121 86.8457 1.34946C86.7603 1.30322 86.6109 1.16808 86.5327 1.07916C86.5043 1.04716 86.4865 1.0436 86.4651 1.0685C86.3584 1.17519 86.2446 1.30678 86.1628 1.40281C86.1344 1.43482 86.1344 1.44904 86.1557 1.47394C86.2411 1.58774 86.3833 1.70867 86.4936 1.77624L86.4865 1.77979Z" fill="#A02225"/>
<path d="M87.0376 4.07347C87.1336 4.04502 87.2937 3.96678 87.3399 3.89209C87.4608 3.70715 87.5426 3.33372 87.5426 3.0741C87.5426 2.71845 87.3008 1.97158 86.8882 1.97158C86.7424 1.97158 86.4437 2.48372 86.4437 2.87849C86.4437 3.16301 86.5966 3.30527 86.8349 3.30527C87.0198 3.30527 87.1834 3.20568 87.2261 3.08832C87.2688 3.18434 87.2937 3.2697 87.2937 3.36928C87.2937 3.52933 87.2652 3.54711 87.1016 3.60401C86.9345 3.66092 86.2196 3.70359 85.8853 3.71071C85.928 3.61112 85.9564 3.50088 85.9707 3.38707C86.0062 3.09188 85.96 2.83937 85.8604 2.62242C85.8391 2.57618 85.8142 2.54773 85.7928 2.54418C85.7324 2.53706 85.5652 2.8038 85.5332 2.90694C85.5261 2.93183 85.5297 2.93895 85.5332 2.96028C85.5937 3.08832 85.7324 3.31949 85.7075 3.53644C85.7075 3.56489 85.6968 3.59334 85.6897 3.62179C85.2594 3.92409 82.8232 3.97389 80.5221 3.72849C80.3905 3.68937 80.2625 3.61113 80.138 3.4902C80.3301 3.34794 80.4154 3.13455 80.4154 2.97807C80.4154 2.91049 80.3976 2.85004 80.3656 2.81803C80.2163 2.66154 80.0135 2.5833 79.793 2.5833C79.5725 2.5833 79.3307 2.6651 79.1173 2.82514C79.0533 2.87138 79.0142 3.06342 79.0142 3.17723C79.0142 3.22702 79.0213 3.26259 79.0391 3.26614C79.1778 3.29104 79.4338 3.3515 79.5441 3.50443C79.2133 3.68937 78.9608 3.7605 78.566 3.7605H78.5269C78.5269 3.7605 78.5127 3.7605 78.5056 3.7605C78.502 3.7605 78.4949 3.75338 78.4914 3.74983C78.1179 3.68937 77.837 3.23414 77.8334 3.20568C77.8796 2.55485 77.0403 1.82577 76.7807 1.67995C76.9123 1.58037 77.1897 1.43455 77.6165 1.23894C77.9828 1.06823 78.3811 0.908189 78.7047 0.794381C78.7581 0.776598 78.7723 0.762371 78.7865 0.737476C78.8612 0.612998 78.911 0.527646 78.9466 0.424508C78.9466 0.417395 78.9537 0.410279 78.9537 0.39961C78.9537 0.392497 78.9537 0.388943 78.9466 0.385386C78.9359 0.37116 78.9146 0.356934 78.8897 0.356934H78.8826C78.8826 0.356934 78.8506 0.364046 78.8399 0.367603C78.4771 0.49208 78.0503 0.662793 77.7018 0.819279C77.4244 0.943756 77.1328 1.08602 76.8269 1.27451C76.5744 1.43455 76.5246 1.5128 76.4926 1.58748C76.4321 1.7333 76.3966 1.93958 76.4748 2.03204C76.5068 2.07117 76.5673 2.10673 76.6598 2.15652C76.8945 2.28811 77.4422 2.70422 77.5169 3.4333C77.5169 3.44753 77.4955 3.46887 77.4849 3.47598C77.4457 3.50088 77.4031 3.52222 77.3604 3.54356C76.6278 3.8672 74.4476 4.1695 72.3102 4.1695C71.5384 4.1695 69.6713 4.04502 68.5012 3.7036C68.3589 3.66092 68.2487 3.63958 68.2487 3.69648C68.2487 3.73205 68.2913 3.78184 68.43 3.87786C68.6434 4.02368 69.2303 4.39711 69.874 4.52159C70.4075 4.62473 71.4993 4.69586 72.1395 4.69586C74.2627 4.69586 75.856 4.48958 76.9336 4.1695C77.1861 4.09481 77.524 4.0059 77.7018 3.72138C77.716 3.70004 77.9294 4.17661 78.4024 4.24062C78.438 4.25485 78.4771 4.26552 78.5234 4.26552C78.751 4.26552 78.9501 4.22995 79.1244 4.16238C79.2809 4.09836 79.4907 3.95255 79.7504 3.72138C79.857 3.8992 79.9317 3.98456 80.106 4.09125C80.17 4.13037 80.2376 4.15882 80.3087 4.18372V4.19083H80.3372C80.451 4.23351 80.5755 4.25841 80.7071 4.26552H80.7568C80.7924 4.26552 80.8244 4.25841 80.8493 4.24774C82.6667 4.43268 83.9435 4.43268 84.9499 4.25485C85.0353 4.24063 85.1313 4.22284 85.2274 4.19795L85.519 4.21929C85.7039 4.21929 86.7175 4.17305 87.0163 4.07703L87.0376 4.07347ZM86.8882 2.8038C86.7815 2.8038 86.6713 2.76112 86.6713 2.66154C86.6713 2.6402 86.682 2.60108 86.714 2.55129C86.7531 2.48372 86.7922 2.45526 86.8313 2.45526C86.8776 2.45526 86.9487 2.48016 86.9914 2.51928C87.059 2.57263 87.0945 2.67577 87.0945 2.69711C87.0945 2.76468 86.9914 2.8038 86.8882 2.8038ZM79.9388 3.25903C79.7824 3.07054 79.3414 3.10254 79.761 3.03853C80.1807 2.97451 79.9388 3.25903 79.9388 3.25903Z" fill="#A02225"/>
<path d="M86.7924 1.0968C86.8173 1.11102 86.8244 1.11102 86.8421 1.08968C86.9239 0.997212 87.0982 0.794493 87.1551 0.723363C87.1729 0.70558 87.18 0.694913 87.1551 0.680687C87.0022 0.581105 86.8421 0.442399 86.7603 0.34993C86.7461 0.335704 86.7354 0.339261 86.6928 0.378382C86.6074 0.463738 86.4794 0.609557 86.4083 0.719808C86.394 0.74826 86.394 0.748258 86.4083 0.773153C86.4652 0.862066 86.6857 1.02922 86.7888 1.08968L86.7924 1.0968Z" fill="#A02225"/>
<path d="M88.3215 2.82534C88.197 2.82534 88.0441 3.0245 87.9303 3.24145C87.845 3.40505 87.788 3.58287 87.788 3.70023C87.788 4.0132 87.9623 4.16614 88.2362 4.16614C88.4033 4.16614 88.5136 4.07011 88.574 3.91362C88.6345 4.02387 88.6594 4.13057 88.6594 4.23371C88.6594 4.56446 88.3891 4.85965 88.0512 5.0766C87.7454 5.27576 87.5355 5.36823 87.3293 5.36823C87.1728 5.36823 86.9665 5.32555 86.9309 5.32555C86.8705 5.32555 86.8456 5.33978 86.8456 5.36467C86.8456 5.39313 86.8705 5.41802 86.9416 5.45003C87.2368 5.58162 87.596 5.6812 87.8129 5.6812C87.8699 5.6812 87.9161 5.67053 87.9516 5.65986C88.6167 5.4038 88.8621 4.84187 88.8621 3.97408C88.8621 3.68245 88.8337 3.49752 88.759 3.29835C88.6523 3.02095 88.4638 2.82178 88.3144 2.82178L88.3215 2.82534ZM88.2753 3.66467C88.1615 3.66467 88.0228 3.60421 88.0228 3.52597C88.0228 3.49752 88.0512 3.44417 88.069 3.41572C88.1046 3.36237 88.1544 3.31613 88.2113 3.31613C88.2753 3.31613 88.4282 3.41927 88.4353 3.5722C88.4247 3.62199 88.3571 3.66111 88.2717 3.66111L88.2753 3.66467Z" fill="#A02225"/>
<path d="M89.3709 0.627441C89.3424 0.627441 89.2962 0.695017 89.2677 0.741252C89.1788 0.901294 89.0792 1.13247 89.0792 1.28184C89.0792 1.58414 89.3175 3.41218 89.3175 4.07013C89.3175 4.18394 89.3282 4.21595 89.3495 4.21595C89.3886 4.21595 89.4278 4.13059 89.4847 3.96699C89.538 3.80695 89.5629 3.5331 89.5629 3.20946C89.5629 2.40214 89.4313 1.27473 89.4064 0.801712C89.3993 0.670121 89.3957 0.627441 89.3673 0.627441H89.3709Z" fill="#A02225"/>
<path d="M91.0637 3.14159C91.0637 3.14159 91.0637 3.09535 91.0637 3.0918C90.9393 3.09891 90.3382 3.11669 90.1213 3.12025C90.0964 3.12025 90.0608 3.3123 90.0573 3.38343C90.0573 3.39054 90.0573 3.42966 90.0573 3.42966C90.1568 3.43678 90.9464 3.41899 90.9891 3.40121C91.0104 3.39054 91.0602 3.20205 91.0637 3.14159Z" fill="#A02225"/>
<path d="M95.8683 0.637832C95.8434 0.637832 95.7936 0.659172 95.7652 0.666284C95.5233 0.75164 94.901 0.972144 94.2821 1.30645C93.9692 1.47717 93.8056 1.59453 93.6562 1.7439C93.5886 1.81148 93.5708 1.9324 93.5708 2.04621C93.5708 2.13512 93.5815 2.19202 93.6064 2.2347C93.6384 2.28449 93.6918 2.3165 93.7487 2.3414C94.1577 2.54056 94.6698 3.05269 94.6769 3.35855C94.5702 3.4688 94.0438 3.61462 93.3752 3.61462H92.4221C92.4079 3.50081 92.3794 3.40123 92.3403 3.29809C92.2336 3.02069 92.0451 2.82152 91.8957 2.82152C91.7712 2.82152 91.6183 3.02069 91.5045 3.23763C91.4192 3.40123 91.3622 3.57905 91.3622 3.69642C91.3622 4.00939 91.5365 4.16232 91.8104 4.16232C91.9775 4.16232 92.2372 4.03429 92.2372 4.22989C92.2372 4.56065 91.9669 4.85583 91.629 5.07278C91.3231 5.27194 91.1133 5.36442 90.907 5.36442C90.7505 5.36442 90.5443 5.32174 90.5087 5.32174C90.4482 5.32174 90.4233 5.33596 90.4233 5.36086C90.4233 5.38931 90.4482 5.41421 90.5194 5.44621C90.8146 5.5778 91.1738 5.67739 91.3907 5.67739C91.4476 5.67739 91.4938 5.66672 91.5294 5.65605C92.1553 5.4142 92.4079 4.89851 92.4363 4.11253H93.3788C93.8625 4.11253 94.2608 4.02717 94.5702 3.85291C94.7587 3.67508 94.8618 3.41901 94.8618 3.07759C94.8618 2.73616 94.3853 2.14223 93.8945 1.88972C94.403 1.54118 95.5411 1.10018 95.6905 1.04683C95.7047 1.03972 95.719 1.02905 95.7296 1.01126C95.7723 0.936579 95.8826 0.733862 95.8826 0.659175C95.8826 0.644949 95.8754 0.634277 95.8612 0.634277L95.8683 0.637832ZM91.853 3.66441C91.7392 3.66441 91.6005 3.60395 91.6005 3.52571C91.6005 3.49726 91.629 3.44391 91.6503 3.41546C91.6859 3.36211 91.7357 3.31587 91.7926 3.31587C91.8602 3.31587 92.0131 3.41901 92.0166 3.57194C92.006 3.62173 91.9384 3.66085 91.853 3.66085V3.66441Z" fill="#A02225"/>
<path d="M60.5845 2.8501C60.2715 2.8501 60.0652 3.37646 60.0652 3.70721C60.0652 3.73211 60.0652 3.75345 60.0652 3.77479C59.9799 3.85659 59.8163 4.0024 59.8163 4.42563C59.8163 4.53944 59.827 4.67103 59.859 4.83107C59.9585 5.38944 60.0652 5.98337 60.0652 6.4884C60.0652 6.58442 60.0652 6.64844 60.0652 6.71601C60.0652 6.81204 60.0723 6.84404 60.0972 6.84404C60.1506 6.84404 60.2537 6.6271 60.2786 6.26078C60.2857 6.17898 60.2857 6.09362 60.2857 6.01538C60.2857 5.14404 60.083 4.44697 60.083 4.26914C60.1044 4.13044 60.5347 4.04508 60.8903 4.04508C61.0611 4.04508 61.1535 4.06998 61.2211 4.08776C61.2282 4.08776 61.246 4.09487 61.2495 4.09487C61.2602 4.09487 61.2709 4.08776 61.2851 4.07353C61.3705 3.98106 61.4487 3.77479 61.4701 3.62186C61.4701 3.59696 61.4701 3.5863 61.4594 3.57563C61.2744 3.30178 60.9686 2.85366 60.5809 2.85366L60.5845 2.8501ZM60.2715 3.66098C60.3 3.55428 60.3533 3.40847 60.4849 3.40847C60.6023 3.40847 60.6876 3.45826 60.773 3.54006C60.6485 3.55073 60.4031 3.57207 60.2715 3.66098Z" fill="#A02225"/>
<path d="M40.5191 20.1102L37.5814 20.1031V16.0664H44.6055L46.7999 13.8721V10.7673L44.6055 8.56935H37.5885V5.61035H45.8289L49.7589 9.54027V15.0991L45.8289 19.029H40.5226L40.5191 20.1102Z" fill="#A02225"/>
<path d="M17.5264 24.2924H7.00629L0 17.2861V7.38129L7.00629 0.375H17.5264V3.334H8.23328L2.96256 8.60828V16.0627L8.23328 21.305H17.5264V24.2924Z" fill="#005089"/>
<path d="M47.9629 24.2924H34.2277L37.2365 21.305H46.7644L52.0066 16.0627V8.60828L46.7359 3.334H37.1618L34.2135 0.375H47.9629L54.9692 7.38129V17.2861L47.9629 24.2924Z" fill="#005089"/>
<path d="M25.2012 19.0469H9.28944L5.35596 15.1134V9.55102L9.28944 5.62109H25.2012L27.1893 7.60562L25.0945 9.70039L23.9742 8.58009H10.5164L8.31852 10.778V13.8864L10.5164 16.0843H23.9742L25.0874 14.9711L27.1822 17.0659L25.2012 19.0469Z" fill="#A02225"/>
<path d="M35.924 4.4437L31.8554 0.36084H19.1907V4.22675H30.255L32.0652 6.04412V8.61547L30.2621 10.4257H19.1943L19.1801 14.3201V24.3423L31.8518 24.3209L35.9205 20.2523V14.4979L33.783 12.3605L35.9205 10.2194V4.44725L35.924 4.4437ZM23.0566 20.4621V14.2987H30.2763L32.0688 16.0912V18.6519L30.2585 20.4621H23.0566Z" fill="#005089"/>
</svg>
