<svg width="24" height="24" viewBox="0 0 24 24" fill="none" xmlns="http://www.w3.org/2000/svg">
<path d="M18.8921 10.2833C18.9322 10.2514 18.9715 10.2202 19.0099 10.1895M18.8921 10.2833L19.0099 10.1895M18.8921 10.2833V10.1895H19.0099M18.8921 10.2833L19.0099 10.1895M19.1277 6.65625V6.53847H19.0099H4.65576H4.53798V6.65625V8.06423V8.12021L4.58139 8.15556C5.35613 8.78648 6.59066 9.76698 9.227 11.8313C9.31981 11.9044 9.43086 11.997 9.55466 12.1003C9.80456 12.3087 10.1064 12.5605 10.4152 12.7818C10.6485 12.949 10.8921 13.1038 11.1307 13.2163C11.3673 13.328 11.6076 13.4021 11.8329 13.3989C12.0581 13.4021 12.2984 13.3279 12.5351 13.2163C12.7736 13.1038 13.0172 12.949 13.2505 12.7818C13.5591 12.5606 13.861 12.3088 14.1109 12.1004C14.2347 11.9971 14.3458 11.9044 14.4387 11.8314C17.0754 9.76667 18.3097 8.78638 19.0843 8.15556L19.1277 8.12021V8.06423V6.65625ZM4.53798 16.5938V16.7115H4.65576H19.0099H19.1277V16.5938V10.1895V9.94517L18.9365 10.0974C18.1462 10.7269 17.025 11.6106 15.3161 12.9488L15.3159 12.949C15.2 13.0401 15.075 13.1442 14.9411 13.2556C14.6142 13.5275 14.2344 13.8435 13.8072 14.1236C13.2076 14.5169 12.5366 14.8235 11.8335 14.8197L11.8322 14.8197C11.1257 14.8235 10.4487 14.5123 9.84682 14.1166C9.41873 13.8351 9.0401 13.5193 8.71813 13.2508C8.58547 13.1402 8.46243 13.0376 8.34952 12.9487L8.34928 12.9485C6.64035 11.6103 5.51941 10.7268 4.72914 10.0974L4.53798 9.94513V10.1895V16.5938ZM4.65576 5.11778H19.0099C19.8596 5.11778 20.5484 5.80656 20.5484 6.65625V16.5938C20.5484 17.4434 19.8596 18.1322 19.0099 18.1322H4.65576C3.80608 18.1322 3.11729 17.4434 3.11729 16.5938V6.65625C3.11729 5.80656 3.80608 5.11778 4.65576 5.11778Z" fill="#005089" stroke="white" stroke-width="0.235556"/>
</svg>
