<svg width="24" height="24" viewBox="0 0 24 24" fill="none" xmlns="http://www.w3.org/2000/svg">
<path d="M17.4877 3.00001C17.4877 2.6065 17.8067 2.28751 18.2002 2.28751H22.0002C22.3937 2.28751 22.7127 2.6065 22.7127 3.00001V6.80001C22.7127 7.19351 22.3937 7.51251 22.0002 7.51251C21.6067 7.51251 21.2877 7.19351 21.2877 6.80001V4.56077L17.6742 8.17427C17.4399 8.40858 17.06 8.40858 16.8256 8.17427C16.5913 7.93996 16.5913 7.56006 16.8256 7.32574L20.4389 3.71251H18.2002C17.8067 3.71251 17.4877 3.39351 17.4877 3.00001Z" fill="#005089"/>
<path d="M3.5999 12.5C3.5999 7.58738 7.58727 3.60001 12.4999 3.60001C12.8313 3.60001 13.0999 3.33138 13.0999 3.00001C13.0999 2.66864 12.8313 2.40001 12.4999 2.40001C6.92453 2.40001 2.3999 6.92463 2.3999 12.5C2.3999 18.0754 6.92453 22.6 12.4999 22.6C18.0753 22.6 22.5999 18.0754 22.5999 12.5C22.5999 12.1686 22.3313 11.9 21.9999 11.9C21.6685 11.9 21.3999 12.1686 21.3999 12.5C21.3999 17.4126 17.4125 21.4 12.4999 21.4C7.58727 21.4 3.5999 17.4126 3.5999 12.5Z" fill="#005089"/>
<path d="M11.7255 6.00469C12.1673 6.00469 12.5255 6.36287 12.5255 6.80469V7.56556H12.7797C14.3497 7.56556 15.5752 8.88733 15.5752 10.4614C15.5752 10.848 15.2618 11.1614 14.8752 11.1614C14.4886 11.1614 14.1752 10.848 14.1752 10.4614C14.1752 9.60122 13.5185 8.96556 12.7797 8.96556H10.4208C9.83973 8.96556 9.3014 9.48077 9.3014 10.1854C9.3014 10.6623 9.40416 10.8806 9.49542 10.9968C9.59318 11.1213 9.75664 11.2306 10.0763 11.3446L13.851 12.6613L13.8551 12.6628C14.2789 12.8136 14.7343 13.0407 15.0709 13.4717C15.4136 13.9107 15.5626 14.4687 15.5626 15.1416C15.5626 16.5607 14.4669 17.7614 13.0432 17.7614H12.5255V18.194C12.5255 18.6359 12.1673 18.994 11.7255 18.994C11.2837 18.994 10.9255 18.6359 10.9255 18.194V17.7614H10.6843C9.11431 17.7614 7.88884 16.4397 7.88884 14.8656C7.88884 14.479 8.20224 14.1656 8.58884 14.1656C8.97544 14.1656 9.28884 14.479 9.28884 14.8656C9.28884 15.7258 9.94551 16.3614 10.6843 16.3614H11.5731C11.6224 16.3519 11.6734 16.3469 11.7255 16.3469C11.7776 16.3469 11.8286 16.3519 11.8779 16.3614H13.0432C13.6272 16.3614 14.1626 15.8557 14.1626 15.1416C14.1626 14.6728 14.0607 14.4528 13.9674 14.3334C13.8682 14.2063 13.703 14.0949 13.3877 13.9824L9.61304 12.6657L9.60887 12.6642C9.18956 12.515 8.7324 12.2919 8.39435 11.8615C8.04959 11.4224 7.9014 10.8628 7.9014 10.1854C7.9014 8.78191 8.99423 7.56556 10.4208 7.56556H10.9255V6.80469C10.9255 6.36287 11.2837 6.00469 11.7255 6.00469Z" fill="#005089"/>
</svg>
