<svg width="25" height="25" viewBox="0 0 25 25" fill="none" xmlns="http://www.w3.org/2000/svg">
<circle cx="13.1666" cy="11.998" r="9" stroke="white"/>
<path d="M13.6763 7.0554C13.6763 7.35367 13.4345 7.59547 13.1363 7.59547C12.838 7.59547 12.5962 7.35367 12.5962 7.0554V5.96096C12.5962 5.66269 12.838 5.4209 13.1363 5.4209C13.4345 5.4209 13.6763 5.66269 13.6763 5.96096V7.0554ZM13.5404 18.479C13.5404 18.7734 13.3018 19.012 13.0075 19.012C12.7132 19.012 12.4746 18.7734 12.4746 18.479V17.6421C12.4746 17.3478 12.7132 17.1092 13.0075 17.1092C13.3018 17.1092 13.5404 17.3478 13.5404 17.6421V18.479ZM14.9639 14.8416C14.9639 14.5555 14.8995 14.298 14.7708 14.0691C14.642 13.8402 14.4298 13.6304 14.1341 13.4396C13.8432 13.2441 13.4498 13.0653 12.9539 12.9031C12.353 12.7172 11.8332 12.4906 11.3945 12.2236C10.9605 11.9565 10.6243 11.6275 10.3859 11.2364C10.1522 10.8406 10.0354 10.3614 10.0354 9.79865C10.0354 9.21209 10.1617 8.7066 10.4145 8.28217C10.6672 7.85775 11.0249 7.53109 11.4875 7.30219C11.95 7.07328 12.4937 6.95883 13.1184 6.95883C13.7669 6.95883 14.3201 7.08759 14.7779 7.34511C15.2405 7.60262 15.5934 7.98174 15.8366 8.48246C16.0113 8.83179 16.1244 9.23671 16.176 9.69723C16.2136 10.0322 15.9353 10.3065 15.5981 10.3065H15.4885C15.1514 10.3065 14.8865 10.0308 14.8269 9.69902C14.7598 9.32528 14.6267 9.00083 14.4274 8.72567C14.127 8.31079 13.6906 8.10334 13.1184 8.10334C12.7226 8.10334 12.3935 8.17488 12.1312 8.31794C11.8737 8.45623 11.683 8.65176 11.559 8.9045C11.435 9.15248 11.373 9.44337 11.373 9.77719C11.373 10.0824 11.435 10.3494 11.559 10.5783C11.683 10.8072 11.8928 11.0147 12.1885 11.2007C12.4889 11.3819 12.899 11.5607 13.4188 11.7372C14.034 11.9327 14.5562 12.164 14.9854 12.431C15.4146 12.6933 15.7412 13.0176 15.9653 13.4039C16.1895 13.7901 16.3015 14.2646 16.3015 14.8273C16.3015 15.4425 16.1633 15.9623 15.8867 16.3867C15.6101 16.8064 15.2214 17.1259 14.7207 17.3453C14.2247 17.5646 13.6382 17.6743 12.961 17.6743C12.5557 17.6743 12.1551 17.6195 11.7593 17.5098C11.3635 17.4001 11.0058 17.2213 10.6863 16.9733C10.3668 16.7253 10.1117 16.3963 9.9209 15.9862C9.79787 15.7186 9.71452 15.4113 9.67084 15.0644C9.62873 14.7299 9.90806 14.4554 10.2452 14.4554H10.362C10.6991 14.4554 10.9615 14.7315 11.0242 15.0627C11.0525 15.2124 11.0925 15.3486 11.1441 15.4711C11.2633 15.7382 11.4207 15.9504 11.6162 16.1078C11.8117 16.2604 12.0263 16.37 12.26 16.4368C12.4937 16.4988 12.7273 16.5298 12.961 16.5298C13.3854 16.5298 13.7455 16.4607 14.0411 16.3224C14.3416 16.1841 14.5705 15.9885 14.7278 15.7358C14.8852 15.483 14.9639 15.185 14.9639 14.8416Z" fill="white"/>
</svg>
