<svg width="24" height="24" viewBox="0 0 24 24" fill="none" xmlns="http://www.w3.org/2000/svg">
<path d="M12 12C14.3672 12 16.2857 10.0815 16.2857 7.71427C16.2857 5.34709 14.3672 3.42856 12 3.42856C9.63281 3.42856 7.71429 5.34709 7.71429 7.71427C7.71429 10.0815 9.63281 12 12 12ZM15 13.0714H14.4408C13.6975 13.4129 12.8705 13.6071 12 13.6071C11.1295 13.6071 10.3058 13.4129 9.55915 13.0714H9C6.51562 13.0714 4.5 15.087 4.5 17.5714V18.9643C4.5 19.8515 5.21987 20.5714 6.10714 20.5714H17.8929C18.7801 20.5714 19.5 19.8515 19.5 18.9643V17.5714C19.5 15.087 17.4844 13.0714 15 13.0714Z" fill="#005089"/>
</svg>
