<svg width="25" height="25" viewBox="0 0 25 25" fill="none" xmlns="http://www.w3.org/2000/svg">
<path d="M17.8301 6.02441C18.2585 6.02441 18.6058 6.37171 18.6058 6.80012V14.775C18.6058 15.2034 18.2585 15.5507 17.8301 15.5507H16.0883V17.2016C16.0883 17.8182 15.4037 18.1884 14.8878 17.8507L11.5675 15.6774C11.4412 15.5947 11.2936 15.5507 11.1426 15.5507H7.19307C6.76466 15.5507 6.41736 15.2034 6.41736 14.775V6.80013C6.41736 6.37171 6.76466 6.02441 7.19307 6.02441H17.8301ZM7.37639 14.6486H11.6936L15.0212 16.6718V14.6486H17.637V11.167V6.9818H12.5101H7.37539V14.4936L7.37639 14.6486Z" fill="#005089"/>
<path d="M14.1208 9.28475C14.1208 9.59126 13.9918 9.92197 13.7336 10.2769L13.1126 11.148C13.0158 11.2824 12.9674 11.4276 12.9674 11.5836V11.8256H12.1446V11.5432C12.1446 11.2529 12.236 10.9867 12.4189 10.7447L13.048 9.89777C13.2147 9.6773 13.2981 9.47296 13.2981 9.28475C13.2981 9.05353 13.2228 8.86263 13.0722 8.71206C12.927 8.55612 12.7388 8.47815 12.5076 8.47815C12.2656 8.47815 12.0747 8.55881 11.9349 8.72013C11.7951 8.87607 11.7252 9.06697 11.7252 9.29282H10.9025C10.9025 8.84112 11.0557 8.47008 11.3622 8.17971C11.6687 7.88933 12.0505 7.74414 12.5076 7.74414C12.9593 7.74414 13.3411 7.88664 13.653 8.17164C13.9649 8.45126 14.1208 8.8223 14.1208 9.28475ZM13.0077 13.5355H12.0962V12.6564H13.0077V13.5355Z" fill="#005089"/>
</svg>
