<svg width="24" height="24" viewBox="0 0 24 24" fill="none" xmlns="http://www.w3.org/2000/svg">
<path fill-rule="evenodd" clip-rule="evenodd" d="M5.76347 4.23645C4.92005 4.23645 4.23633 4.92018 4.23633 5.76359V8.05431C4.23633 8.89773 4.92005 9.58145 5.76347 9.58145H8.05419C8.8976 9.58145 9.58133 8.89773 9.58133 8.05431V5.76359C9.58133 4.92018 8.8976 4.23645 8.05419 4.23645H5.76347ZM5.76347 5.76359H8.05419V8.05431H5.76347V5.76359Z" fill="black"/>
<path fill-rule="evenodd" clip-rule="evenodd" d="M15.6902 4.23645C14.8468 4.23645 14.1631 4.92018 14.1631 5.76359V8.05431C14.1631 8.89773 14.8468 9.58145 15.6902 9.58145H17.9809C18.8244 9.58145 19.5081 8.89773 19.5081 8.05431V5.76359C19.5081 4.92018 18.8244 4.23645 17.9809 4.23645H15.6902ZM15.6902 5.76359H17.9809V8.05431H15.6902V5.76359Z" fill="black"/>
<path fill-rule="evenodd" clip-rule="evenodd" d="M4.23633 15.6904C4.23633 14.8469 4.92005 14.1632 5.76347 14.1632H8.05419C8.8976 14.1632 9.58133 14.8469 9.58133 15.6904V17.9811C9.58133 18.8245 8.8976 19.5082 8.05419 19.5082H5.76347C4.92005 19.5082 4.23633 18.8245 4.23633 17.9811V15.6904ZM8.05419 15.6904H5.76347V17.9811H8.05419V15.6904Z" fill="black"/>
<path d="M16.4538 14.1632C15.8463 14.1632 15.2636 14.4046 14.834 14.8341C14.4044 15.2637 14.1631 15.8464 14.1631 16.4539V18.7446C14.1631 19.1663 14.5049 19.5082 14.9267 19.5082C15.3484 19.5082 15.6902 19.1663 15.6902 18.7446V16.4539C15.6902 16.2514 15.7707 16.0572 15.9139 15.914C16.0571 15.7708 16.2513 15.6904 16.4538 15.6904H18.7445C19.1662 15.6904 19.5081 15.3485 19.5081 14.9268C19.5081 14.5051 19.1662 14.1632 18.7445 14.1632H16.4538Z" fill="black"/>
<path d="M18.744 17.9806C19.1657 17.9806 19.5076 18.3225 19.5076 18.7442V18.7524C19.5076 19.1741 19.1657 19.5159 18.744 19.5159C18.3223 19.5159 17.9805 19.1741 17.9805 18.7524V18.7442C17.9805 18.3225 18.3223 17.9806 18.744 17.9806Z" fill="black"/>
<path d="M12.636 8.05471C12.636 7.633 12.2942 7.29114 11.8724 7.29114C11.4507 7.29114 11.1089 7.633 11.1089 8.05471V10.3454C11.1089 10.5479 11.0284 10.7422 10.8852 10.8854C10.742 11.0285 10.5478 11.109 10.3453 11.109H8.05459C7.63288 11.109 7.29102 11.4509 7.29102 11.8726C7.29102 12.2943 7.63288 12.6361 8.05459 12.6361H10.3453C10.9528 12.6361 11.5355 12.3948 11.9651 11.9652C12.3947 11.5356 12.636 10.953 12.636 10.3454V8.05471Z" fill="black"/>
<path d="M4.23633 11.8721C4.23633 11.4504 4.57819 11.1085 4.9999 11.1085H5.00809C5.4298 11.1085 5.77166 11.4504 5.77166 11.8721C5.77166 12.2938 5.4298 12.6357 5.00809 12.6357H4.9999C4.57819 12.6357 4.23633 12.2938 4.23633 11.8721Z" fill="black"/>
<path d="M11.872 4.23645C11.4503 4.23645 11.1084 4.57831 11.1084 5.00002C11.1084 5.42173 11.4503 5.76359 11.872 5.76359H11.8802C12.3019 5.76359 12.6437 5.42173 12.6437 5.00002C12.6437 4.57831 12.3019 4.23645 11.8802 4.23645H11.872Z" fill="black"/>
<path d="M11.872 14.1632C12.2937 14.1632 12.6355 14.5051 12.6355 14.9268V14.935C12.6355 15.3567 12.2937 15.6985 11.872 15.6985C11.4503 15.6985 11.1084 15.3567 11.1084 14.935V14.9268C11.1084 14.5051 11.4503 14.1632 11.872 14.1632Z" fill="black"/>
<path d="M14.9267 11.1085C14.5049 11.1085 14.1631 11.4504 14.1631 11.8721C14.1631 12.2938 14.5049 12.6357 14.9267 12.6357H15.6902C16.1119 12.6357 16.4538 12.2938 16.4538 11.8721C16.4538 11.4504 16.1119 11.1085 15.6902 11.1085H14.9267Z" fill="black"/>
<path d="M18.744 11.1085C19.1657 11.1085 19.5076 11.4504 19.5076 11.8721V11.8803C19.5076 12.302 19.1657 12.6439 18.744 12.6439C18.3223 12.6439 17.9805 12.302 17.9805 11.8803V11.8721C17.9805 11.4504 18.3223 11.1085 18.744 11.1085Z" fill="black"/>
<path d="M12.6355 17.9805C12.6355 17.5588 12.2937 17.2169 11.872 17.2169C11.4503 17.2169 11.1084 17.5588 11.1084 17.9805V18.7441C11.1084 19.1658 11.4503 19.5076 11.872 19.5076C12.2937 19.5076 12.6355 19.1658 12.6355 18.7441V17.9805Z" fill="black"/>
</svg>
