<svg width="24" height="24" viewBox="0 0 24 24" fill="none" xmlns="http://www.w3.org/2000/svg">
<path d="M17.932 12.0891C17.932 15.3061 15.3126 17.924 12.0928 17.924C8.87293 17.924 6.25476 15.3061 6.25476 12.0891C6.25476 8.87207 8.8741 6.2541 12.0928 6.2541C14.2576 6.2541 16.1468 7.43931 17.155 9.19319H13.7354V10.4473H19.1855V5H17.9308V8.08271C16.6538 6.22374 14.5193 5 12.0928 5C8.17545 5 5 8.17379 5 12.0891C5 16.0043 8.17545 19.1781 12.0928 19.1781C16.0101 19.1781 19.1855 16.0043 19.1855 12.0891H17.9308H17.932Z" fill="#342C2C"/>
</svg>
