<svg width="24" height="25" viewBox="0 0 24 25" fill="none" xmlns="http://www.w3.org/2000/svg">
<path d="M4.6875 18.2812H6.375V19.9688C6.375 20.1179 6.43426 20.261 6.53975 20.3665C6.64524 20.472 6.78832 20.5312 6.9375 20.5312H9.1875C9.33668 20.5312 9.47976 20.472 9.58525 20.3665C9.69074 20.261 9.75 20.1179 9.75 19.9688V18.2812H14.25V19.9688C14.25 20.1179 14.3093 20.261 14.4148 20.3665C14.5202 20.472 14.6633 20.5312 14.8125 20.5312H17.0625C17.2117 20.5312 17.3548 20.472 17.4602 20.3665C17.5657 20.261 17.625 20.1179 17.625 19.9688V18.2812H19.3125C19.4617 18.2812 19.6048 18.222 19.7102 18.1165C19.8157 18.011 19.875 17.8679 19.875 17.7188V5.34375C19.875 5.19457 19.8157 5.05149 19.7102 4.946C19.6048 4.84051 19.4617 4.78125 19.3125 4.78125H4.6875C4.53832 4.78125 4.39524 4.84051 4.28975 4.946C4.18426 5.05149 4.125 5.19457 4.125 5.34375V17.7188C4.125 17.8679 4.18426 18.011 4.28975 18.1165C4.39524 18.222 4.53832 18.2812 4.6875 18.2812ZM8.625 19.4062H7.5V18.2812H8.625V19.4062ZM16.5 19.4062H15.375V18.2812H16.5V19.4062ZM5.25 5.90625H18.75V17.1562H5.25V5.90625Z" fill="black"/>
<path d="M16.5 10.9688C16.6492 10.9688 16.7923 10.9095 16.8977 10.804C17.0032 10.6985 17.0625 10.5554 17.0625 10.4062V7.59375C17.0625 7.44457 17.0032 7.30149 16.8977 7.196C16.7923 7.09051 16.6492 7.03125 16.5 7.03125C16.3508 7.03125 16.2077 7.09051 16.1023 7.196C15.9968 7.30149 15.9375 7.44457 15.9375 7.59375V10.4062C15.9375 10.5554 15.9968 10.6985 16.1023 10.804C16.2077 10.9095 16.3508 10.9688 16.5 10.9688ZM16.5 16.0312C16.6492 16.0312 16.7923 15.972 16.8977 15.8665C17.0032 15.761 17.0625 15.6179 17.0625 15.4688V12.6562C17.0625 12.5071 17.0032 12.364 16.8977 12.2585C16.7923 12.153 16.6492 12.0938 16.5 12.0938C16.3508 12.0938 16.2077 12.153 16.1023 12.2585C15.9968 12.364 15.9375 12.5071 15.9375 12.6562V15.4688C15.9375 15.6179 15.9968 15.761 16.1023 15.8665C16.2077 15.972 16.3508 16.0312 16.5 16.0312ZM8.0625 12.537V13.2188C8.0625 13.3679 8.12177 13.511 8.22725 13.6165C8.33274 13.722 8.47582 13.7812 8.625 13.7812C8.77419 13.7812 8.91726 13.722 9.02275 13.6165C9.12824 13.511 9.1875 13.3679 9.1875 13.2188V12.537C9.4836 12.4078 9.72618 12.1805 9.87444 11.8935C10.0227 11.6064 10.0676 11.2771 10.0016 10.9608C9.93558 10.6446 9.76269 10.3607 9.51199 10.1569C9.26129 9.95314 8.94807 9.8419 8.625 9.8419C8.30193 9.8419 7.98871 9.95314 7.73801 10.1569C7.48731 10.3607 7.31442 10.6446 7.24841 10.9608C7.18241 11.2771 7.22731 11.6064 7.37557 11.8935C7.52383 12.1805 7.7664 12.4078 8.0625 12.537ZM8.625 10.9688C8.68063 10.9688 8.735 10.9852 8.78126 11.0161C8.82751 11.0471 8.86356 11.091 8.88484 11.1424C8.90613 11.1938 8.9117 11.2503 8.90085 11.3049C8.89 11.3594 8.86321 11.4095 8.82388 11.4489C8.78454 11.4882 8.73443 11.515 8.67987 11.5258C8.62531 11.5367 8.56876 11.5311 8.51737 11.5098C8.46598 11.4886 8.42206 11.4525 8.39115 11.4063C8.36025 11.36 8.34375 11.3056 8.34375 11.25C8.34375 11.1754 8.37338 11.1039 8.42613 11.0511C8.47887 10.9984 8.55041 10.9688 8.625 10.9688Z" fill="black"/>
</svg>
