<svg width="24" height="25" viewBox="0 0 24 25" fill="none" xmlns="http://www.w3.org/2000/svg">
<g id="Search">
<path id="Vector (Stroke)" fill-rule="evenodd" clip-rule="evenodd" d="M11.5483 6.22202C8.68004 6.22202 6.35483 8.54723 6.35483 11.4155C6.35483 14.2838 8.68004 16.609 11.5483 16.609C14.4166 16.609 16.7419 14.2838 16.7419 11.4155C16.7419 8.54723 14.4166 6.22202 11.5483 6.22202ZM5 11.4155C5 7.79898 7.93179 4.86719 11.5483 4.86719C15.1649 4.86719 18.0967 7.79898 18.0967 11.4155C18.0967 13.2374 17.3526 14.8856 16.1518 16.0726L19.75 20.4704L18.7014 21.3283L15.0954 16.9209C14.0732 17.5809 12.8555 17.9639 11.5483 17.9639C7.93179 17.9639 5 15.0321 5 11.4155Z" fill="#333333"/>
</g>
</svg>
