<svg width="24" height="24" viewBox="0 0 24 24" fill="none" xmlns="http://www.w3.org/2000/svg">
<path d="M16.4995 15.0587C15.9295 15.0587 15.4195 15.2837 15.0295 15.6362L9.68201 12.5237C9.71951 12.3512 9.74951 12.1787 9.74951 11.9987C9.74951 11.8187 9.71951 11.6462 9.68201 11.4737L14.9695 8.39122C15.3745 8.76622 15.907 8.99872 16.4995 8.99872C17.7445 8.99872 18.7495 7.99372 18.7495 6.74872C18.7495 5.50372 17.7445 4.49872 16.4995 4.49872C15.2545 4.49872 14.2495 5.50372 14.2495 6.74872C14.2495 6.92872 14.2795 7.10122 14.317 7.27372L9.02951 10.3562C8.62451 9.98122 8.09201 9.74872 7.49951 9.74872C6.25451 9.74872 5.24951 10.7537 5.24951 11.9987C5.24951 13.2437 6.25451 14.2487 7.49951 14.2487C8.09201 14.2487 8.62451 14.0162 9.02951 13.6412L14.3695 16.7612C14.332 16.9187 14.3095 17.0837 14.3095 17.2487C14.3095 18.4562 15.292 19.4387 16.4995 19.4387C17.707 19.4387 18.6895 18.4562 18.6895 17.2487C18.6895 16.0412 17.707 15.0587 16.4995 15.0587Z" fill="#005089"/>
</svg>
