<svg width="25" height="25" viewBox="0 0 25 25" fill="none" xmlns="http://www.w3.org/2000/svg">
<path d="M5.39549 6.03805C5.06544 6.11817 4.83337 6.41347 4.83337 6.7531V12.4242C4.85788 13.3065 5.24514 15.5418 6.59808 17.4242C7.84694 19.1617 10.5284 20.9076 11.9939 21.725C12.2058 21.8432 12.461 21.8432 12.6729 21.725C14.1383 20.9076 16.8198 19.1617 18.0687 17.4242C19.4216 15.5418 19.8089 13.3065 19.8334 12.4242V6.7531C19.8334 6.41347 19.6013 6.11817 19.2713 6.03805C18.407 5.82823 17.0573 5.49854 15.9363 5.21829C14.827 4.94096 13.6148 4.13096 12.849 3.52313C12.5495 3.2854 12.1172 3.2854 11.8177 3.52313C11.052 4.13096 9.83974 4.94096 8.73043 5.21829C7.60945 5.49854 6.25976 5.82823 5.39549 6.03805Z" stroke="white"/>
<path d="M15.0682 13.0945H12.9362V15.2266H11.7306V13.0945H9.59851V11.8889H11.7306V9.76953H12.9362V11.8889H15.0682V13.0945Z" fill="white"/>
</svg>
