<svg width="25" height="25" viewBox="0 0 25 25" fill="none" xmlns="http://www.w3.org/2000/svg">
<path fill-rule="evenodd" clip-rule="evenodd" d="M10.1881 17.454C11.2049 19.3399 13.1983 20.6214 15.4911 20.6214C18.8162 20.6214 21.5117 17.9259 21.5117 14.6007C21.5117 11.2756 18.8162 8.58008 15.4911 8.58008C15.2515 8.58008 15.0152 8.59407 14.7829 8.62128V10.9545C14.7641 11.6313 14.4759 13.2885 13.4663 14.6931C12.9926 15.3521 12.2628 15.9946 11.5375 16.5375C11.075 16.8838 10.6052 17.1962 10.1881 17.454Z" fill="#005089"/>
<path d="M15.3601 11.5902C15.5309 11.5057 15.7221 11.4488 15.9342 11.4198C15.9398 11.6105 16.0962 11.7633 16.2883 11.7633C16.4789 11.7633 16.6343 11.6128 16.6422 11.4241C16.8551 11.457 17.0443 11.5205 17.2103 11.6138L17.2104 11.6139C17.468 11.7573 17.6647 11.9683 17.8007 12.2484L17.8007 12.2484L17.801 12.2489C17.8987 12.4443 17.9625 12.6718 17.9917 12.9323C18.01 13.0954 17.8743 13.2337 17.7032 13.2337H17.6401C17.4724 13.2337 17.3345 13.0956 17.3031 12.9207C17.2635 12.7002 17.1846 12.5074 17.0658 12.3433C16.8839 12.092 16.619 11.9675 16.278 11.9675C16.0455 11.9675 15.8487 12.0095 15.6898 12.0961C15.5341 12.1798 15.4179 12.2987 15.3425 12.4524C15.2677 12.6021 15.231 12.7762 15.231 12.9734C15.231 13.1548 15.2679 13.3157 15.3432 13.4547C15.4191 13.5948 15.546 13.719 15.7202 13.8286L15.7202 13.8286L15.7209 13.829C15.8973 13.9354 16.1363 14.0394 16.4365 14.1413L16.4365 14.1413L16.4374 14.1416C16.7884 14.2532 17.0849 14.3847 17.3278 14.5358L17.3281 14.536C17.5693 14.6834 17.7515 14.8648 17.8763 15.0797C18.0003 15.2935 18.0636 15.5581 18.0636 15.8758C18.0636 16.2226 17.9857 16.5126 17.8323 16.7479C17.6784 16.9814 17.462 17.1598 17.1813 17.2827L17.1811 17.2828C16.9975 17.364 16.791 17.4188 16.5613 17.4466C16.5383 17.2754 16.3917 17.1434 16.2143 17.1434C16.0364 17.1434 15.8895 17.276 15.8671 17.4477C15.7469 17.4323 15.6274 17.4081 15.5086 17.3752C15.2865 17.3137 15.0861 17.2134 14.9071 17.0745C14.7296 16.9367 14.5872 16.7535 14.4801 16.5234C14.4116 16.3744 14.3648 16.2023 14.3401 16.0065C14.3197 15.8444 14.4552 15.7059 14.6267 15.7059H14.6938C14.8614 15.7059 14.9982 15.8441 15.0313 16.0192C15.0481 16.1079 15.0719 16.1891 15.1029 16.2628L15.1029 16.2628L15.1033 16.2637C15.1742 16.4224 15.2685 16.5504 15.3872 16.6458L15.3877 16.6462C15.5044 16.7373 15.6328 16.803 15.7726 16.843L15.7726 16.843L15.7734 16.8432C15.9112 16.8797 16.0493 16.8981 16.1875 16.8981C16.436 16.8981 16.6495 16.8576 16.8267 16.7748C17.0062 16.6922 17.1447 16.5744 17.2402 16.4211C17.3356 16.2679 17.3825 16.0883 17.3825 15.884C17.3825 15.7127 17.3439 15.5572 17.2659 15.4185C17.1874 15.2791 17.0597 15.1538 16.8859 15.0416C16.7142 14.9263 16.4841 14.8221 16.1971 14.7282L16.1964 14.728C15.8538 14.622 15.5586 14.4932 15.3101 14.342C15.0661 14.1918 14.8782 14.0075 14.7452 13.7895C14.6158 13.5702 14.55 13.3029 14.55 12.9857C14.55 12.655 14.6212 12.3726 14.7617 12.1366C14.9024 11.9003 15.1015 11.7182 15.3601 11.5902ZM16.2143 17.2311C16.3464 17.2311 16.4557 17.3287 16.474 17.4558C16.3821 17.464 16.2866 17.4682 16.1875 17.4682C16.1095 17.4682 16.0317 17.4646 15.9543 17.4574C15.9719 17.3295 16.0816 17.2311 16.2143 17.2311ZM15.9518 17.9745V17.5452C16.0301 17.5523 16.1087 17.5559 16.1875 17.5559C16.2871 17.5559 16.3835 17.5518 16.4767 17.5436V17.9745C16.4767 18.1194 16.3592 18.2369 16.2143 18.2369C16.0693 18.2369 15.9518 18.1194 15.9518 17.9745ZM16.2883 11.6756C16.1412 11.6756 16.022 11.5566 16.0217 11.4096C16.1041 11.4015 16.1896 11.3975 16.278 11.3975C16.3741 11.3975 16.4664 11.4025 16.5548 11.4124C16.553 11.5581 16.4344 11.6756 16.2883 11.6756ZM16.5548 10.7801V11.3242C16.4659 11.3146 16.3736 11.3098 16.278 11.3098C16.1899 11.3098 16.1045 11.3137 16.0217 11.3215V10.7801C16.0217 10.6329 16.1411 10.5136 16.2883 10.5136C16.4355 10.5136 16.5548 10.6329 16.5548 10.7801Z" fill="white" stroke="white" stroke-width="0.087703"/>
<path d="M4.90989 6.42117C4.6761 6.47792 4.51172 6.68709 4.51172 6.92766V10.9447C4.52908 11.5697 4.80339 13.153 5.76172 14.4864C6.64634 15.7171 8.54573 16.9538 9.58375 17.5328C9.73385 17.6165 9.91464 17.6165 10.0647 17.5328C11.1028 16.9538 13.0021 15.7171 13.8868 14.4864C14.8451 13.153 15.1194 11.5697 15.1368 10.9447V6.92766C15.1368 6.68709 14.9724 6.47792 14.7386 6.42117C14.1264 6.27255 13.1704 6.03901 12.3763 5.8405C11.5906 5.64406 10.7319 5.07031 10.1895 4.63976C9.97736 4.47137 9.67113 4.47137 9.45898 4.63976C8.91657 5.07031 8.05791 5.64406 7.27215 5.8405C6.47811 6.03901 5.52208 6.27255 4.90989 6.42117Z" stroke="#005089" stroke-width="0.708337"/>
</svg>
