<svg width="24" height="25" viewBox="0 0 24 25" fill="none" xmlns="http://www.w3.org/2000/svg">
<path fill-rule="evenodd" clip-rule="evenodd" d="M10.0193 6.8027C10.2461 7.01062 10.2615 7.36305 10.0536 7.58987L6.82367 11.1134H17.4428C17.7505 11.1134 18 11.3628 18 11.6705C18 11.9782 17.7505 12.2277 17.4428 12.2277H5.55716C5.33621 12.2277 5.13614 12.0971 5.04717 11.8949C4.95821 11.6927 4.99716 11.4569 5.14646 11.2941L9.23216 6.83692C9.44008 6.6101 9.79251 6.59477 10.0193 6.8027ZM17.9528 14.4176C17.8639 14.2154 17.6638 14.0848 17.4428 14.0848H5.55715C5.24945 14.0848 5.00001 14.3343 5.00001 14.642C5.00001 14.9496 5.24945 15.1991 5.55715 15.1991H16.1763L12.9465 18.7226C12.7385 18.9494 12.7539 19.3019 12.9806 19.5098C13.2075 19.7177 13.5599 19.7024 13.7678 19.4756L17.8536 15.0184C18.0029 14.8556 18.0418 14.6199 17.9528 14.4176Z" fill="black"/>
<path fill-rule="evenodd" clip-rule="evenodd" d="M17 9.65625C19.2091 9.65625 21 7.86539 21 5.65625C21 3.44711 19.2091 1.65625 17 1.65625C14.7909 1.65625 13 3.44711 13 5.65625C13 7.86539 14.7909 9.65625 17 9.65625ZM16.8582 3.50968V3.11767C16.8582 3.00378 16.9505 2.91146 17.0644 2.91146C17.1783 2.91146 17.2706 3.00378 17.2706 3.11767V3.51196C17.4287 3.53261 17.5689 3.57735 17.6912 3.64618C17.8679 3.74451 18.0026 3.88927 18.0955 4.08046C18.1622 4.21384 18.2054 4.36845 18.2251 4.54429C18.2394 4.67221 18.1331 4.77694 18.0044 4.77694H17.9625C17.8338 4.77694 17.7327 4.67167 17.71 4.54498C17.6843 4.40227 17.6335 4.27839 17.5574 4.17332C17.4427 4.01491 17.2761 3.9357 17.0576 3.9357C16.9064 3.9357 16.7808 3.96301 16.6806 4.01764C16.5823 4.07044 16.5095 4.1451 16.4621 4.24161C16.4148 4.33629 16.3911 4.44737 16.3911 4.57483C16.3911 4.69136 16.4148 4.79333 16.4621 4.88073C16.5095 4.96813 16.5896 5.04734 16.7025 5.11836C16.8172 5.18755 16.9738 5.25583 17.1723 5.3232C17.4072 5.39786 17.6066 5.48617 17.7704 5.58814C17.9343 5.68829 18.059 5.81211 18.1446 5.9596C18.2302 6.10709 18.273 6.28827 18.273 6.50313C18.273 6.73802 18.2202 6.9365 18.1146 7.09856C18.009 7.25879 17.8606 7.38079 17.6694 7.46455C17.5363 7.52343 17.386 7.56162 17.2187 7.57911V7.89746C17.2187 8.00984 17.1276 8.10095 17.0152 8.10095C16.9029 8.10095 16.8118 8.00984 16.8118 7.89746V7.58005C16.7201 7.56998 16.629 7.55242 16.5386 7.52737C16.3875 7.48549 16.2509 7.41721 16.1289 7.32252C16.0069 7.22784 15.9095 7.1022 15.8367 6.9456C15.7897 6.84343 15.7579 6.72611 15.7412 6.59364C15.7251 6.46592 15.8318 6.3611 15.9605 6.3611H16.0051C16.1338 6.3611 16.234 6.46654 16.2579 6.59301C16.2688 6.65017 16.284 6.70215 16.3037 6.74895C16.3492 6.85092 16.4093 6.93195 16.484 6.99204C16.5587 7.0503 16.6406 7.09218 16.7298 7.11768C16.819 7.14135 16.9083 7.15318 16.9975 7.15318C17.1595 7.15318 17.297 7.12678 17.4099 7.07397C17.5246 7.02117 17.612 6.94651 17.6721 6.85001C17.7322 6.7535 17.7622 6.6397 17.7622 6.50859C17.7622 6.39934 17.7377 6.30101 17.6885 6.21361C17.6393 6.12621 17.5583 6.04609 17.4454 5.97326C17.3343 5.8986 17.1841 5.83032 16.9947 5.76841C16.7653 5.69739 16.5668 5.6109 16.3993 5.50893C16.2336 5.40697 16.1053 5.28132 16.0142 5.13201C15.925 4.98088 15.8804 4.79788 15.8804 4.58302C15.8804 4.35905 15.9286 4.16604 16.0251 4.00398C16.1216 3.84192 16.2582 3.71719 16.4348 3.62979C16.5603 3.56769 16.7014 3.52766 16.8582 3.50968Z" fill="black"/>
</svg>
