<svg width="25" height="29" viewBox="0 0 25 29" fill="none" xmlns="http://www.w3.org/2000/svg">
<path fill-rule="evenodd" clip-rule="evenodd" d="M2.5 7.21289C2.5 6.54842 2.94772 6.00977 3.5 6.00977H21.5C22.0523 6.00977 22.5 6.54842 22.5 7.21289C22.5 7.87736 22.0523 8.41602 21.5 8.41602H3.5C2.94772 8.41602 2.5 7.87736 2.5 7.21289Z" fill="white"/>
<path fill-rule="evenodd" clip-rule="evenodd" d="M10.5 3.60352C10.2348 3.60352 9.98043 3.73027 9.79289 3.9559C9.60536 4.18153 9.5 4.48755 9.5 4.80664V7.21289C9.5 7.87736 9.05228 8.41602 8.5 8.41602C7.94772 8.41602 7.5 7.87736 7.5 7.21289V4.80664C7.5 3.84937 7.81607 2.93132 8.37868 2.25443C8.94129 1.57754 9.70435 1.19727 10.5 1.19727H14.5C15.2956 1.19727 16.0587 1.57754 16.6213 2.25443C17.1839 2.93132 17.5 3.84937 17.5 4.80664V7.21289C17.5 7.87736 17.0523 8.41602 16.5 8.41602C15.9477 8.41602 15.5 7.87736 15.5 7.21289V4.80664C15.5 4.48755 15.3946 4.18153 15.2071 3.9559C15.0196 3.73027 14.7652 3.60352 14.5 3.60352H10.5ZM5.5 6.00977C6.05228 6.00977 6.5 6.54842 6.5 7.21289V24.0566C6.5 24.3757 6.60536 24.6817 6.79289 24.9074C6.98043 25.133 7.23478 25.2598 7.5 25.2598H17.5C17.7652 25.2598 18.0196 25.133 18.2071 24.9074C18.3946 24.6817 18.5 24.3757 18.5 24.0566V7.21289C18.5 6.54842 18.9477 6.00977 19.5 6.00977C20.0523 6.00977 20.5 6.54842 20.5 7.21289V24.0566C20.5 25.0139 20.1839 25.932 19.6213 26.6089C19.0587 27.2857 18.2957 27.666 17.5 27.666H7.5C6.70435 27.666 5.94129 27.2857 5.37868 26.6089C4.81607 25.932 4.5 25.0139 4.5 24.0566V7.21289C4.5 6.54842 4.94772 6.00977 5.5 6.00977Z" fill="white"/>
<path fill-rule="evenodd" clip-rule="evenodd" d="M10.5 12.0254C11.0523 12.0254 11.5 12.564 11.5 13.2285V20.4473C11.5 21.1117 11.0523 21.6504 10.5 21.6504C9.94772 21.6504 9.5 21.1117 9.5 20.4473V13.2285C9.5 12.564 9.94772 12.0254 10.5 12.0254Z" fill="white"/>
<path fill-rule="evenodd" clip-rule="evenodd" d="M14.5 12.0254C15.0523 12.0254 15.5 12.564 15.5 13.2285V20.4473C15.5 21.1117 15.0523 21.6504 14.5 21.6504C13.9477 21.6504 13.5 21.1117 13.5 20.4473V13.2285C13.5 12.564 13.9477 12.0254 14.5 12.0254Z" fill="white"/>
</svg>
