<svg width="24" height="24" viewBox="0 0 24 24" fill="none" xmlns="http://www.w3.org/2000/svg">
<circle cx="12" cy="12" r="8.5" stroke="black"/>
<path d="M14.2207 12.6192C14.1468 12.5442 14.0462 12.5017 13.941 12.501C13.8357 12.5002 13.7346 12.5413 13.6596 12.6152C13.5847 12.6891 13.5422 12.7897 13.5415 12.8949C13.5407 13.0001 13.5818 13.1013 13.6557 13.1762L15.1254 14.6618H8.0572C7.95242 14.6618 7.85192 14.7034 7.77783 14.7775C7.70374 14.8516 7.66211 14.9521 7.66211 15.0569C7.66211 15.1617 7.70374 15.2622 7.77783 15.3363C7.85192 15.4104 7.95242 15.452 8.0572 15.452H15.1254L13.6557 16.9138C13.6191 16.9507 13.5901 16.9943 13.5704 17.0424C13.5507 17.0904 13.5407 17.1418 13.5409 17.1938C13.5411 17.2457 13.5515 17.297 13.5715 17.3449C13.5915 17.3928 13.6208 17.4363 13.6577 17.4729C13.6945 17.5095 13.7382 17.5384 13.7862 17.5581C13.8342 17.5778 13.8857 17.5879 13.9376 17.5877C13.9895 17.5875 14.0409 17.5771 14.0888 17.5571C14.1367 17.537 14.1801 17.5077 14.2167 17.4709L16.6307 15.0569L14.2207 12.6192Z" fill="black"/>
<path d="M10.6945 12.091C10.773 12.0915 10.8498 12.0685 10.9152 12.0252C10.9806 11.9818 11.0316 11.9199 11.0617 11.8474C11.0918 11.7749 11.0996 11.6951 11.0842 11.6182C11.0688 11.5413 11.0308 11.4707 10.9751 11.4154L9.50926 9.93774H16.5735C16.6783 9.93774 16.7788 9.89612 16.8529 9.82202C16.927 9.74793 16.9686 9.64743 16.9686 9.54265C16.9686 9.43786 16.927 9.33737 16.8529 9.26328C16.7788 9.18918 16.6783 9.14756 16.5735 9.14756H9.50926L10.9751 7.67386C11.0116 7.63702 11.0406 7.59334 11.0603 7.5453C11.08 7.49727 11.09 7.44583 11.0899 7.39392C11.0897 7.34201 11.0793 7.29064 11.0592 7.24275C11.0392 7.19485 11.0099 7.15138 10.9731 7.1148C10.9362 7.07822 10.8926 7.04926 10.8445 7.02956C10.7965 7.00986 10.7451 6.99982 10.6931 7C10.5883 7.00037 10.4879 7.04238 10.414 7.11677L8 9.54265L10.414 11.9685C10.4503 12.0066 10.4938 12.037 10.5419 12.058C10.5901 12.0791 10.642 12.0903 10.6945 12.091Z" fill="black"/>
</svg>
