<svg width="25" height="25" viewBox="0 0 25 25" fill="none" xmlns="http://www.w3.org/2000/svg">
<path d="M15.7155 14.402C15.9129 14.5339 16.1451 14.6043 16.3825 14.6043C16.701 14.6043 17.0064 14.4778 17.2315 14.2527C17.4567 14.0275 17.5832 13.7221 17.5832 13.4037C17.5832 13.1662 17.5128 12.9341 17.3808 12.7366C17.2489 12.5392 17.0614 12.3853 16.842 12.2944C16.6226 12.2035 16.3812 12.1798 16.1483 12.2261C15.9154 12.2724 15.7015 12.3868 15.5335 12.5547C15.3656 12.7226 15.2513 12.9365 15.205 13.1694C15.1586 13.4024 15.1824 13.6438 15.2733 13.8632C15.3642 14.0825 15.518 14.2701 15.7155 14.402Z" fill="black"/>
<path fill-rule="evenodd" clip-rule="evenodd" d="M15.684 4.49185C16.033 4.42619 16.3921 4.43793 16.7361 4.52627C17.0819 4.61507 17.4038 4.7791 17.6789 5.00665C17.954 5.23419 18.1755 5.51965 18.3275 5.84266C18.4796 6.16566 18.5585 6.51824 18.5586 6.87525V7.48022C19.6783 7.66016 20.5337 8.63085 20.5337 9.80131V17.0052C20.5337 18.3036 19.4811 19.3562 18.1827 19.3562H6.17618C4.87777 19.3562 3.8252 18.3036 3.8252 17.0052V8.56404C3.8249 7.99926 4.02166 7.45189 4.38155 7.01663C4.74153 6.58128 5.24215 6.28519 5.79707 6.17944L5.80747 6.17746L15.684 4.49185ZM17.4586 6.87561V7.45033H6.17618C5.87892 7.45033 5.59455 7.5055 5.33274 7.60616C5.51599 7.43017 5.74681 7.30978 5.99823 7.26091L15.8739 5.57534L15.8844 5.57345C16.0761 5.53692 16.2734 5.54315 16.4624 5.59169C16.6514 5.64023 16.8274 5.72988 16.9778 5.85426C17.1281 5.97863 17.2492 6.13466 17.3323 6.31121C17.4154 6.4877 17.4585 6.68053 17.4586 6.87561ZM4.9252 17.0052L4.9252 9.80031C4.92574 9.10987 5.48561 8.55033 6.17618 8.55033H18.1827C18.8736 8.55033 19.4337 9.11041 19.4337 9.80131V17.0052C19.4337 17.6961 18.8736 18.2562 18.1827 18.2562H6.17618C5.48528 18.2562 4.9252 17.6961 4.9252 17.0052Z" fill="black"/>
</svg>
